<?xml version="1.0" encoding="UTF-8"?>
<svg id="Calque_4" data-name="Calque 4" xmlns="http://www.w3.org/2000/svg" viewBox="0 0 272.16 272.16">
  <defs>
    <style>
      .cls-1 {
        fill: #686868;
      }
    </style>
  </defs>
  <path class="cls-1" d="M148.39,99.03c.19-.06.23-.2.23-.35,0-.14.09-.27.2-.23.47.18.53-.23.67-.46.38-.6.49-1.3.65-1.98.03-.12.01-.29.18-.32.14-.02.17.14.24.22.59.68.36,1.47.27,2.23-.1.82-.71,1.37-1.18,1.98-.06.08-.15.13-.22.21q-.36.42-.59-.08c-.13-.28-.29-.25-.44-.03-.15.22-.26.17-.43.01-1.41-1.29-2.22-2.88-2.39-4.79,0-.05-.01-.1-.01-.15.01-.26-.12-.61.14-.74.29-.15.43.21.62.38.43.36.88.68,1.22,1.15.65.89.79,1.9.82,2.96Z"/>
  <path class="cls-1" d="M123.69,99.03c-.19-.06-.23-.2-.23-.35,0-.14-.09-.27-.2-.23-.47.18-.53-.23-.67-.46-.38-.6-.49-1.3-.65-1.98-.03-.12-.01-.29-.18-.32-.14-.02-.17.14-.24.22-.59.68-.36,1.47-.27,2.23.1.82.71,1.37,1.18,1.98.06.08.15.13.22.21q.36.42.59-.08c.13-.28.29-.25.44-.03.15.22.26.17.43.01,1.41-1.29,2.22-2.88,2.39-4.79,0-.05.01-.1.01-.15-.01-.26.12-.61-.14-.74-.29-.15-.43.21-.62.38-.43.36-.88.68-1.22,1.15-.65.89-.79,1.9-.82,2.96Z"/>
  <path class="cls-1" d="M131.04,149.68c.43,1.86,1.28,3.45,3,4.44.04.02.1.05.14.08.9-.2,1.88-.27,2.9-.11.26.04.52.1.76.16.04-.03.08-.06.12-.09.07-.07.17-.11.25-.16,1.84-1.27,2.8-3.04,2.89-5.27.01-.33.17-.85-.13-.95-.39-.13-.59.39-.81.68-.5.68-1.09,1.25-1.83,1.92.23-.69.33-1.2.29-1.77-.16-1.96-1.22-3.49-2.36-4.98-.21-.28-.35-.18-.51.05-.38.55-.78,1.08-1.15,1.65-.94,1.46-1.41,3.03-1.03,4.83-.27-.06-.39-.23-.52-.38-.51-.55-1.04-1.08-1.46-1.71-.12-.17-.27-.43-.52-.33-.19.08-.18.35-.17.55.03.46.03.94.13,1.39Z"/>
  <path class="cls-1" d="M157.79,116.82s0,0,0,0c0,0,0,0-.01-.01,0,0,0,0,.01.01Z"/>
  <path class="cls-1" d="M160.68,108.67c.04-.05.08-.11.14-.16l-.15.16h.01Z"/>
  <path class="cls-1" d="M139.96,224.27c.68-.38,1.32-.23,1.93-.23.56,0,.7-.15.59-.66-.08-.35-.11-.72-.16-1.07-.23-1.46.37-2.67,1.25-3.74.7-.85,1.08-1.79,1.2-2.86.02-.21-.03-.51.18-.6.24-.1.43.14.62.29.47.37.6.84.61,1.42.02.68.18,1.36.27,2.04.22,1.85-.59,3.29-1.81,4.57-.22.23-.71.42-.56.77.14.32.63.17.96.16.55-.01.96-.32,1.24-.77.62-.98,1.47-1.66,2.58-2.01,1.24-.4,2.31-1.1,3.29-1.91.37-.3.68-.73.9-1.19.16-.34.35-.41.6-.03.29.44.23.9.14,1.35-.41,2.17-1.66,3.74-3.54,4.84-.3.17-.75.28-.82.58-.08.36.43.38.67.58.86.73,1.76,1.43,2.64,2.15.13.11.35.21.3.42-.05.21-.29.17-.46.21-.66.17-1.29.08-1.88-.26-.35-.2-.72-.25-1.11-.24-.75.02-1.5.03-2.24-.11-.83-.15-1.63-.41-2.21-1.05-.48-.52-1.12-.86-1.53-1.45-.09-.13-.24-.16-.38-.16-.83.02-1.54-.47-2.36-.5-.32-.01-.57-.26-.89-.52Z"/>
  <path class="cls-1" d="M132.11,224.3c-.21.23-.43.41-.69.44-.83.07-1.58.5-2.42.54-.64.03-.87.65-1.3.98-.82.62-1.51,1.4-2.59,1.61-.76.15-1.52.22-2.3.18-.58-.03-1.12.04-1.64.34-.58.33-1.21.27-1.83.13-.11-.03-.26-.08-.3-.17-.07-.16.09-.25.19-.34,1.04-.84,2.07-1.69,3.14-2.49.39-.29.35-.42-.01-.62-1.08-.58-2.08-1.25-2.81-2.27-.76-1.06-1.32-2.18-1.25-3.54.01-.24.08-.42.18-.63.21-.43.4-.41.61-.01.77,1.44,2.09,2.27,3.53,2.83,1.38.54,2.6,1.17,3.39,2.5.32.53,1.19.72,1.82.53.28-.09.31-.22.11-.43-.36-.38-.71-.77-1.06-1.17-1.26-1.42-1.48-3.05-1.13-4.84.09-.44.17-.87.18-1.32.02-.63.42-1.04.88-1.38.35-.25.4.03.44.29.12.89.32,1.75.85,2.51.29.41.57.84.88,1.24.84,1.08.92,2.3.74,3.58-.03.2-.07.4-.11.6-.1.45.06.67.53.61.44-.06.88.08,1.33.01.2-.03.44.04.63.26Z"/>
  <path class="cls-1" d="M190.38,194.88c-.5-1.14-.12-2.19.26-3.23.06-.16.11-.38.33-.39.19,0,.26.19.3.34.31,1.21.73,2.4.84,3.65.05.5-.08.97-.33,1.4-.22.39-.53.65-1.04.54-.17-.04-.37-.06-.54-.02-2.05.45-3.57-.43-4.84-1.93-.08-.09-.17-.18-.21-.29-.07-.17-.41-.11-.33-.36.08-.25.35-.24.56-.28.77-.13,1.54-.07,2.33-.02-.5-.2-.83-.56-1.15-.96-.4-.51-.92-.91-1.47-1.25-.47-.29-.45-.41.05-.68.98-.52,2.13-.18,3.07.85.71.78,1.4,1.56,1.86,2.52.03.06.11.1.16.16.05-.01.1-.02.15-.04Z"/>
  <path class="cls-1" d="M84.28,191.91c.27-.06.46-.26.66-.42.7-.55,1.42-.32,2.12-.04.37.15.44.39.05.65-.69.47-1.33.99-1.84,1.67-.19.25-.51.31-.77.5.75-.06,1.5-.08,2.24.04.64.1.7.22.26.7-.97,1.07-1.96,2.08-3.54,2.26-.84.09-1.64-.23-2.47-.08-.2.04-.39-.2-.49-.41-.3-.61-.51-1.27-.36-1.94.24-1.07.54-2.12.83-3.17.04-.17.09-.4.32-.38.18.01.23.21.28.36.36,1.03.77,2.06.43,3.23.63-1.11,1.4-2.09,2.28-2.98h0Z"/>
  <path class="cls-1" d="M116.64,221.71c-2.38-.41-4.78-.86-6.66-2.6-.9-.84-1.42-1.9-1.31-3.2.02-.27.17-.41.36-.51.23-.13.38.05.5.22.49.67,1.16,1.04,1.93,1.3,1.4.47,2.69,1.1,3.68,2.26.52.6,1.17,1.05,1.84,1.47.23.15.46.38.34.71-.11.29-.4.31-.68.36Z"/>
  <path class="cls-1" d="M163.42,216.29c-.14,1.84-1.26,3.01-2.77,3.86-1.59.9-3.36,1.28-5.15,1.55-.28.04-.58.01-.74-.29-.15-.3.04-.55.25-.68,1.11-.69,1.97-1.67,2.95-2.52.73-.63,1.65-.94,2.54-1.26.69-.25,1.36-.52,1.85-1.11.19-.22.34-.54.74-.38.41.16.31.51.32.84Z"/>
  <path class="cls-1" d="M135.13,232.72s-.09.04-.11.02c-1.22-1.22-2.93-1.51-4.38-2.29-.99-.54-1.74-1.23-2.15-2.29-.3-.78.03-1.18.86-1.15,2.19.08,3.61,1.24,4.55,3.12.38.76.79,1.51,1.18,2.26.05.1.15.2.05.33Z"/>
  <path class="cls-1" d="M137.03,232.85c-.18-.37.04-.53.13-.71.49-1.07,1.1-2.07,1.69-3.07.78-1.32,2-1.89,3.47-2.01.37-.03.75-.21,1.11.07.31.24.45.45.27.87-.49,1.15-1.26,2.02-2.41,2.52-.67.29-1.32.61-2,.88-.84.34-1.65.72-2.26,1.46Z"/>
  <path class="cls-1" d="M110.1,212.01c-.58,0-1.3-.81-1.19-1.33.1-.42.34-.59.68-.3.4.33.75.21,1.12.01.69-.37,1.19-.95,1.66-1.56.15-.19.28-.47.57-.26.23.17.16.44.02.66-.35.56-.62,1.16-.99,1.72-.46.69-1.09.99-1.87,1.06Z"/>
  <path class="cls-1" d="M163.21,210.8c.01.51-.84,1.27-1.37,1.2-.69-.08-1.25-.38-1.67-.98-.41-.58-.66-1.25-1.05-1.84-.15-.23-.14-.5.09-.65.22-.14.36.08.49.24.46.59.97,1.14,1.61,1.55.37.24.75.45,1.21.06.36-.3.68-.09.69.41Z"/>
  <path class="cls-1" d="M129.24,189.26c.51.35.96.78,1.32,1.16-.23-.41-.34-.87-.26-1.41.03-.25.1-.47.23-.68.11-.17.21-.3.3-.39-.16-.26-.31-.53-.46-.83-.65.48-1.03,1.13-1.09,1.97,0,.07-.02.13-.03.18Z"/>
  <path class="cls-1" d="M143.52,191.01c.41-.21.7-.55,1-.87.27-.28.17-.45-.19-.54q-1.22-.31-1.76-1.43c-.08-.16-.16-.33-.28-.47-.02-.02-.03-.04-.05-.06.13,1.4.09,2.99-.3,4.67,0,.03-.02.06-.02.1,0,0,0,0,0,0,.39-.54.94-1.05,1.58-1.37Z"/>
  <path class="cls-1" d="M152.99,183.02c-.6-.22-1.12-.46-1.52-1.02-.51-.72-1.24-1.21-2.1-1.56l-1.4,1.05c.78.84,1.68,1.51,2.73,1.97.36.16.33.35.03.57-.44.32-.94.34-1.45.33-1.06-.02-2.08-.29-3.07-.65-1.31-.48-2.63-.94-4.04-1.03-.14,0-.27-.02-.36-.06-.29.07-.56.12-.79.15.13.32.28.72.43,1.16.07-.05.19-.07.38-.06.8.03,1.56.18,2.32.4,1.59.47,3.2.89,4.86,1.05,1.04.1,2.08-.07,2.73-1.08.09-.14.2-.27.39-.14.03.16-.1.22-.19.29-.75.58-1.25,1.37-1.67,2.18-.04.08-.09.16-.14.22.14-.09.28-.19.42-.29,1.84-1.35,1.82-2.41,2.84-3.42-.12.01-.26-.01-.41-.07Z"/>
  <path class="cls-1" d="M133.5,151.14c4.24,6.19-.18-1.56.82-4.19-1.36-3.47-2.8,3.09-.82,4.19Z"/>
  <path class="cls-1" d="M133.5,151.14c4.24,6.19-.18-1.56.82-4.19-1.36-3.47-2.8,3.09-.82,4.19Z"/>
  <path class="cls-1" d="M129.23,203.26l-4.36,2.14-.58.26c-.38.17-.79.26-1.2.25h-.47c-.63-.02-1.25.1-1.84.33l-.5.2c-.27.11-.58.1-.85-.03l-1.06-.5c-.19-.09-.34-.23-.45-.41l-2.07-3.38c-.26-.42-.63-.76-1.07-.99l-3.25-1.65c-.07-.04-.16-.03-.22.01-.03.02-.05.04-.07.07,0,0,0-.01-.01-.02-.6,0-.58.02-.32.62.07.16.1.35.12.53.18,1.76.97,3.2,2.25,4.39.26.24.19.52-.15.61-.39.1-.74.11-1.06-.18-1.16-1.06-2.55-.97-3.95-.74-1.33.21-2.39.98-3.45,1.73-.68.48-1.38.92-2.07,1.37-.25.16-.41.13-.65-.12-1.17-1.18-2.07-2.59-3.26-3.75-.84-.82-1.86-1.38-2.92-1.84-.96-.42-1.99-.67-3-1-.11-.03-.24-.12-.34,0-.1.11,0,.23.06.33.91,1.36,1.45,2.97,2.52,4.21,1.1,1.29,2.5,2.24,4.1,2.86.2.08.45.06.6.35-1.56.38-3.1.64-4.68.48-.61-.06-.95-.65-1.28-1.14-.29-.43-.51-.92-.8-1.36-1.1-1.68-2.51-2.9-4.59-3.17-1.07-.14-1.77-.92-2.52-1.6-.09-.08-.17-.16-.34-.32-.14.65-.28,1.2-.12,1.78.54,1.99,1.77,3.47,3.41,4.66.13.1.26.19.39.29.01.01.02.03.04.07-.14.14-.29.05-.43,0-1.87-.56-3.31-1.67-4.28-3.38-.29-.52-.47-1.08-.46-1.68,0-.39-.09-.64-.51-.28-.09.08-.2.13-.31.19-.02,0-.03.02-.04.03-.36.28-.65.64-.75,1.09l-.13.56c-.12.53.01,1.09.36,1.52,1.37,1.67,3.37,2.51,5.69,2.93.94.17,1.89.18,2.85.03.44-.07.87.16,1.33.12-.38.24-.81.13-1.2.22-2.18.5-4.01,1.6-5.44,3.33-.41.5-.78,1.04-1.16,1.56-.19.27-.08.53.24.57,1.32.17,2.65.16,3.96-.03.68-.1,1.31-.39,1.88-.81,1.09-.8,1.98-1.78,2.69-2.93.58-.94,1.29-1.6,2.52-1.54,1.36.07,2.74.02,3.99.02-.17.11-.44.31-.75.47-1.49.78-2.31,2.09-2.7,3.64-.21.85-.17,1.76-.26,2.65-.03.28-.07.57-.17.83-.3.85-.45.93-1.33.79-1.26-.2-2.52-.15-3.8-.07.25-.16.49-.34.75-.47.34-.17.59-.47.56-.8-.04-.36-.46-.2-.71-.27-2.35-.58-4.7-.52-7.04.09-1.06.28-2.05.75-3.01,1.28-.12.07-.23.21-.38.1-.11-.09-.11-.2-.07-.31.09-.26.24-.5.41-.71.67-.85,1.26-1.73,1.75-2.69.42-.83.51-1.71.38-2.61-.08-.55-.26-.6-.74-.33-.5.29-.81.77-1.33,1.29.16-.88.3-1.6.3-2.34,0-.64-.09-1.25-.37-1.83-.08-.16-.11-.38-.31-.42-.25-.04-.32.21-.44.36-.06.08-.11.16-.21.31-.23-.45-.23-.89-.26-1.31-.08-1.14-.4-2.23-.69-3.33-.03-.12-.03-.33-.23-.29-.12.02-.17.13-.19.25-.04.23-.05.46-.05.7,0,3.86-.05,7.71.02,11.57.02,1.22.09,2.46.3,3.68.06.37.19.52.62.54,6.7.42,13.41.21,20.12.26.52,0,1.05.06,1.64-.07-.31-.37-.71-.39-1.05-.43-.43-.05-.81-.25-1.24-.26-.09,0-.22-.05-.26-.12-.08-.15.09-.19.17-.26.1-.11.34-.16.23-.36-.07-.14-.25-.09-.39-.1-.81-.03-1.61.12-2.42.2-.15.02-.37.13-.42-.08-.06-.23.2-.22.34-.25,1.2-.24,2.22-.89,3.26-1.46,2.46-1.35,3.79-3.45,3.95-6.28.05-.81.21-1.61,0-2.42-.05-.2,0-.34.19-.45.91-.54,1.66-1.3,2.51-1.91.86-.62,1.83-.92,2.86-1.05.16-.02.32-.02.47.03.13.04.35,0,.37.2.01.19-.19.19-.31.22-.9.23-1.67.71-2.42,1.24-1.41.99-2.06,2.43-2.36,4.07-.11.58-.3,1.18-.22,1.73.13.92.15,1.86.4,2.78.26.94.55,1.83,1.03,2.7.52.96,1.3,1.64,2.07,2.35.98.9,2.1,1.57,3.33,2.08.07.03.12.09.2.14-.23.35-.61.41-.93.58-.17.09-.3.22-.27.43.03.2.16.36.35.38,1.45.09,2.71.87,4.14,1.08,1.5.21,2.9.05,4.26-.58.31-.14.65-.23.95-.39.33-.17.45-.35.06-.66-.63-.52-1.4-.74-2.13-.98-1.38-.45-2.8-.85-4.29-.5-.19.04-.36,0-.53-.06-1.45-.52-2.91-1.08-4.17-1.96-1.56-1.09-2.54-2.68-3.06-4.48-.71-2.44-.44-4.77,1.08-6.88.62-.86,1.33-1.63,2.34-2.07,1.23-.53,3.16.18,3.74,1.38.08.17.03.25-.09.35-.63.5-.69,1.15-.45,1.86.07.2.07.4-.17.42-.59.06-.87.51-1.12.93-.35.59-.37,1.28-.38,1.94-.01.57.68,1.05,1.25.93.29-.06.41,0,.49.26.45,1.31,1.88,1.76,3.02.94.25-.18.48-.31.8-.37.93-.16,2.1-1.32,2.15-2.17.06-1.09-.47-1.99-1.17-2.78-.37-.42-.75-.78-1.45-.66-.5.08-1.05-.13-1.64-.22.23-.34.51-.39.82-.4.16,0,.36.02.4-.18.04-.19-.14-.34-.29-.33-1.06.01-1.26-.92-1.75-1.54-.09-.11-.17-.23-.26-.33-.19-.23-.07-.36.15-.36.81.03,1.64-.05,2.39.32.81.41,1.63.72,2.56.62.49-.05.55.16.47.62-.23,1.39-.24,2.78.31,4.13.11.27.28.48.52.64.44.29.9.11,1.04-.4.28-1.06.62-2.1,1.15-3.07.21-.39.37-.81.54-1.22.31-.79.81-1.31,1.48-1.59-.02,0-.04,0-.07,0l.78-.56c.68-.49,1.42-.87,2.21-1.14l3.43-1.18-1.59-.87Z"/>
  <path class="cls-1" d="M112.62,106.62c0,.44,0,.88,0,1.33-.18,0-.28-.13-.41-.23-.28-.21-.57-.39-.92-.46-.21-.04-.47-.11-.61.12-.13.21.07.38.18.54.18.25.38.47.57.71l1.41,1.52c.35.23.64.44.95.61.29.16.56.13.72-.19.55-1.08.66-2.19.2-3.34-.26-.65-.72-1-1.38-1.15-.46-.11-.71.04-.72.53Z"/>
  <path class="cls-1" d="M84.28,191.9c-.18-.02-.36-.06-.54-.07-.68-.02-.88-.24-.74-.91.14-.7.44-1.34.8-1.95.09-.16.21-.34.42-.29.23.05.17.28.2.46.08.5.17.99.23,1.49.06.47.02.93-.37,1.27,0,0,0,0,0,0Z"/>
  <path class="cls-1" d="M187.57,190.94c.08-.62.16-1.28.25-1.94.02-.14.03-.31.18-.36.16-.06.27.08.35.19.49.68.84,1.44.92,2.27.04.44-.2.76-.74.74-.73-.03-.98-.24-.95-.9Z"/>
  <path class="cls-1" d="M159.15,110.24l1.66-1.73c.23-.23.4-.5.59-.77.08-.11.15-.26.04-.39-.09-.11-.22-.08-.34-.07-.44.04-.79.3-1.16.5-.32.17-.46.07-.45-.27,0-.34,0-.69.04-1.03.03-.38-.21-.49-.49-.44-.46.08-.92.21-1.17.67-.51.89-.77,1.87-.56,2.87.29,1.45.58,1.68,1.86.67Z"/>
  <path class="cls-1" d="M155.59,135.74c2.92-1.16,4.17-3.55,4.75-6.43.09-.43.15-.88.04-1.33-.05-.18.02-.37.2-.47.18-.09.31.03.42.15.19.2.37.26.63.06.44-.34.88-.23,1.18.24.18.28.25.59.29.92.11.91.65,1.57,1.35,2.09.76.57,1.74.5,2.54-.09.3-.23.58-.49.93-.79-.52-.04-.9.15-1.31.27-.71.2-1.06.07-1.26-.63-.21-.78-.76-1.37-1.01-2.13-.15-.44-.71-.64-1.16-.82-.05-.02-.1-.04-.14-.06-.22-.1-.54-.2-.94-.23-.52-.04-.94.07-1.18.15-.18.06-.34.05-.34-.19.02-.95-.33-1.87-.23-2.84.26-2.7-.55-4.99-2.56-6.79,0,0,0,0,0,0,0,0,0,0-.01-.01-.06-.06-.13-.11-.19-.17-.28-.22-.55-.33-.74-.39-.28-.08-.65-.12-.68-.03-.02.07.16.16.39.37.26.23.54.58.63.85.14.25.23.51.2.79,0,.28-.02.51-.14.7-.1.17-.2.39-.33.39-.09.07-.16,0-.35.07-.26.1-.45.4-.47.64-.03.38.36.69.55.85.16.14.33.27.46.43,1.05,1.33,2.28,2.56,2.73,4.26.24.89.13,1.76-.74,2.38-.45.32-.73.8-.99,1.29-.63,1.18-1.23,2.38-2.17,3.36-.21.22-.41.43-.79.61,0-.03.01-.06.02-.1-.16.12-.39.29-.68.48-1.96,1.23-3.83,1.23-4.88,1.62.4.37.79.76,1.25,1.05.07,0,.14,0,.21,0,.87-.01,1.55,0,2.46.03.77.04,1.41-.28,2.07-.54ZM152.95,135.31c.96-.31,1.55-1.16,2.52-1.5,1.47-.53,2.17-1.86,2.81-3.19.33-.68.54-1.43,1.17-1.96-.27,4.01-2.73,6.79-6.51,6.65Z"/>
  <path class="cls-1" d="M79.98,203.4c.09-.87.13-1.74.65-2.54.69-1.06,1.76-1.55,2.96-1.21.37.11.36.24.13.43-.45.37-.85.78-1.16,1.27-.5.81-.77,1.59-.52,2.44,0,0,0,0,0,0,.05.16-.01.34-.16.42-.12.07-.25.13-.37.2-.72.39-1.61-.18-1.53-.99,0,0,0-.01,0-.02Z"/>
  <path class="cls-1" d="M192.02,203.38c-.09-.87-.13-1.74-.65-2.54-.69-1.06-1.76-1.55-2.96-1.21-.37.11-.36.24-.13.43.45.37.85.78,1.16,1.27.5.81.77,1.59.52,2.44,0,0,0,0,0,0-.05.16.01.34.16.42.12.07.25.13.37.2.72.39,1.61-.18,1.53-.99,0,0,0-.01,0-.02Z"/>
  <path class="cls-1" d="M118.16,133.58c-.3-.18-.54-.35-.7-.48,0,.03.01.06.02.1l-1.47-1.38c-.62-.81-1.09-1.71-1.57-2.59-.27-.49-.57-.97-1.02-1.29-.9-.62-1-1.48-.76-2.38.46-1.7,1.73-2.93,2.81-4.26.13-.16.31-.28.47-.43.19-.16.59-.47.56-.85-.02-.24-.21-.54-.49-.64-.19-.07-.27,0-.36-.07-.13,0-.23-.23-.34-.39-.12-.2-.15-.42-.15-.7-.03-.28.07-.54.21-.79.09-.28.39-.62.65-.85.24-.21.43-.3.41-.37-.03-.09-.42-.05-.7.03-.2.05-.47.16-.76.39-.07.06-.13.11-.2.17,0,0,0,0-.01.01,0,0,0,0,0,0-2.07,1.79-2.91,4.08-2.64,6.79.1.97-.26,1.88-.24,2.84,0,.24-.16.25-.35.19-.25-.08-.68-.19-1.21-.15-.4.03-.73.13-.96.23-.04.02-.09.04-.14.06-.47.18-1.04.38-1.19.82-.26.76-.82,1.35-1.04,2.13-.2.71-.56.84-1.29.63-.41-.11-.81-.3-1.34-.27.36.3.64.56.95.79.82.59,1.83.66,2.61.09.71-.52,1.28-1.17,1.39-2.09.04-.33.12-.64.3-.92.31-.47.76-.58,1.22-.24.27.2.45.14.65-.06.12-.12.25-.24.43-.15.19.1.26.29.21.47-.12.45-.05.9.04,1.33.6,2.88,1.89,5.27,4.89,6.43.68.26,1.34.58,2.13.54.94-.02,1.64-.04,2.53-.03.07,0,.14,0,.22,0,.47-.29.88-.67,1.29-1.05-1.08-.39-3-.4-5.02-1.62ZM113.03,128.66c.65.52.87,1.27,1.21,1.96.66,1.33,1.38,2.66,2.89,3.19,1,.35,1.61,1.2,2.6,1.5-3.89.14-6.42-2.64-6.7-6.65Z"/>
  <path class="cls-1" d="M116.64,221.71c-2.38-.41-4.78-.86-6.66-2.6-.9-.84-1.42-1.9-1.31-3.2.02-.27.17-.41.36-.51.23-.13.38.05.5.22.49.67,1.16,1.04,1.93,1.3,1.4.47,2.69,1.1,3.68,2.26.52.6,1.17,1.05,1.84,1.47.23.15.46.38.34.71-.11.29-.4.31-.68.36Z"/>
  <g>
    <path class="cls-1" d="M140.77,97.36c.36.07.69.19,1.01.33-.39-.2-.76-.42-1.09-.74-.18-.18-.42-.38-.76-.29.66,1.29,1.62,2.3,2.52,3.36,1.51,1.77,3.01,3.54,4.8,5.04-.13-2.92-5.77-4.86-6.49-7.7Z"/>
    <path class="cls-1" d="M153.22,98.21c-.71-.2-1.25.25-1.27.98,0,.21.03.41.12.59.52-.49,3.62-.18,4.76.5-.02-.11-.08-.25-.24-.43-.88-1.05-2.15-1.3-3.36-1.64Z"/>
    <path class="cls-1" d="M155.8,101.81c-3.96,1.19-2.82,2.02.28.1,1.18.96-.12,1.77-1.72,2.02.09.03.18.05.26.1.26.14.59.05.89-.07.36-.14.73-.25,1.09-.36.54-.16.61-.33.2-.74-.33-.33-.34-.59-.05-.91.09-.09.16-.2.2-.32.06-.16.09-.3.05-.4-.22.19-.61.39-1.21.59Z"/>
    <path class="cls-1" d="M158.59,124.98c.09-.45,0-.8-.39-1.12-.53-.43-1-.94-1.68-1.12-.35-.09-.36-.25-.22-.57.17-.38.23-.81.35-1.28-.19-.16-.57-.47-.55-.85.02-.24.21-.54.47-.64.19-.07.26,0,.35-.07-.08,0-.17-.08-.29-.31-.08-.16-.24-.21-.4-.24-.17-.03-.34-.09-.31-.3.06-.54-.26-.6-.67-.56-.08,0-.16,0-.24-.02-.15-.04-.37-.03-.37-.24,0-.16.2-.17.34-.19.52-.09,1.02-.25,1.45-.57.22-.16.37-.1.5.11.09.14.18.29.26.43-.09-.28-.38-.62-.63-.85-.23-.21-.42-.3-.39-.37.03-.09.41-.05.68.03.19.05.45.16.74.39-.02-.01-.03-.03-.05-.04-.24-.2-.2-.27-.04-.51.35-.52.91-.8,1.28-1.28.11-.14.29-.27.18-.47-.08-.15-.28-.21-.43-.19-.89.14-1.76-.18-2.65-.07-.18.02-.44.14-.56-.09-.12-.24.08-.43.24-.57,1.25-1.12,1.29-2.62,1.33-4.14.02-.5-.18-.98-.06-1.49.08-.35-.1-.4-.41-.36-.72.1-1.04.66-1.38,1.17-.48.72-.77,1.53-1,2.37-.05.17-.03.5-.36.47-.28-.02-.49-.19-.59-.46-.23-.65-.62-1.22-.83-1.89-.13-.42-.38-1-.77-.97-.42.04-.63.61-.76,1.08-.22.77-.35,1.54-.28,2.34.03.33-.05.59-.45.66-.86.15-1.46.79-2.19,1.18-.23.12-.42.55-.69.32-.21-.18.1-.5.18-.76.01-.04.05-.06.07-.1.46-.97.67-1.96.19-2.99-.12-.25-.04-.42.05-.62.82-1.73,1.97-3.2,3.39-4.47.37-.33.75-.7,1.22-.86-.49-.12-.89-.33-1.14-.64-.29.13-.54.32-.79.52-.23.71-1.86,2.89-2.86,2.93-.44.57-.85,1.17-1.24,1.78-.09.14-.12.38-.37.33-.23-.04-.31-.23-.38-.43-.34-.96-.8-1.86-1.38-2.7-.53-.76-1.06-1.56-2.17-1.55-.3,0-.42-.29-.53-.53-.29-.61-.64-1.17-1.1-1.67-.27-.3-.6-.5-1.02-.44-.54.07-.8-.19-1-.66-.46-1.06-.91-2.12-1.54-3.09-.26-.4-.74-.44-1.05-.08-.85.99-1.42,2.13-1.85,3.34-.16.45-.37.7-.89.53-.34-.11-.62.04-.84.33-.47.61-.97,1.19-1.35,1.87-.11.2-.25.34-.5.39-.89.18-1.54.68-2.05,1.45-.59.89-1.07,1.81-1.41,2.82-.08.23-.21.39-.47.42-.21.02-.28-.14-.35-.28-.37-.7-.84-1.33-1.34-1.94-.13,0-.27-.04-.45-.14-1.26-1.22-1.73-1.85-1.75-2.24-.02,0-.03,0-.04-.02-.4-.25-.69-.65-1.13-.86-.29.35-.8.53-1.39.61.09.04.19.07.28.13,1.83,1.18,3.16,2.82,4.24,4.67.24.42.47.86.05,1.33-.14.15-.12.38-.11.59.08.97.19,1.93.77,2.77.11.16.26.31.23.54-.17.08-.28-.05-.38-.13-.91-.64-1.81-1.31-2.86-1.7-.26-.1-.19-.31-.19-.51-.03-1.18-.34-2.28-.94-3.29-.16-.27-.28-.38-.57-.05-.62.71-.76,1.65-1.23,2.43-.17.28-.27.68-.64.63-.37-.05-.45-.48-.54-.78-.29-1.08-.78-2.02-1.56-2.83-.18-.18-.37-.28-.63-.32-.36-.05-.5.05-.42.42.11.54.11,1.1.03,1.64-.2,1.46.03,2.78,1.12,3.86.15.14.41.3.29.55-.12.24-.42.2-.66.21-.73.04-1.46.05-2.18.14-.48.06-.51.25-.27.58.26.36.51.74.81,1.06l.97.97v.05c.07,0,.15.02.23.07.54.33,1.11.58,1.73.72.1.02.23.05.21.16-.02.11-.11.23-.2.28-.43.22-.88.42-1.32.62-.13.06-.26.12-.4.15-.19.03-.26.34-.44.35l.24,1.61c.07.53.14.99.39,1.39.17.27-.04.37-.24.43-.56.19-1.04.51-1.47.91-.26.24-.5.48-.46.88.14,1.57.2,3.18.96,4.6.5.93,1.15,1.79,2.17,2.26.42.19.64.48.26.89-.24.26-.19.55-.12,1.03l.15.35,1.51.46,1.41,1.18,2.49.28c2.12-1.86,4.24-3.71,6.36-5.57-5.65,2.9-15,5.2-4.13.55-11.25-.05.38-.79,4.36-3.3-4.34-.21-19.45-.43-7.69-1.39-1.44-.49-2.88-1.01-4.24-1.7-3.32-3.01,5.56,1.15,7.38.86,3.32.65-9.47-9.8-5.58-11.49,3.4,5.16,1.27,3.32,3.73.61-.12,5.59,3.63,11.61,2.17,2.44,2.03-1.12,1.41,6.69,3.76,8.06.61.5,2.71,1.55,3.58,2.43,1.15-1.01,2.31-2.01,3.46-3.03-2.21-1.04-5.37-2.76-7.02-4.43,9.47,3.35-.02-3.74.09-9.44,11.91,18.01,1.3,3.21,4.43-3.98,3.65,15.12.02-1.93,3.17-3.4-.41,9.71,4.7-3.36.47,9.25-.33,6.44,2.65-2.37,4.44-3.8-.27,4.86-5.28,9.94-4.51,15.76.36.33.73.64,1.09.95,2.26-2.31,4.49-9.15,6.13-8.12-.76,1.95-2.88,8.13-5.13,8.99.07.06.14.13.22.19.78.68,1.56,1.36,2.34,2.05,5.36-10.34,5.68-2.24,11.62-14.89-2.38,10.9,2.55,8.41-11.19,15.27.75.66,1.51,1.32,2.26,1.97,3.16-1.57,10.23-5.08,11.43-4.51-1.51,1.93-9.43,5.25-3.77,3.62,1.3,1.8-3.4,2.33-6.38,2.01,1.25,1.1,2.5,2.2,3.76,3.28.15.13.3.27.45.41,1.05-.39,2.92-.4,4.88-1.62.29-.18.52-.35.68-.48.08-.4.02-.68-.21-.95-.3-.34-.1-.59.22-.78,1.62-.95,2.64-2.33,2.99-4.2.14-.74.29-1.47.43-2.21Z"/>
    <path class="cls-1" d="M154.41,101.44c-1.45-.58-2.14-1.01-2.34-1.31-.4.11-.66.24-.79.43.89.44,2.23,1.29,3.13.88Z"/>
    <path class="cls-1" d="M147.73,102.24c-.03-.15-.12-.3-.2-.44-.83-1.6-1.94-2.83-3.76-3.38-.49-.15-.98-.3-1.46-.49,2.46,1.37,4,4.5,6.15,5.49-.33-.33-.64-.67-.73-1.18Z"/>
    <path class="cls-1" d="M127.22,101.84c-1.26.67-1.58,2.06-1.8,3.16.38-.35.73-.73,1.11-1.08.9-.82,1.77-1.66,2.52-2.62.71-.91,1.39-1.84,2.17-2.69.43-.46.88-.88,1.15-1.46.06-.13.18-.26.03-.38-.1-.08-.24,0-.34.06-1.34.88-2.88,1.29-4.31,1.95-1.51.7-2.79,1.69-3.46,3.26-.21.5-.41.99-.7,1.43,1-.32,2.35-.85,2.92-2.78,5.21-4.49,6.01-2.89.69,1.15Z"/>
    <path class="cls-1" d="M118.38,98.35c-.24.09-.43.33-.73.24-.38-.11-.69.03-1.03.2-.47.24-.77.64-1.15.97-.37.32-.41.53-.12.74.06-.1.17-.2.33-.29,1.35-.73,4.04-.85,4.45-.32-.03-.15-.01-.31.04-.51.05-.21,0-.44,0-.67-.47-.75-1.12-.61-1.79-.36Z"/>
    <path class="cls-1" d="M118.87,100.05c-.1,0-.19.02-.28.07.09-.02.26-.05.28-.07Z"/>
    <path class="cls-1" d="M120.66,100.33c-.26-.06-.39-.17-.47-.3,0,.31-.62.78-2.26,1.4.84.34,2.07-.36,2.95-.8-.06-.16-.13-.29-.22-.31Z"/>
    <polygon class="cls-1" points="120.17 98.71 120.17 98.71 120.17 98.72 120.17 98.71"/>
    <path class="cls-1" d="M115.25,103.5c.86.26,1.64.83,2.67.45.05-.02.11-.03.16-.05-1.77-.3-3.26-1.22-1.66-1.86.32.11.6.21.85.31-.73-.35-1.47-.79-1.8-1.22-.45.1-.5.22-.2.67.29.44.34.8-.05,1.19-.16.16-.21.43.04.51Z"/>
  </g>
  <g>
    <path class="cls-1" d="M111.61,117.44c.08-.09.11-.21.16-.32.58-1.23.95-2.51,1.08-3.83-.92,2.87-3.62,5.39-5.43,7.92.1.12.22.28.35.45.04-.03.07-.06.11-.09.04-.03.1-.08.14-.11,1.51-1.06,2.43-2.63,3.57-4.02Z"/>
    <path class="cls-1" d="M103.55,105.35c-1.31,2-1.58,6.02-1.74,9.36.43-.38.78-.86,1.1-1.39.54-.89,1.02-1.8,1.17-2.84.17-1.22.44-2.43.19-3.67-.12-.58.04-1.16-.16-1.81.53.18.8.53,1.13.78.79.58,1.57,1.17,2.57,1.37-.06-1.21-.99-2.15-4.35-3.28-.94-3.11,5.93,2.8,5.74,1.27,2.01-2,6.43-9.78,3.72-2.77-.68,1.03-1.21,1.98-1.67,2.9.16-.13.31-.28.45-.45,1.04-1.21,1.86-2.55,2.33-4.09.25-.82.23-1.68.22-2.53,0-.17-.01-.41-.2-.48-.18-.07-.24.18-.36.27-.54.4-.96.92-1.43,1.39-.95.94-1.57,2.11-2.42,3.11-.43.51-.69,1.01-.76,1.65-.04.37-.18.45-.51.23-.45-.3-.84-.7-1.41-.81-.16-.03-.33-.09-.37-.27,0-.04,0-.07,0-.1-1.74.74-6.24-2.54-7.64-4.99,6.66,2.71,5.96,3.63,6.45-1.95,1.74,3.44,2.14,5.39,1.77,6.33.39-.43.51-.96.47-1.57-.06-.92-.29-1.8-.67-2.64-.45-1-.94-1.98-1.71-2.78-.15-.16-.33-.33-.58-.2-.25.14-.29.37-.23.63.13.55.05,1.08-.05,1.63-.12.64-.21,1.28-.3,1.92-.08.61-.12.63-.63.3-1.19-.77-2.39-1.52-3.72-2.06-.55-.22-1.1-.18-1.66-.12-.2.02-.41.11-.47.33-.06.25.1.43.29.56.24.16.41.38.61.58,1.26,1.33,2.54,2.63,4.43,3.06.3.07.56.2.73.5-.25.18-.51.17-.77.21-.59.09-.65.24-.32.73.14.21.38.43.2.71-.52.79-.95,1.64-1.52,2.41-1.04,1.4-2.16,2.78-2.52,4.5,2.46,4.14,1.1-4.49,4.62-5.94Z"/>
    <path class="cls-1" d="M97.91,110.55c-.26-1.05-.35-2.13-.47-3.21-2.21-.23-2.11-8.28.34-7.79-.75,1.9-.52,3.61-.08,5.25.16-.28.32-.55.53-.78.65-.69.81-1.53.87-2.4.03-.39,0-.89-.45-1.05-.63-.22-.8-.67-.86-1.25-.02-.2-.11-.39-.18-.58-.15-.36-.36-.36-.57-.06-.21.27-.41.55-.59.85-.63,1.04-1.27,2.08-1.11,3.38.04.34.05.69.12,1.03.18.89.16,1.84.6,2.65.52.95.62,1.94.53,2.99-.11,1.21-.03,2.39.56,3.46.18-.04.42-.03.75.03,1.02.87-.67-1.73.02-2.52Z"/>
    <path class="cls-1" d="M98.14,115.38c-.44-.26-.97-.81-1.24-1.32-.67-.14-1.34-.19-2.02-.2-4.91,1.44,3.18,2.75,3.26,1.53Z"/>
    <path class="cls-1" d="M96.39,149.92c-.58.12-.78.44-.67,1.03.02.09.09.18.12.27l1.06,1.75s.07.09.1.17c.09.28.34.5.58.59.76.29,1.45.72,2.18,1.07.38.18.7.05,1-.22,1.03-.91,2.07-1.82,3.11-2.72.3-.27.61-.53.91-.8-1.01.21-3.58-.11-7.08-.45,3.39-1.92,3.53.29,2.42-3.79,3.48,2.11,5.04,3.26,5.14,3.83.99-.87,1.99-1.74,2.98-2.61-2.06-.5-4.71-2.81-6.23-3.64,1.61-1.21,2.44,1.47,1.75-1.7,1.38-.32,4.82,7.23,2.56.72-4.5-5.1-1.08-2.95-3.5-9.52,3.68,6.31,4.72,3.34,5.45,10.27,1.56,4.26.48-2.94,2.36-3.39,1.64,1.4-.71,3.61,1.85,1.05.28.64.02,1.78-.48,2.92.67-.59,1.35-1.18,2.02-1.77,1.19-1.04,2.56-1.95,2.8-3.71.02-.13.15-.19.26-.23.97-.37,1.74-1.02,2.46-1.75l.76-.42-1.88-.38c-.57.29-1.03.64-1.53.92-.23.12-.33-.07-.43-.21-.44-.64-1.05-.77-1.76-.62-.13.03-.24.03-.35-.01-.5-.19-.71.07-.81.52-.04.19-.04.47-.25.52-.23.05-.27-.26-.4-.4-.58-.61-1.09-1.33-2.05-1.35-.16,0-.27-.08-.37-.18-.55-.55-1.2-1.01-1.61-1.71-.22-.38-.72-.41-1.05-.1-.14.14-.28.3-.37.48-.19.38-.43.41-.7.1-.19-.22-.37-.34-.68-.26-.29.08-.5-.13-.71-.28-.33-.24-.65-.49-.99-.71-.15-.1-.38-.24-.49-.19-.81.36-1.46-.22-2.19-.32-.14-.02-.29-.11-.4.02-.12.14-.02.27.07.38.3.38-.13.91.31,1.28-.47-.15-.84-.47-1.04-.83-.25-.45-.57-.76-.97-.97-.57.22-1.27.47-1.97.76.35.05.69.15,1.02.32,1.04.53,1.5,1.31,1.81,2.2.16.45.45.81.65,1.23.16.33.11.41-.23.46-.97.14-1.2.43-1.14,1.4.05.89.11,1.78.18,2.67.02.21,0,.4-.09.66-.3-.18-.57-.37-.86-.11-.29.25-.49.57-.4.96.1.43.25.86.39,1.28.17.51,0,.83-.54.94-.19.04-.37.09-.44.28-.2.57-.67.9-1.1,1.26-.49.41-.49.68.03,1.05.31.22.68.44.45.85-.25.45-.39,1.04-1.03,1.17Z"/>
    <path class="cls-1" d="M92.06,102.83c-.12.66-.29,1.44-.52,2.37-1.31,2.95-3.26,4.53-4.97,5.21.15,0,.31-.01.46,0-.33.1-.67.14-1,.2-.03,0-.06,0-.08.01-.41.12-.8.18-1.15.2-.6.11-1.19.25-1.73.59-.77.5-.83.49-1.39-.24-.11-.15-.24-.29-.37-.43-.6-.65-1.56-.84-2.35-.44-.46.23-.51.46-.11.75.34.25.68.51,1.02.77.82.64.96.93.5,1.55,2.83-1,8.31-1.45,9.57-3.24.67,2.58-5.31,3.72-9.02,4.69,1.12.07,1.15.36.87,1.89-.01.06-.04.16-.06.22-.77,2.29-.8,4.65-.62,7.03.11,1.46.38,2.89,1.17,4.17.22.36.42.75,0,1.08-.5.39-.38.77-.07,1.19.25.32.48.63.82.88.52.38.99.82,1.59,1.32-.83,0-1.46.21-2.12.28-.78.09-.92.25-.72,1.02.16.6-.09.76-.6.68-.43-.06-.7.11-.89.46-.25.46-.52.88-.91,1.26-.5.48-.53,1.14-.24,1.7.03.06.07.19.04.22-.34.3-.38.74-.58,1.11l.69,1.87c.2,0,.41,0,.61-.02.33-.03.61-.01.72.37.06.2.23.35.41.27.56-.25,1.17,0,1.73-.23.39-.16.58-.04.5.42-.06.37-.23.79.21,1.04.45.26.9.29,1.37-.02.56-.37,1.24-.33,1.87-.45.21-.04.25.11.26.31.06.87-.07,1.73-.21,2.58-.08.46.08.36.35.32.66-.1,1.32-.18,1.95-.42.54-.2,1.08-.18,1.59.03.67.28,1.24.09,1.76-.31.42-.32.71-.25,1.03.13.49.57,1.37.65,2,.25.42-.27.75-.62,1.06-1,.35-.42.49-1,1.09-1.23.16-.06.27-.35.33-.56.4-1.46.67-2.95.73-4.47.03-.79-.08-1.64-.83-2.11-.63-.4-1.2-.9-1.9-1.19-.22-.09-.43-.21-.64-.32-.05.04-.1.08-.15.13,1.67,2.22,3.88,8.96.15,9.51.94-5.98,1.15-4.81-1.77-.39.81-8.28,1.48-3.72-4.8.3,8.72-13.38-.37-3.25-8.33-5.11,7.82-3.12,8.45-.28,3.16-4.32,5.52,1.87,14.3-.9,3.74-2.71,2.62-2.88,1.05-.46-3.78-2.79,3.08-3.03,11.57,4.79,5.6-1.67,2.44-1.77,5.9,7.72,3.2.38,2.1,1.74,2.72,3.04,2.97,3.75.22-.94-.19-1.86-.27-2.78-.01-.15-.04-.32-.18-.37-.52-.17-.61-.66-.85-1.04-.85-1.34-2.04-2.06-3.68-2.03-.96.02-1.88.13-2.74.61-.16.09-.38.14-.43.31-.23.71-.64.44-1,.17-1.2-.87-2.36-1.77-3.03-3.15-.13-.26-.3-.49-.08-.78.23-.32.55-.31.88-.26.84.12,1.65.03,2.44-.25.89-.32,1.52-.86,1.71-1.86.17-.86.77-1.55,1.14-2.33.26-.55.58-1.07.84-1.62.2-.43.47-.46.82-.24,1.44.9,3.06,1.25,4.68,1.63,1.21.28,2.42.34,3.64.22-3.04-2.02-9.72-1.24-9.46-3.33-.47.04-.85.06-1.18.07-.04.05-.09.1-.13.16-.17.28-.58.56-.05.89.11.07.08.19,0,.26-.65.65-.93,1.49-1.28,2.35-.32-.79-.87-1.42-1.18-2.18-.1-.25-.2-.52-.43-.65-.26-.16-.54-.45-.88-.27-.3.17-.15.5-.15.78,0,.55-.03,1.09-.06,1.64-.05.75.21,1.39.69,1.95.25.29.44.63.67.93.34.45.07.54-.26.56-.48.03-.98.04-1.45-.04-.47-.08-.88-.05-1.29.17-.12.06-.24.21-.38.08-.12-.11-.07-.26-.05-.4.13-.95.5-1.84.83-2.73.44-1.2.68-2.38.14-3.6-.16-.36.07-.37.31-.37.89,0,1.78,0,2.67.02.4.01.73-.06,1.08-.28.25-.16.56-.5.9-.29,1.29-.74,3.26-1.81,3.27-2.93.75-1.64,1.67-10.04,3.71-7.5-1.15,2.22-3.6,10.08-2,9.89.43-.28,1.24-.61,1.87-.68.06-.1.13-.2.16-.31.18-.55.45-1.02.74-1.51.79-1.34.56-3.08-.53-4.11-.16-.15-.18-.29-.16-.48.15-1.36-.11-2.7-.13-4.06,0-.36-.09-.72-.16-1.08-.05-.24-.15-.49-.45-.51-.3-.02-.49.17-.61.42-.11.22-.16.45-.12.71.04.2.03.4-.07.59-.4.75-1.06,1.34-1.33,2.19-.12-.25-.17-.48-.23-.71-.06-.23-.11-.47-.16-.71ZM82.5,125.25c.29.33.58.65.87.98.42.47.92.84,1.48,1.14.12.07.37.07.28.31-.07.18-.09.41-.32.49-.07.03-.17,0-.24.04-1.2.7-1.35.25-1.83-1.01-.22-.58-.43-1.18-.24-1.95ZM89.8,112.1c-.22.29-.35.64-.65.87-.13.1-.27.26-.42.13-.16-.14,0-.31.1-.42.73-.87,1.33-1.85,1.75-2.89.39-.95.61-1.96.91-2.95.03-.1.07-.19.11-.28-.05,2.02-.58,3.9-1.81,5.54Z"/>
    <path class="cls-1" d="M85.54,109.18c-.48.12-.95.32-1.43.55,1.32-.06,4.14-1.24,1.43-.55Z"/>
    <path class="cls-1" d="M110.15,107.63c-.82,1.81-1.68,3.67-3.26,5.97-.22-2.64.66-4.4.88-5.77-1.8,1.36-1.97,3.34-1.92,5.4,0,.16.04.32.03.48-.02.23-.17.54.18.6.3.05.58,0,.87-.26.94-.88,1.47-2.05,2.19-3.14.04.09.06.17.09.26.42-.54.86-1.07,1.27-1.52-.06-.68-.2-1.35-.33-2.02Z"/>
    <path class="cls-1" d="M78.54,108.44c.52-.05,1.03.12,1.56.04.43-.07.93-.38,1.28-.17.65.41,1.05.01,1.52-.27.19-.12.38-.24.63.03-.23.08-.44.16-.64.23-.4.14-.77.41-.88.78-.09.31.24.71-.05,1.07,0,0,.12.17.21.2.6.21,1.19.47,1.85.42-1.96-.37-1.68-2.63,5.43-4.39.64-2.72,1.59-5.07,2.23-5.96-.03-.15-.05-.31-.08-.46-.18-.86-1.33-1.49-2.03-.98-.28.2-.55.42-.78.68.75,1.64-.23,3.2-1.84,4.48-.06.06-.12.12-.18.18.04-.04.07-.09.11-.13-2.14,1.66-5.31,2.82-7,2.98,2.53-2.44,6.59-3.46,8.13-6.91,0-.04,0-.07,0-.11-.02-.37.03-.68.3-.94.04-.04.08-.08.12-.12,0-.02.01-.04.02-.06,0,0,0,.01.01.02.06-.09.1-.19.03-.31-.12-.22-.39-.31-.58-.23-.45.21-1.09.1-1.34.7-.04.1-.13.17-.24.15-.05,0-.07-.03-.1-.06.46,1.51-.32,4.69-3.4,5.04-2.15-1.15,5.77-4.35,1.26-4.68.95-1.48,1.71-1.36,2.05-.59-.15-.91-.61-1.16-1.52-.84-.82.28-1.34.95-1.99,1.46-1.09.85-1.45,2.3-2.45,3.26-.23.22-.08.42.17.57.44.26.91.3,1.41.3.15,0,.36-.05.43.14.07.19-.06.36-.2.47-.14.11-.3.2-.46.29-.15.09-.29.24-.19.4.37.59-.16.56-.44.59-.59.07-1.13.15-1.26.88-.02.14-.23.23-.3.37-.23.44-.85.5-.99,1.03-.06.21-.12.47.19.44Z"/>
    <path class="cls-1" d="M89.24,121.38c-.73.28-1.24.9-1.82,1.4-.24.21-.18.43.09.59.1.06.22.14.34.13,1.69-.04,2.95,1.05,4.39,1.66,1.55.66,3.11,1.18,4.82,1.11.47-.02.95.08,1.45.01-.03.26-.22.27-.35.35-.72.45-1.23,1.06-1.43,1.89-.24.98-.43,1.98-.55,2.98-.01.09-.02.18-.03.28.84-.83,2.78-2.71,7.68-5.89-.06,3.19-3.5,3.69-5.42,5.2,1.01.12,1.67.25,2.06.38.69-.33,1.29-.8,1.81-1.42.95-1.12,1.56-2.41,2.1-3.74.18-.45.39-.89.67-1.29.08-.11.22-.23.14-.38-.1-.19-.29-.07-.44-.05-.27.03-.54.07-.87.11.16-.17.36-.31.57-.42-3.19-.02-10.71-.69-14.16-1.57-.63-3.15,7.42.83,9.78.21,3.23.48,4.93.81,5.56,1.03.54-.02,1.05.13,1.38.48.58.62,1.23,1.15,1.88,1.69.37-.16.89-.36,1.39-.37-.72-.78-1.59-1.42-2.31-2.21-.15,0-.32,0-.54-.05-3.54-1.43,3.86-10.68,5.47-12.32-.02-.11-.03-.23-.05-.34-.01-.1-.07-.18-.15-.23l-1.01-.61c-.17,1.55-2.2,3.84-3.47,3.52-.42.4-.8.83-1.19,1.25-1.28,1.42-1.67,3.15-1.81,4.98-.01.14,0,.28-.03.42-.07.38-.26.44-.53.16-.96-.98-1.95-1.94-2.82-3.01-.04-.05-.08-.1-.12-.14-.05.75-.1,1.41-.18,1.91.86,1.02,1.81,1.95,2.76,2.88.11.11.26.19.3.46-1.22-.43-2.44-.68-3.64-1-1.86-.49-3.75-.88-5.67-1.01-2.06-.14-4.08.25-6.01.98Z"/>
  </g>
  <g>
    <path class="cls-1" d="M40.59,154.26c-1.39,4.24-1.82,9.67-2.63,12.1-1.45-8.23-.41-1.58-1.38,2.29-2.29-3.83-.55-10.1,1.37-14.31-6.95,8.41-3.67,6.73-11.4,9.34,3.59-3.69,4.7-6.26,8.4-9.19-1.46.35-2.89.85-4.23,1.58-1.44.79-2.6,1.78-3.25,3.37-.56,1.36-1.36,2.62-2.29,3.78-.12.15-.3.31-.18.54.11.21.35.17.55.19,1.27.11,2.54.14,3.82.17,1.12.03,2.17-.18,3.13-.7.45-.24.59-.08.68.3.12.53,0,1.06.08,1.6.16,1.21.47,2.37.81,3.53.26.89.74,1.72.77,2.67.02.61.2,1.16.51,1.66.23.36.34,1.08.71,1.01.51-.1.54-.83.74-1.3,0-.02,0-.04,0-.06.16-1.42.71-2.7,1.43-3.91,1.57-2.63,2.8-5.41,3.29-8.44.32-1.95.37-3.95-.74-5.77-.1-.16-.17-.31-.22-.46Z"/>
    <path class="cls-1" d="M76.59,156.11c-.04-.14-.05-.28-.07-.42-1.39,1.63-1.29,4.25-1.54,6.39-2.28-5.13-2.66,4.29-7.04,9.86.74-4.94.45-11.77,4.47-15.34-.31.17-.63.33-.93.52-.47.28-.92.57-1.2,1.09-.17.31-.5.51-.84.55-1.05.14-1.68.81-2.23,1.62-.44.65-.92,1.27-.99,2.11-.04.51.25.97.14,1.49-.05.23-.03.49-.15.7-.17.3-.21.59-.14.93.08.38.01.71-.3,1.04-.43.47-.04,1.01.15,1.46.15.33.31.64.36,1.01.11.81.45,1.58.52,2.41.02.31.31.59.48.89.12.21.15.49-.05.59-.19.09-.25-.19-.31-.35-.15-.43-.37-.8-.78-1.04-.15-.09-.31-.23-.37-.39-.23-.56-.61-1.02-1.07-1.38-1.07-.82-1.21-1.89-.94-3.1.13-.59.23-1.19.34-1.79.05-.29-.14-.62-.13-.8.03-1.13-.91-1.01-1.51-1.34-1.09-.6-2.32-.98-3.15-1.99-.16-.2-.4-.38-.64-.45-.63-.2-.46-.58-.22-.93.31-.45.72-.82,1.17-1.14,1.11-.81,2.28-1.54,3.51-2.15,1.34-.66,2.13-1.81,2.88-3.03.14-.23.14-.5.16-.77.02-.29.17-.47.46-.45.36.03.24.29.2.51-.14.68-.26,1.34-.27,2.06-.02,1.25-.71,2.33-1.62,3.2-.57.55-1.34.49-2.07.51-.29,0-.77-.2-.83.19-.05.31.44.41.73.52,1.36.53,2.54.19,3.74-.59,1.24-.8,1.8-1.98,2.18-3.3.15-.49.12-1.04.19-1.55.04-.28.1-.56.18-.83.08-.31.27-.47.62-.43,1.81.2,3.62.37,5.43.6.45.06.91.04,1.35.08.02.22-.13.26-.2.34-.7.79-1.41,1.56-2.21,2.24.77-.41,1.65-.74,2.66-.96.39-.81,1.31-1.24,2.38-.88,1.89.65,3.82.67,5.75.57-.02-.53-.1-1.13-.19-1.68-1.25-.19-2.48-.49-3.75-.61-.87-.09-1.74-.03-2.61-.1-.33-.03-.65-.02-.94-.18-1.4-.76-2.65-1.72-3.65-2.97-.08-.1-.16-.2-.23-.3-3.3-1.79-4.07-.49-9.28-1.96-.16-1.27,8.51.82,2.45-1.73-1.22-.77-4.28-2.95-3.8-5,2.33,1.82,3.71,4.29,6.87,4.58-1.56-1.3-7.6-6.04-5.28-6.9,9.36,14.33-3.83-15.16,4.93,2.72-.53-3.6-.93-8.83,1.5-11.54.78,3.5-3.17,11.02,1.53,4.51-1.26,7.91-3.36,6.88,2.52,3.49-2.43,3.41-5.45,8.42.34,5.99-2.58,1.76-2,3.09-.92,4.63.06,0,.11,0,.17,0,.62.05,1.2-.08,1.77-.33.84-.36,1.2-1.03,1.34-1.87.06-.36.15-.71.22-1.07.05-.26.45-.54.28-.68-.27-.22-.46-.59-.83-.66-.35-.06-.34-.32-.33-.55.01-.68.52-1.11,1.13-1.01l-.06-1.09-.38-.37c-.24-.21-.5-.42-.79-.57-.31-.16-.3-.36-.13-.59.32-.45.4-1.02.77-1.44.19-.22.17-.43-.01-.65-.13-.15-.25-.32-.35-.49-.27-.46-.61-.75-1.19-.58-.16.05-.39.09-.51-.09-.11-.16.06-.3.13-.44.31-.59.08-1.66-.43-2.13-.47-.44-1.19-.82-1.28-1.42-.14-.95-.47-1.65-1.18-2.3-.57-.52-.58-1.36-.65-2.11-.06-.77-.32-1.46-.75-2.08-.1-.15-.32-.46-.4-.38-.17.17-.48.26-.5.57-.04.74-.53,1.2-1.02,1.67-.64.63-1.28,1.24-1.88,1.9-.7.76-1.46,1.51-1.66,2.57-.15.78-.29,1.53-.75,2.2-.17.26-.14.59-.14.89q0,1.34-1.33,1.63c-.1.02-.2.02-.3.04-.37.08-.66.28-.73.65-.12.69-.27,1.39-.16,2.1.06.38.62.8-.14,1.07-.02,0-.04.08-.03.11.1.49-.19.9-.26,1.35-.07.48-.21.87-.66,1.16-.36.23-.3.62-.2,1,.16.58.39,1.14.19,1.77-.1.32.03.65.36.83.6.32.94.85,1.16,1.47.35,1,1.04,1.45,2.11,1.51,1.29.07,2.54-.17,3.79-.43,1.9-.39,3.44.4,4.15,2.07-.23.06-.44-.03-.66-.06-1.12-.18-2.31-.42-3.31.2-.65.41-1.25.38-1.88.33-2.21-.18-4.44-.21-6.64-.58-1.53-.26-3.08-.26-4.62-.39-.81-.07-1.62-.17-2.43-.21-.05.08-.11.17-.19.27-6.63,1.6-12.46-16.44-4.61-4.1-.48-2.21-3.64-10.13-.8-9.85.52,9.07,1.15-.71,3.42-3.97.6,7.38-1.8,11.43,1.18,10.59-3.24,4.68-.28,5.06.81,5.91.42-.42.66-.96.65-1.49-.02-1.07.39-1.82,1.06-2.53.72-.76.95-1.69.05-2.49-.09-.08-.29-.17-.13-.33.43-.41.01-.65-.22-.82-.42-.32-.53-.6-.18-1.05.3-.39.24-.8-.07-1.22-.36-.47-.8-.8-1.33-1.02-.36-.15-.49-.35-.34-.75.3-.78.22-1.56.05-2.38-.19-.92-.14-1.9.46-2.68.51-.67.68-1.4.79-2.23-1.84.64-3.23,1.88-4.65,3.03-.81.66-1.54,1.43-2.27,2.18-.5.52-1.13.92-1.45,1.61-.17.38-.46.66-.79.9-.43.32-.81.78-.89,1.27-.07.42-.27.73-.41,1.1-.25.64-.61,1.22-.4,2.01.26.98.6,1.96.47,3.02-.03.26.17.49.32.71.77,1.12,1.81,1.99,2.67,3.02.39.46.17.53-.22.57-1.26.11-2.46-.06-3.61-.46-2.64.08-11.25-6.05-9.81-7.73-3.75-7.12,4.99,4.81,3.41.45,1.02-.46,2.04,1.82,3.47,3.75.01-.12.03-.23.05-.36.13-.63.22-1.28.26-1.92.06-1.01-.39-1.45-1.37-1.66-.63-.13-1.31-.17-1.86-.51-1.26-.79-2.68-1.36-3.7-2.52-.28-.32-.6-.61-.95-.85-.38-.26-.78-.88-1.22-.59-.44.29-.22.97-.13,1.47.45,2.33,1.65,4.26,3.3,5.91.85.85,1.74,1.67,2.71,2.41.76.58,1.54,1.12,2.51,1.64-.22-.02-.28-.02-.34-.04-3.04-.88-6.12-1.3-9.28-.97-1.76.18-3.5.54-5.14,1.16-1.03.39-1.82.1-2.6-.44-.54-.38-1.01-.86-1.38-1.44-.32-.51-.55-1.06-.74-1.69-.63.97.53,3.03,2.4,4.43-1.21.47-2.45.6-3.7.68-.85.06-1.53-.08-2.09-.93-.93-1.39-2.37-1.89-4.03-1.74-.45.04-.89.22-.95.7-.06.5.45.59.8.68.96.25,1.53,1.05,2.44,1.54-.49.17-.84.31-1.2.42-.38.12-.66.4-.96.64-.69.55-.84,1.43-.33,2.04.53.63,1.19,1.05,2.06.95.15-.02.39.05.42-.15.04-.26-.24-.21-.39-.26-.17-.06-.35-.1-.52-.17-.44-.18-.9-.38-.97-.91-.07-.58.33-.93.75-1.23.13-.09.28-.18.43-.22,1.17-.33,2.37-.59,3.57-.68,1.31-.1,2.63-.13,3.92-.38.13-.03.3-.12.4.02.09.13-.02.28-.09.39-.21.32-.42.64-.63.96,1.52,2.48-6.1,7.07-7.36,6.37,1.63-1.83,3.64-2.87,5.15-4.4-.63.01-1.24.13-1.82.4-2.15,1.01-3.47,2.74-4.33,4.88-.19.47-.55.89-.57,1.42.15.06.24,0,.32-.05,1.07-.7,2.23-1.25,3.43-1.69,1.03-.38,2.03-.8,2.82-1.6,1.27-1.28,1.92-2.92,2.74-4.49,1.11-2.14,2.08-3.01,4.46-2.66,1.16.17,2.37.12,3.56,0,.78-.08,1.57-.16,2.36-.05-1.45.31-2.79.85-4.09,1.52-2.25,1.16-3.9,2.81-4.46,5.36-.04.16-.08.29-.24.4-.96.67-1.29,1.65-.89,2.73.18.49.35.97.42,1.5.13.94.71,1.57,1.59,1.91.18.07.37.24.56.06.19-.18.05-.38-.02-.56-.47-1.18-.38-2.27.43-3.31.48-.61.29-1.17-.4-1.6-.25-.16-.59-.27-.57-.65.03-.7-.01-1.41.45-2.03.5-.66.92-1.37,1.61-1.87,1.03-.75,2.06-1.52,3.26-1.97,1.21-.45,2.45-.82,3.69-1.17.65-.19,1.39-.48,1.99-.34,1.08.25,2.15-.07,3.23.16,1.21.25,2.5.15,3.74.34.05,0,.11,0,.16.01.28-.14.56-.28.86-.42-.16.13-.3.3-.45.45.28.02.57.06.9.21-.49.1-.9.18-1.3.26-.33.43-.64.92-.91,1.45.12-.07.25-.14.38-.19,1.52-.63,3.09-.97,4.71-1.11.65-.06,1.33-.13,2.13.13-.72.3-1.2.67-1.68,1.03-1.34,1.02-2.5,2.2-3.23,3.77-.35.75-.57,1.54-1.01,2.27-.44.72-.92,1.49-1,2.39-.14,1.65.48,3.01,1.64,4.14.53.52,1.23.7,1.94.78.58.06.8-.27.46-.7-.35-.44-.41-1.01-.75-1.44-1.03-1.31-1.3-2.94-1.07-4.42.63-4.1,3.04-6.51,6.83-7.62,1.55-.45,3.19-.09,4.76-.05,2.51.08,5.04.27,7.54.69.24.04.5.03.66.25.43.58.05,2.44-.47,2.79-1.34.91-2.66,1.85-3.99,2.78-.66.45-1.35.87-1.88,1.49.1.12.2.27.29.48.01,4.26,11.12,10.23,1.28,5.11-.2,3.06,8.79,6.1,3.16,5.5,9.68,10.39.51.61-.14,4.75-1.65-1.72-2.13-8.38-2.22-1.81-3.63.88,1.78-9.36-4.47-5.63,2.85-4.15.71-1.98-2.19-3.95-.5-1.61,5.85.87,1.09-1.71-3.91-3.53-.85-2.22,1.92-.71-.22-.4-.24-.87-.15-1.29-.06-.05-.13-.1-.16-.17-.4-.8-.57-1.67-.71-2.55-.12-.74-.27-1.47-.6-2.15-.27-.56-.63-.65-1.13-.32-.08.05-.18.11-.28.1-.46,0-.61.31-.76.66-.31.71-.67,1.39-1.24,1.93-.83.78-1.43,1.74-2.2,2.56-.39.41-.27.95.23,1.22.45.24.79.64,1.22.89,1.25.72,1.53,2.02,1.99,3.21.04.11.04.23-.09.23-.52-.02-.93.45-1.52.27-.55-.17-1.08-.37-1.75-.05-.55.27-1.09.52-1.54.9-1.27,1.09-1.61,2.66-2.05,4.18-.06.2-.02.42.21.52.5.2.86.54,1.08,1.03.15.33.38.48.76.38.14-.04.4-.13.38.2-.04.71.41,1.2.76,1.73.49.74,1.08,1.42,1.48,2.22.4.81,1.08,1.19,1.8,1.03.62-.14,1.51-1.12,1.51-1.74,0-.41.13-.68.48-.81.5-.19.55-.63.47-1-.08-.34-.06-.75-.41-1.04-.24-.2-.28-.55-.05-.83.31-.36.37-.79.41-1.24.03-.43.19-.85.54-1.09.5-.33.48-.78.17-1.08-.46-.44-.37-1-.54-1.5-.04-.12-.06-.26.07-.33.17-.08.26.07.34.18.24.3.39.75.7.9.91.45,1.07,1.21,1.17,2.09.08.62.04,1.19-.37,1.65-.24.27-.2.46-.01.68.56.64.91,1.57,2.02,1.49.12,0,.28.09.38.18.88.75,1.85,1.27,2.98,1.64,1.1.36,2.17.63,3.31.6.17,0,.32.05.47.06.96.05,1.59.87,2.48,1.06.83.17,1.54.61,2.25,1.03.18.11.33.31.62.2-.35-1.17-1.32-1.8-2.14-2.55-.29-.26-.34-.43-.26-.8.13-.58.7-.99.68-1.52-.04-1.41,1.22-1.84,1.86-2.72.08-.11.24.02.34,0,.63-.18,1.26-.28,1.72-.87.61-.78,1.12-1.63,1.63-2.46.49-.8,1.02-1.6,1.16-2.57.06-.38.12-.76.17-1.13.09-.63.53-1.15.48-1.8-.03-.37.12-.58.44-.78.95-.61,1.09-1.33.65-2.36-.43-1-.82-2.02-1.12-3.07ZM74.64,151.69c-1.54-.19-3.05-.37-4.59-.56,1.01-.58,3.74-.19,4.59.56ZM25.11,148.84c3.37-.84,6.75-1.28,10.17-.45-3.38.46-6.77.51-10.17.45Z"/>
  </g>
  <path class="cls-1" d="M111.29,198.89c.28-.22.56-.46.76-.77.3-.47.63-.45.87.05.16.33.3.66.44.99.24.58.82.97,1.28.99.46.01,1.13-.19,1.45-.73.17-.29.31-.29.45-.15-.68-1.06-.95-2.1-1.06-2.8-.69-.36-2.82-1.59-4.02-4.24-1-2.2-.82-4.19-.71-5.01.35-.26.71-.52,1.06-.78-.37-.52-.75-1.18-1.06-1.98-.86-2.22-.63-4.24-.42-5.3,1.44,1.83,2.84,2.71,3.88,3.18,1.08.48,3.22,1.18,4.17,2.26.08.09.31.37.71.64.02.01.04.02.06.04-.14-.18-.23-.4-.23-.61,0-.32.26-.4.49-.45.31-.06.64-.39.93.03.72,1.06,1.81,1.17,2.92,1.05,1.41-.14,2.81-.43,4.14-.9.69-.25,1.36-.36,2.02-.35l-2.22-.84c-1.52.52-2.96,1.21-4.6,1.16-.48-.01-.92-.1-1.32-.39-.25-.17-.3-.33.02-.47.96-.45,1.83-1.02,2.6-1.76.05-.05.1-.08.16-.1-.35-.19-.64-.36-.87-.5-.34-.2-.66-.39-.97-.59,0,.07-.07.14-.19.23-.69.46-1.27,1.04-1.81,1.68-.43.51-1.16.63-1.82.75-.42.07-.83-.7-.58-1.08.76-1.15.41-2.34.21-3.53-.02-.13-.07-.3-.24-.31-.14-.01-.21.12-.26.22-.44.79-.99,1.5-1.65,2.15-.13-1.25,0-2.5-.35-3.72-.39-1.32-.72-2.65-1.57-3.78-.29-.39-.6-.77-.77-1.23-.06-.18-.2-.3-.36-.4-.48-.31-.94-.58-1.2-1.19-.19-.44-.77-.6-1.4-.46.56-1.01,1.27-1.76,2.14-2.38.24-.17.38-.06.56.13.52.57,1.05,1.13,1.6,1.66.56.53,1.22.87,2.01.87.16,0,.28.03.37.1,0-.33.04-.65.1-.94-.02,0-.03.01-.05.02-.25.12-.32-.24-.44-.4-.62-.8-1.3-1.55-1.87-2.39-.29-.43-.15-.57.22-.76,1.03-.51,2.14-.71,3.27-.89.55-.09,1.09-.07,1.63-.03.28-.12.49-.13.65-.05.05-.03.11-.06.15-.08.02-.11.09-.41.23-.76,0,0,0,0,0,0-.22-.09-.47-.11-.71-.14-2.04-.19-3.94.38-5.79,1.12-.51.2-.92.45-1.41-.04-.17-.18-.47-.22-.71-.33-.51-.24-.83.09-1.08.43-.28.39.2.45.37.61.51.5.51.68-.04,1.15-.31.26-.61.54-.88.84-.76.85-1.44,1.75-2,2.75-.27.47-.54.5-.88.12-.25-.28-.47-.58-.7-.88-.31-.41-.61-.53-1.05-.14-1.67,1.48-3.36,2.94-5.04,4.4-.26.23-.37.42.07.61.63.27.99.84,1.55,1.37-.68-.02-1.21-.13-1.72-.3-.88-.29-1.61-.32-2.38.47-1.29,1.31-2.76,2.44-4.15,3.66-1.73,1.5-3.45,3.02-5.18,4.52-.32.28-.38.44.09.66.92.45,1.89.82,2.7,1.48.35.29.81.62.69,1.06-.12.42-.64.22-.97.13-.96-.27-1.63.33-2.32.78-.22.15-.42.56-.04.88.2.17.3.43.57.53.32.12.33.38.11.57-.54.47-.67,1.16-1.01,1.74-.24.41-.19.88-.13,1.28.04.3.51.09.76.21.03.01.04.06.08.12-.7.45-.95,1.25-1.41,1.89-.29.41-.67.76-.84,1.26-.1.29-.15.49.27.54,1.07.12,2.08.48,3.12.7.2.04.4.11.32.41-.22.83.28,1.57,1.14,1.61.94.05,1.88.17,2.83.03.25-.04.53-.02.78.03,1.07.23,1.97-.42,2.96-.58.08-.01.14-.14.22-.2.63-.56,1.25-1.15,1.9-1.68.5-.4.95-.17,1.01.47.03.3.13.61.11.9-.08,1.01.37,1.56,1.2,2.17,1.21.89,2.34.17,3.49.27.05,0,.12-.04.16-.08.84-.84,1.9-1.42,2.66-2.35.23-.28.5-.36.79-.12.36.3.68.19.99-.05ZM114.43,181.76c-1.54-2.65-4.6-5.89-5.97-8.36,2.44-.43,8.11,6.49,5.97,8.36ZM107.21,173.54c-.78-.87-2.56-1.1-2.94-2.18,1.04-1.4,6.59,2.41,2.94,2.18ZM103.15,189.22c-.77,6.02-8.46,11.95-3.04,4.1-9.37,7.31,1.64-3.13,3.88-7.43-3.99,3.16-8.45,9.6-13.72,9.2,5.16-4.19,7.98-3.4.27-4.38,5.64.53,17.78-8.9,6.19-4.02,4.13-4.24-.05-2.24-3.53-4.28,3.5-1.65,8.51,2.71,12.44.29-1.6-.3-8.74-2.02-6.6-3.5,11.2,4.69,14.56-.36,4.12,10.03ZM103.9,198.61c2.77-.62,4.56-7.13,6.73-5.52-.35,1.86-6.18,7.89-6.73,5.52Z"/>
  <path class="cls-1" d="M168.64,201.32c.16-.17.38-.23.59-.31.32-.11.5-.37.68-.65.44-.69.08-1.48.35-2.18.08-.21-.07-.57.2-.64.29-.07.62-.05.9.22.61.59,1.25,1.14,1.87,1.7.22.19.48.36.75.36.55,0,1.08,0,1.52.41.06.06.24.05.35.01,1.03-.36,2.09-.1,3.12-.09,1.52.01,2.01-.3,2.1-1.81.01-.21.18-.26.33-.3,1-.24,1.99-.54,3-.7.53-.08.5-.28.34-.63-.08-.18-.17-.38-.3-.53-.71-.8-1.08-1.84-1.88-2.57.2-.16.4-.1.57-.14.18-.04.27-.13.28-.33.07-.85-.33-1.58-.72-2.24-.49-.83-.58-.77.02-1.5.05-.06.09-.14.16-.18.44-.31.23-.74-.02-.91-.67-.49-1.35-1.05-2.31-.76-.33.1-.83.24-.98-.15-.12-.31.26-.64.53-.88.06-.05.13-.1.19-.15.91-.67,1.94-1.12,2.94-1.62.45-.23.42-.37.07-.67-3.26-2.8-6.44-5.69-9.74-8.44-.41-.34-.81-.42-1.34-.29-.82.2-1.63.5-2.62.49.59-.48.91-1.05,1.48-1.33.74-.36.77-.43.16-.97-1.55-1.36-3.12-2.71-4.68-4.07-.55-.48-.96-.44-1.42.14-.22.28-.42.59-.66.85-.34.37-.59.42-.9-.12-.76-1.32-1.63-2.57-2.83-3.55-.62-.51-.62-.61-.02-1.17.09-.08.19-.15.28-.23.43-.34.42-.51-.04-.79-.3-.18-.61-.21-.93-.06-.37.17-.73.34-1.08.54-.2.11-.36.13-.57.02-1.3-.69-2.73-1-4.15-1.28-1.11-.22-2.27-.27-3.31.35.01.02.03.05.04.07.11.19.24.41.36.65,1.89-.13,3.75-.02,5.52.74.93.4.95.42.37,1.22-.61.83-1.25,1.64-1.9,2.45-.2.25-.41.52-.22.81.19.29.51.12.79.05.71-.16,1.33-.47,1.83-1.02.49-.54,1.01-1.05,1.5-1.59.16-.18.32-.25.52-.11.85.6,1.56,1.32,2.11,2.28-.81.08-1.47.28-1.65,1.13-.02.07-.08.17-.14.19-1.39.46-1.6,1.89-2.35,2.87-.57.74-.88,1.65-1.11,2.55-.21.83-.4,1.69-.32,2.57.05.53-.07,1.04-.04,1.57-.84-.74-1.41-1.66-2-2.6-.33,1.23-.74,2.47-.13,3.71.17.36.1.58-.04.79.02-.02.04-.03.07-.05,1.26-.81,2.79-1.11,3.25-1.2.04,0,.07-.01.11-.02-.95-2.29,4.4-8.86,6.43-7.66-1.9,2.21-3.98,5.08-5.64,7.54.63-.08,1.09-.12,1.64-.42.96-.53,1.48-1.44,1.77-2.12.14,1.15.26,2.09.35,2.75.04.28.07.52.1.74,1.4-1.53,8.46-1.12,11.19-2.37.19-.11.36-.22.56-.33-.16.12-.35.23-.56.33-9.5,5.6-3.12,3.16,5.28,2.22.34,3.22-9.09-.48-3.06,4.74-11.02-5.29-.48,5.01,5.74,3.58-4.3,2.94-6.56-.77.72,4.86-5.09.26-9.02-5.28-12.71-8.33-2.91-1.18,8.2,8.93,6.98,9.54-8.09-.32-.14-3.35-13.96-12.95.06.5.06.73,0,1.07-.21,1.25-.74,1.49-.71,2.54.03.99.53,1.68.71,1.98.59.97.73,2.51.51,4.24,1.98,1.53,5.43,5.08,5.28,6.24-1.56-.96-4.37-2.64-5.6-4.52-.33,1.36-.84,2.76-1.5,4.04.04.03.09.06.14.1.22.18.46,0,.66-.15.28-.2.51-.18.75.08.32.34.61.72.99.97.95.62,1.6,1.84,3.01,1.58.09-.02.19.07.29.09.63.13,1.24.22,1.75-.32ZM164.63,173.7c-2.51-1.18,1.82-2.42,2.84-2.68,1.84.62-2.23,2.27-2.84,2.68Z"/>
  <path class="cls-1" d="M133.5,151.14c4.24,6.19-.18-1.56.82-4.19-1.36-3.47-2.8,3.09-.82,4.19Z"/>
  <path class="cls-1" d="M133.5,151.14c4.24,6.19-.18-1.56.82-4.19-1.36-3.47-2.8,3.09-.82,4.19Z"/>
  <g>
    <path class="cls-1" d="M155.25,211.69c.33-.23.72-.36,1.13-.42.1-.8-.83.1-1.13.42Z"/>
    <path class="cls-1" d="M155.66,212.87c-.47.57-.21,1.36.4,1.67-.92-.66.79-2.87-.4-1.67Z"/>
    <path class="cls-1" d="M154.81,210.34c-.34.1-.6.34-.85.62-.69.79-1.23,1.69-1.17,2.78.05.85,1.22,2,2.15,2.17.32.06.55.19.8.37,1.14.82,2.57.37,3.02-.94.09-.26.21-.32.49-.26.57.12,1.27-.36,1.25-.93-.01-.66-.03-1.35-.38-1.94-.23-.38-.49-.78-.98-.89,1.27,1.52,1.73,3.45-1.48,4.02-3.35,2.23-5.39-2.7-2.87-4.99Z"/>
    <path class="cls-1" d="M157.9,214.25c-1.08-.2-.06-.88.07-1.33-.8-1.49-2.04,1.85-.07,1.33Z"/>
    <path class="cls-1" d="M188.59,217.92c.96.5,2.96,1,3.97,1.9.15-1.06.22-2.13.24-3.19.07-3.85.02-7.71.02-11.57,0-.23,0-.47-.05-.7-.02-.11-.06-.22-.19-.25-.2-.03-.2.17-.23.29-.29,1.1-.6,2.19-.69,3.33-.03.42-.03.86-.26,1.31-.1-.14-.14-.23-.21-.31-.12-.15-.19-.4-.44-.36-.2.03-.23.26-.31.42-.28.58-.37,1.18-.37,1.83,0,.74.14,1.46.3,2.34-.51-.53-.83-1.01-1.33-1.29-.48-.27-.66-.21-.74.33-.13.9-.04,1.78.38,2.61.49.96,1.08,1.85,1.75,2.69.17.22.32.45.41.71.04.11.04.22-.07.31-.14.11-.25-.03-.38-.1-.96-.53-1.94-1.01-3.01-1.28-2.33-.61-4.68-.67-7.04-.09-.25.06-.68-.1-.71.27-.03.33.22.63.56.8.26.13.5.31.75.47-1.29-.08-2.55-.13-3.8.07-.88.14-1.03.06-1.33-.79-.09-.26-.14-.55-.17-.83-.09-.88-.04-1.8-.26-2.65-.39-1.56-1.21-2.87-2.7-3.64-.3-.16-.58-.36-.75-.47,1.26,0,2.63.05,3.99-.02.16,0,.3,0,.44.01,2.17-1.18,9.03,2.83,8.01,4.71-1.45-1.72-3.81-2.3-5.83-3.03.69,1.08,1.55,2.01,2.59,2.78.57.42,1.2.71,1.88.81,1.31.19,2.64.2,3.96.03.33-.04.44-.3.24-.57-.38-.53-.74-1.06-1.16-1.56-1.43-1.73-3.25-2.83-5.44-3.33-.15-.03-.3-.04-.46-.05-.43.1-.84.1-1.18-.06,1.21-2.34,5.32-3.96,6.71-6.92.82,1.61-2.23,5.52-4.75,6.7.89.12,1.77.11,2.65-.04,2.32-.42,4.32-1.26,5.69-2.93.35-.42.48-.98.36-1.52l-.13-.56c-.1-.45-.39-.8-.75-1.09-.01-.01-.03-.02-.04-.03-.11-.06-.22-.11-.31-.19-.42-.36-.51-.11-.51.28,0,.6-.17,1.16-.46,1.68-.96,1.71-2.4,2.82-4.28,3.38-.14.04-.29.13-.43,0,.02-.04.03-.06.04-.07.13-.1.26-.19.39-.29,1.64-1.19,2.87-2.67,3.41-4.66.16-.58.01-1.13-.12-1.78-.17.16-.25.24-.34.32-.75.68-1.45,1.45-2.52,1.6-2.08.28-3.49,1.5-4.59,3.17-.29.44-.51.92-.8,1.36-.33.49-.67,1.08-1.28,1.14-1.58.16-3.12-.1-4.68-.48.15-.29.4-.27.6-.35,1.6-.63,3-1.57,4.1-2.86,1.07-1.25,1.6-2.85,2.52-4.21.06-.1.16-.21.06-.33-.1-.11-.23-.03-.34,0-1,.32-2.03.58-3,1-1.06.46-2.08,1.02-2.92,1.84-1.19,1.16-2.09,2.57-3.26,3.75-.25.25-.4.28-.65.12-.69-.45-1.4-.9-2.07-1.37-1.07-.75-2.12-1.52-3.45-1.73-1.4-.22-2.79-.31-3.95.74-.32.29-.67.28-1.06.18-.34-.09-.41-.37-.15-.61,1.28-1.18,2.07-2.63,2.25-4.39.02-.18.05-.37.12-.53.26-.6.28-.62-.32-.62-.08.13-.15.26-.23.39-.79,1.3-2.5,3.6-5.28,5.17,1.56-.47,3.08-1.14,4.31-2.34,1.54,2.09-5.58,4.45-7.8,4.65.37,5.94-.3,6.64-2.08-.58-.72.09-1.44.16-2.15.17.67.28,1.17.8,1.48,1.59.16.41.32.83.54,1.22.53.97.87,2.01,1.15,3.07.13.51.6.69,1.04.4.24-.16.41-.37.52-.64.55-1.34.54-2.73.31-4.13-.08-.46-.02-.67.47-.62.93.1,1.75-.21,2.56-.62.75-.38,1.58-.3,2.39-.32.23,0,.34.13.15.36-.09.11-.18.22-.26.33-.49.62-.7,1.55-1.75,1.54-.14,0-.32.14-.29.33.02.08.06.12.12.15.21-.09.43-.17.68-.23.63.21,1.49.8,2.2,1.54,0-.03.01-.07.02-.1.24-.71.18-1.36-.45-1.86-.13-.1-.18-.18-.09-.35.58-1.2,2.52-1.91,3.74-1.38,1.01.43,1.71,1.21,2.34,2.07,1.52,2.11,1.79,4.45,1.08,6.88-.52,1.81-1.5,3.39-3.06,4.48-1.26.88-2.72,1.44-4.17,1.96-.17.06-.35.11-.53.06-1.25-.29-2.46-.06-3.63.29,2.08.03,4.46.75,5.95,1.28-.1.98-6.7.53-8.96.18-.05.15.06.27.28.38.3.16.64.24.95.39,1.36.63,2.77.79,4.26.58,1.43-.2,2.69-.98,4.14-1.08.19-.01.32-.18.35-.38.04-.22-.1-.34-.27-.43-.31-.17-.7-.23-.93-.58.07-.05.13-.11.19-.14,1.23-.51,2.35-1.18,3.33-2.08.77-.71,1.55-1.4,2.07-2.35.47-.86.77-1.75,1.03-2.7.25-.92.27-1.86.4-2.78.08-.56-.12-1.16-.22-1.73-.3-1.64-.95-3.08-2.36-4.07-.75-.52-1.52-1.01-2.42-1.24-.13-.03-.33-.03-.31-.22.01-.19.24-.16.37-.2.15-.04.31-.04.47-.03,1.03.13,2,.42,2.86,1.05.64.46,1.22,1,1.85,1.46.86-.71,5.11,2.64,5.35,4.31,5.76,11.64.33.57-4.59-2.61,0,.54.07,1.08.1,1.62.16,2.82,1.49,4.93,3.95,6.28,1.04.57,2.06,1.22,3.26,1.46.14.03.4.02.34.25-.05.2-.27.09-.42.08-.8-.09-1.6-.24-2.42-.2-.14,0-.32-.04-.39.1-.1.21.13.26.23.36.08.08.25.11.17.26-.04.07-.17.11-.26.12-.43.01-.81.22-1.24.26-.34.04-.75.06-1.05.43.59.13,1.12.08,1.64.07,6.66-.05,13.32.15,19.97-.26-4.37-1.51-12.79-5.18-3.15-2.94ZM170.07,208.71c1.35-2.27,5.6-3.49,7.15-6.42,1.08,2.02-4.91,7.72-7.15,6.42Z"/>
    <path class="cls-1" d="M158.65,213.77c-.94.84.62-.17.46-.78-.17-.42-.24-.62-.25-.67.04.14.29,1.09-.21,1.45Z"/>
  </g>
  <path class="cls-1" d="M257.64,149.95c.79-.45,1.41-1.16,2.35-1.37.28-.06.65-.16.62-.56-.04-.39-.36-.57-.72-.65-1.26-.28-2.43-.02-3.44.75-.49.37-.9.87-1.28,1.37-.23.3-.46.39-.81.4-1.2.02-2.39-.1-3.55-.41-.34-.09-.71-.09-1.04-.36.72-.42,1.21-1.04,1.69-1.62.47-.58.84-1.27.96-2.05.02-.16.1-.43-.13-.47-.23-.05-.23.23-.29.39-.6,1.49-1.62,2.55-3.16,3.07-.26.09-.49.1-.76,0-1.56-.58-3.18-.97-4.81-1.26-3.14-.57-6.24-.24-9.33.47-.41.09-.81.21-1.22.31.47-.33.95-.59,1.41-.88,1.12-.69,2.05-1.61,3.04-2.45.98-.83,1.81-1.79,2.55-2.84.85-1.21,1.36-2.57,1.74-3.98.08-.31,0-.68-.05-1.02-.05-.31-.25-.4-.53-.2-.38.27-.82.48-1.14.81-1.07,1.11-2.36,1.89-3.66,2.67-.81.48-1.66.72-2.57.85-.98.14-1.38.58-1.41,1.57-.02.74.14,1.45.2,2.17.01.12.02.24.02.36,0,0,0,0,0,0,.28-.2.55-.42.82-.64.09-.08.19-.15.28-.23.08-.07.16-.15.23-.22.1-.1.2-.19.29-.29.07-.08.13-.15.2-.23.09-.1.17-.21.25-.32.06-.08.11-.16.16-.24.07-.12.14-.23.19-.35.04-.08.08-.16.11-.24.05-.14.09-.28.13-.42.02-.07.04-.14.05-.21.03-.22.05-.44.03-.67,1.95,2.12,1.64.48,4.69-2.85,2.82,3.16-6.23,9.45-10.58,10.7-.08-.1-.13-.2-.17-.3-1.09.27-2.26.27-3.45.19-.14,0-.33-.05-.17-.25.32-.41.62-.86,1.02-1.17.81-.64,1.37-1.49,2-2.27.13-.16.22-.42.21-.62-.06-1.05.3-2.02.53-3.01.11-.46.06-.83-.11-1.22-.21-.48-.55-.94-.6-1.44-.06-.56-.25-1.04-.64-1.32-1.08-.77-1.6-2-2.54-2.9-1.33-1.28-2.62-2.59-4.15-3.63-.88-.6-1.7-1.29-2.93-1.66.48.55.41,1.12.66,1.61.58,1.11,1.08,2.24.66,3.57-.14.44-.18.95-.12,1.44.06.42.4.82.2,1.23-.19.41-.73.39-1.06.65-.86.68-1.18,1.14-.74,1.8.39.57.21.86-.26,1.18-.19.13-.5.3-.3.57.24.32.04.47-.14.66-.54.57-.6,1.14-.21,1.82.19.34.45.62.7.91.42.48.8,1.04.76,1.66-.06.91.25,1.7.92,2.21,0,0,0,0,0,0,.25-.14.46-.28.66-.42.02-.02.05-.03.07-.05.18-.13.33-.27.47-.41.02-.02.05-.04.07-.07.13-.13.23-.27.33-.41.02-.03.04-.05.05-.08.09-.14.15-.28.21-.42,0-.03.02-.05.03-.08.05-.14.08-.29.1-.44,0-.02,0-.05.01-.07.02-.15.02-.31.02-.46,0-.02,0-.03,0-.05,0-.17-.03-.34-.06-.51h0c-.14-.85-.5-1.75-.74-2.73,0-.03-.01-.05-.02-.08-.04-.17-.07-.34-.1-.51-.01-.06-.02-.12-.03-.18-.02-.16-.04-.31-.05-.47,0-.07-.02-.15-.02-.22,0-.16,0-.33,0-.5,0-.07,0-.14,0-.21.02-.24.06-.48.12-.73,4.42,4.22-.41-4.61.15-7.6,3.27,1.73,3.15,14.35,4.01,4.17,3.1,1.8-3.41,15.61,2.72,4.62.1.16.16.35.2.55,0,.02,0,.03.01.04.03.19.04.41.03.63,0,.03,0,.05,0,.08-.02.22-.06.45-.12.69,0,.04-.02.07-.03.11-.06.24-.15.49-.24.74-.02.04-.03.08-.05.12-.1.26-.22.52-.36.78-.02.04-.04.08-.06.12-.14.27-.29.54-.46.8-.02.03-.04.07-.06.1-.17.27-.36.55-.55.82-.02.02-.03.04-.05.06-.42.57-.88,1.11-1.37,1.6,0,0-.02.02-.02.03-.24.24-.48.46-.73.67-.02.02-.04.03-.06.05-.24.2-.48.38-.72.54-.03.02-.05.04-.08.05-.24.16-.48.29-.71.41-.03.01-.06.03-.09.04-.24.11-.47.2-.7.26-.03,0-.05.01-.08.02-.23.06-.45.09-.67.09-.02,0-.04,0-.06,0-.22,0-.43-.04-.63-.11-.01,0-.02-.01-.04-.02-.21-.08-.41-.19-.59-.35h0c-.2.01-.4.02-.59.05-2.86.45-5.77.47-8.63.92-1.53.24-3.07.22-4.6.31-.48.03-1.02.31-1.52-.05-.88-.63-1.87-.7-2.9-.57-.38.05-.77.02-1.14.16-.11.04-.26.05-.33-.06-.08-.13.04-.22.12-.31.36-.39.7-.78,1.07-1.15.81-.81,1.83-.72,2.8-.54,1.34.24,2.66.5,4.04.41,1-.06,1.69-.52,2.02-1.46.22-.63.55-1.15,1.17-1.47.33-.17.52-.46.37-.86-.13-.36-.1-.69-.01-1.06.17-.75.58-1.59-.44-2.11-.05-.02-.09-.1-.09-.15-.04-.63-.38-1.19-.43-1.82-.01-.17,0-.34-.19-.4-.35-.11-.26-.3-.1-.5.14-.17.17-.34.15-.56-.03-.52-.02-1.05-.04-1.58-.03-.62-.34-.97-.97-1.04-.47-.05-.88-.29-1.34-.39-.26-.05-.31-.26-.29-.52.17-1.75-.8-3.22-1.23-4.83-.02-.07-.08-.14-.13-.21-.93-1.34-2.16-2.4-3.28-3.57-.33-.35-.65-.66-.62-1.19.01-.18-.04-.38-.26-.43-.22-.06-.33.09-.42.26-.23.41-.43.82-.5,1.29-.12.74-.22,1.49-.46,2.2-.1.29-.21.53-.57.63-.49.14-.82.47-.85,1.05-.04,1-.41,1.84-1.24,2.46-.21.16-.42.31-.62.49-.5.47-.67,1.16-.37,1.77.25.5,0,.54-.37.46-.42-.09-.8-.03-1.03.32-.4.6-.95,1.21-.22,1.95.05.05.07.15.09.22.1.39.65.69.35,1.12-.17.25-.45.43-.73.61l-.13,1.47c.26.09.39.41.5.68.15.37.35.82-.26,1.04-.28.1-.42.41-.75.5-.22.06-.08.28,0,.4.28.42.4.89.44,1.37.16,1.63,1.56,2.25,2.69,2.3.23,0,.47,0,.7.02h0c.12-.12.23-.23.34-.35,0,0,0,0,0,0,.09-.1.18-.2.26-.3.01-.02.03-.03.04-.05.07-.1.14-.21.2-.32.01-.02.02-.04.03-.06.05-.12.1-.24.13-.37,0-.02,0-.04,0-.05.03-.13.05-.28.04-.43,0,0,0-.01,0-.02,0-.16-.03-.33-.07-.51,0-.03-.01-.06-.02-.09-.04-.18-.11-.37-.19-.58-.02-.04-.03-.08-.05-.12-.09-.21-.2-.44-.34-.69-.02-.04-.04-.08-.07-.11-.15-.26-.32-.54-.53-.85,5.7,3.92.96-3.83-.16-6.06,1.98-.81,3.58,5.88,4,3.87-3.37-12.05,2.67.56-.38-10.96,2.65-.81,2.37,8.33,1.82,10.94,3.48-8.74,3.98-4.26.48,1.87,8.96-8.84,2.73-.1-.43,2.21,3-.18,4.42-3.15,6.48-4.45,1.2,3.76-8.74,5.96-4.52,6.53,3.09-.56,4.51.29.74,1.29-4.22-1.81-6.19.44-9,3.02-.01-.06-.01-.11-.02-.17-.61.49-1.27.93-1.97,1.31-.45.25-.96.17-1.43.16-1.88-.05-3.7.32-5.52.66-.24.61-.56,1.19-.95,1.71,1.1.09,2.22.12,3.32.06,1.01-.05,1.99-.38,2.95-.7.7-.24,1.37-.22,1.84.33.14.16.27.34.39.53h0c.91.22,1.71.49,2.42.8-.22-.19-.42-.38-.63-.58-.51-.5-.88-1.17-1.53-1.71,2.37-.25,4.63-.49,6.9-.74.34-.04.46.15.58.41.23.51.27,1.07.3,1.6.12,2.08,1.14,3.64,2.93,4.54,1.05.53,2.33.71,3.48-.05.14-.09.4-.15.32-.37-.07-.21-.31-.13-.49-.14-.28-.01-.57-.02-.85,0-1.29.07-2.01-.71-2.54-1.72-.29-.56-.65-1.11-.72-1.77,0-.1-.1-.22-.07-.29.32-.68-.03-1.3-.18-1.93-.06-.25-.13-.51.2-.59.29-.07.44.14.5.4.49,2.11,1.97,3.35,3.79,4.26,1.2.6,2.26,1.41,3.35,2.18.19.14.34.35.48.54.47.67.43.76-.23,1.18-.57.36-1.04.84-1.54,1.27-.67.57-1.47.93-2.31,1.19-.37.11-.7.31-1.04.49-.13.07-.32.2-.27.29.29.5-.28.9-.12,1.39.16.5.17,1.04.34,1.53.44,1.24.16,2.23-.82,3.11-.46.41-.9.88-1.16,1.47-.06.14-.19.27-.32.35-.44.29-.79.63-.89,1.17-.03.15-.1.36-.31.28-.16-.06-.18-.32-.09-.43.82-1.09.8-2.42,1.09-3.67.13-.57.49-1.06.59-1.64.03-.21.13-.44-.04-.57-.46-.32-.37-.75-.36-1.2.02-.65-.33-1.23-.29-1.9.02-.38.16-.74.12-1.14-.11-1.39-1.12-2.23-1.9-3.2-.27-.33-.76-.35-1.17-.47-.49-.14-.85-.39-1.15-.83-.37-.54-.94-.85-1.51-1.13,0,0,0,0,0,0,2.65,2.53,2.87,6.32,3.51,10.14.02.09.03.18.05.27.02.14.05.28.08.41.03.18.07.36.1.54.02.11.04.21.06.32.06.28.12.56.19.84.02.07.04.14.05.2.06.23.12.46.19.69.03.08.05.17.08.25.09.29.19.58.3.86-2.61,1.55-3.07-11.53-5.1-5.78-1.04-.81.28-9.26-1.93-3.79-.12-.11-.22-.26-.31-.42-.03-.05-.05-.1-.07-.15-.06-.13-.11-.28-.16-.43-.02-.06-.04-.11-.05-.17-.05-.19-.1-.38-.14-.59-.29-1.4-.45-3.23-1.41-4.51,0,.11,0,.22-.03.34-.32,1.17-.71,2.32-1.22,3.43-.42.91-.41,1.28.4,1.9.61.47.84,1.01.94,1.71.1.65.4,1.27.45,1.94.05.68.21,1.31.56,1.9.5.83.94,1.71,1.5,2.49.49.68.85,1.52,1.84,1.72.61.12,1.26.29,1.62.91.03.04.1.07.16.09.48.16.66.55.8.99.18.57.22,1.16.61,1.68.24.31.34.79.37,1.2.03.35-.48.33-.64.58-.19.3-.49.47-.75.7-.5.44-.8,1.02-1.06,1.78.58-.32,1.02-.56,1.45-.82.75-.46,1.7-.49,2.4-1,.7-.51,1.46-.62,2.26-.67,1.04-.06,2.1-.01,3.01-.65.12-.09.31-.12.46-.12.45-.01.78-.26,1.16-.45.84-.43,1.41-1.39,2.52-1.33.12,0,.28-.16.38-.28.29-.34.54-.7.83-1.03.23-.26.22-.45,0-.73-.49-.61-.52-2.27-.11-2.91.06-.1.15-.22.25-.26.56-.26.92-.7,1.23-1.22.1-.17.23-.38.54-.39-.09.64,0,1.28-.55,1.8-.32.3-.34.74.11,1.04.45.29.57.77.62,1.24.04.41.08.8.37,1.12.26.28.23.61,0,.81-.33.29-.34.69-.41,1.03-.08.36-.06.85.47,1.04.23.09.54.25.49.55-.12.77.26,1.19.84,1.63.81.62,1.97.43,2.33-.52.16-.41.4-.74.63-1.1.62-.96,1.51-1.76,1.74-2.95.04-.19.21-.29.37-.24.51.16.7-.24.9-.53.16-.23.3-.4.54-.57.75-.56.78-.71.35-1.59-.04-.09-.08-.19-.1-.29-.19-1.02-.7-1.9-1.28-2.73-.2-.28-.39-.61-.83-.77-.42-.15-.96-.29-1.23-.54-.42-.42-.7-.17-1.05-.08-.62.16-1.22.23-1.82-.1-.13-.07-.31-.09-.26-.27.26-.97.43-2.01,1.25-2.69.63-.53,1.22-1.13,1.98-1.48.33-.16.32-.38.28-.69-.05-.4-.42-.51-.57-.77-.46-.78-1.04-1.46-1.66-2.1-.61-.62-1.07-1.32-1.41-2.1-.15-.33-.29-.62-.72-.62-.11,0-.23-.06-.33-.13-.42-.28-.92-.17-1.13.3-.34.74-.51,1.53-.61,2.34-.1.83-.34,1.61-.7,2.36-.03.06-.09.1-.13.14,0,0,0,0,0,0,.1.15.2.29.28.4.01.02.03.04.04.06.18.23.33.38.51.45.01,0,.02,0,.03.01.09.03.18.03.28.02.01,0,.03,0,.04,0,.21-.04.47-.19.81-.43.02-.02.04-.03.06-.05.17-.13.35-.28.56-.46.04-.03.08-.06.11-.1.22-.19.45-.39.72-.63,1.72.97-2.18,3.33-3.35,3.72,4.79.44,2.17,2.09-.89,1.51,3.35,6.48-1.78-.42-1.52,5.39-.02,3.9-1.71,5.58-1.35.16-1.43,1.2-.76,4.34-2.19,5.05.25-5.73-4.51,3.69-5.32.12,4.6-5.21,12.35-12.19,3.68-8.21.3-.26.6-.52.9-.79.28-.25.56-.5.84-.76.02-.02.04-.04.07-.06.29-.26.57-.53.85-.81.01-.01.03-.03.04-.04.28-.28.56-.56.84-.85,0,0,.02-.02.02-.03.28-.29.54-.59.8-.89,0,0,.01-.01.02-.02.26-.31.51-.62.75-.93,0,0,0,0,.01-.02.24-.32.46-.64.67-.97,0,0,0,0,0,0,.21-.33.41-.67.58-1.02-.37-.57-.84-1.02-1.4-1.4-1.17-.8-2.35-1.58-3.5-2.42-.86-.62-1.86-1.11-2.01-2.39-.07-.65.13-1.52.62-1.58,1.36-.19,2.72-.39,4.09-.53,1.71-.18,3.42-.35,5.14-.44,1.38-.07,2.72-.19,4.11.35,2.4.94,4.08,2.51,5.15,4.79.5,1.07.86,2.19.76,3.39-.14,1.79-.81,3.39-1.83,4.85-.14.2-.31.41-.19.66.13.26.41.23.65.23.96-.02,1.69-.47,2.3-1.18,1.18-1.36,1.55-2.95,1.02-4.62-.34-1.07-1.06-2.01-1.47-3.11-.7-1.92-2.09-3.38-3.72-4.59-.39-.29-.8-.57-1.3-.92,2.63-.17,5.03.2,7.23,1.41.1.05.18.12.26.18-.24-.33-.52-.63-.83-.91-.13-.12-.26-.23-.4-.34-.11-.09-.23-.17-.35-.25-.3-.19-.6-.38-.95-.53.02-.01.05-.02.08-.03.1-.07.15-.12.19-.12,2.75-.27,5.51-.37,8.27-.51.08,0,.16.01.24.03,1.21.31,2.43.6,3.6,1.05.97.37,2,.56,2.89,1.16.43.29.86.6,1.3.88,1.07.67,1.89,1.58,2.48,2.68.51.95.34,2.06-.32,2.43-.86.48-.97.88-.39,1.71.66.93.76,1.89.38,2.94-.06.17-.13.35-.15.52-.03.29.13.46.4.34.79-.34,1.58-.69,1.76-1.67.12-.68.33-1.32.6-1.96.37-.9-.07-2.07-.91-2.55-.23-.13-.23-.3-.27-.5-.13-.59-.25-1.18-.55-1.73-1.57-2.89-4.27-4.14-7.23-5.01-.2-.06-.43-.03-.61-.27,1.15.01,2.23.2,3.31.24,1.29.05,2.58-.04,3.87-.07.29,0,.56.02.83.15,1.08.52,1.81,1.37,2.27,2.44.34.78.71,1.55,1.08,2.31.77,1.59,1.79,2.98,3.48,3.66,1.49.6,2.96,1.22,4.31,2.1.1.07.21.16.33.06.12-.1.03-.23-.01-.34-.15-.35-.29-.71-.47-1.05-.49-.97-.86-2.02-1.59-2.85-1.09-1.25-2.34-2.18-3.92-2.49.32.32.66.62,1.01.91.11.09.22.18.33.27.26.21.51.42.78.63.15.12.3.23.45.35.31.24.63.49.95.74.4.31.81.63,1.23.98-.03.08-.09.13-.16.17,0,0-.02.01-.03.02-.08.03-.17.05-.28.05-.02,0-.04,0-.06,0-.11,0-.24-.02-.38-.04-.02,0-.05-.01-.07-.02-.15-.03-.3-.07-.47-.13-.02,0-.04-.01-.05-.02-.37-.13-.77-.3-1.2-.52-.02,0-.03-.02-.05-.02-.21-.11-.43-.23-.65-.36-.02-.01-.04-.02-.06-.03-.22-.13-.44-.27-.66-.42-.01,0-.02-.01-.03-.02-1.86-1.25-3.57-3.01-3.27-4.41h0c-.24-.38-.47-.75-.71-1.13-.07-.12-.19-.24-.1-.39.09-.14.26-.1.39-.07,1.97.5,4.04.3,6.01.81.74.19,1.53.25,2.14.79.33.29.61.62.52,1.1-.08.44-.42.67-.83.8-.39.12-.78.26-1.25.42.77.4,1.45.28,2.26-.33.86-.64.93-1.5.2-2.29-.5-.54-1.11-.87-1.83-1-.14-.02-.31-.02-.33-.21-.02-.15.13-.2.23-.25ZM197.5,151.64c1.44-.75,2.94-1.04,4.53-.53-1.52.13-3.01.42-4.53.53ZM236.77,148.34c.39-.19.79-.06,1.16-.14,2.99-.67,5.89.05,8.79.58.08.01.16.05.23.08.03.01.04.06.13.16-3.47-.05-6.88-.14-10.31-.69Z"/>
  <g>
    <path class="cls-1" d="M136,81.92c26.76.2,26.98-3.09.13-3.33-26.69.22-27.05,3.52-.13,3.33Z"/>
    <path class="cls-1" d="M104.78,79.4c-.64.46-.6,1.04.1,1.43.51.29,1.04.55,1.59.76,1.56.61,3.23.77,4.87.95,2.78.3,5.56.55,8.34.76,3.09.23,6.18.53,9.27.56,7.25.08,14.5.14,21.75-.44,3.69-.29,7.38-.55,11.06-1.01,1.88-.23,3.72-.58,5.39-1.53.75-.43.81-1,.12-1.51-.3-.23-.35-.47-.29-.8-5.61-.57-12.12-.97-18.98-1.18,7.01.57,13.29,1.81,17.73,3.91-19.32,1.99-41.04,3.24-59.87-.54,6.64-1.75,15.4-3.02,24.37-3.51-9.08.13-17.86.56-25.11,1.3.07.37,0,.61-.33.85Z"/>
    <path class="cls-1" d="M92.86,55.04c1.09,1.22,2.01,2.55,2.56,4.1.38,1.08.88,2.09,1.4,3.1.8,1.52,1.83,2.85,3.14,3.98,1.01.87,2.18,1.55,3.1,2.54.53.56.53.52-.14.88-.39.21-.75.49-1.06.81-.53.55-.27,1.34.51,1.63.46.17.93.29,1.11.84,0,.02.01.05.02.07,14.67-9.21,46.45-6,65.85-1.16-14.93,1.4-46.71-4.22-65.8,1.31.56,1.7,1.12,3.4,1.5,5.15,15.24-6.46,46.62-6.47,62-.04.35-1.71.93-3.36,1.47-5.02.17-.54.41-.93,1.03-1.04.53-.1.93-.45.96-1.04.03-.57-.37-.87-.81-1.12-.25-.14-.51-.24-.76-.38-.33-.19-.4-.42-.08-.71.52-.48,1.03-.97,1.61-1.39,1.02-.73,2-1.52,2.85-2.45,1.41-1.55,2.38-3.39,3.11-5.32.66-1.75,1.54-3.34,2.81-4.72.19-.21.57-.46.43-.74-.16-.3-.59-.11-.9-.1-.84.03-1.61.43-2.42.52-1.09.12-2.12.36-3.11.79-.61,1.17-4.1,4.59-4.46,3.19.58-.71,1.51-2.32,2.48-3.21-.19-.06-.39-.11-.6-.12-.19-.01-.29-.13-.29-.32,0-.24.18-.22.34-.24.1,0,.23.07.32-.13-.7,0-.76-.42-.71-.94.05-.46.06-.93.11-1.39.21-1.88.71-3.65,1.89-5.18.25-.32.52-.62.77-.94.07-.09.18-.21.12-.32-.09-.18-.25-.06-.37-.02-1.1.33-2.24.59-3.24,1.21-.22.14-.45.27-.74.2-.66-.15-1.24.08-1.78.42-.39.25-.75.55-1.13.82-.19.14-.38.31-.66.18-.43-.2-.82-.01-1.22.15-.33.13-.54.39-.78.62-.45,1.47-1.8,3.9-2.94,4.7-.37-.86.44-3.76,1.54-4.87-.07.03-.14.08-.22.14-.48.37-.96.74-1.45,1.1-.63.46-1.21.96-1.39,1.77-.06.25-.19.46-.51.38-1.32-.3-1.31.08-1.71.9-.61,1.22-.59,1.24-1.96.93-.41-.09-.63,0-.65.44-.01.25-.02.49-.31.6-.59.22-.91.65-.96,1.28,0,.13-.06.24-.16.31-.43.28-.66.7-.9,1.12-.28.48-.46,1.07-1.33.71-.58-.24-.69-.19-.32-.79.14-.23.49-.48.35-.72-.18-.3-.62-.22-.95-.24-.11,0-.23.06-.35.08-.29.04-.57.09-.86.1-1.09,1.68-4.01,4.12-3.72,2.05,1.07-.92,1.99-1.98,2.75-3.18.22-.08.4-.13.57-.16.07-.18.13-.37.22-.55.31-.64.35-1.33.26-2.02-.02-.16-.05-.32-.15-.42-.84,1.49-2.48,3.45-3.69,4.25-.27-1.15,1.68-4.85,3.2-5.21.13-.81.02-1.63-.07-2.44-.03-.31-.22-.44-.5-.39-.71.13-1.47-.1-2.14.33-.12.08-.28.08-.41.02-.41-.18-.79-.18-1.15,0-.76,1.97-2.34,4.65-3.63,6.23-.45-1.3,1.11-6.07,2.8-6.85.19-.7.3-1.4.06-2.13-.08-.24-.15-.36-.46-.32-.88.13-1.24-.12-1.5-.98-.16-.52-.33-1.04-.58-1.53-.1-.2-.17-.34-.49-.3-.5.06-1.14-.45-1.23-.95-.27-1.39-1.21-2.36-2.03-3.41-.17-.21-.32-.21-.49,0-.88,1.09-1.84,2.12-2.05,3.59-.03.25-.16.46-.38.6-.14.09-.32.18-.43-.02-.45-.85-.61-.14-.76.16-.26.53-.46,1.08-.65,1.64-.13.37-.32.69-.54,1.01-.2.29-.43.36-.71.11-.45-.41-.61-.11-.76.29-.27.73-.13,1.43.02,2.13.13.03.27.06.44.12,1.43,1.3,4.05,9.89,1.23,5.05-.23-.86-2.28-3.36-2.55-4.57-.35-.15-.7-.18-1.09.11-.11.09-.29.09-.41.01-.66-.45-1.42-.24-2.13-.34-.32-.05-.48.09-.52.43-.09.78-.18,1.56-.07,2.33.12.02.23.04.38.07,1.23.77,3.67,6.38.99,3.31-.34-.43-1.33-1.44-1.87-2.25-.11.16-.11.39-.14.59-.12.85.18,1.59.5,2.33.16.02.34.06.55.11.23,1.19,4.42,3.78,2.15,3.98-.74-.28-2.5-1.86-3.2-2.98-.49-.09-.97-.25-1.5-.06-.6.2-.68.29-.35.8.11.17.23.34.31.52.08.16.04.42-.13.38-.4-.09-.71-.01-1.05.21-.16.11-.25-.14-.29-.3-.12-.48-.39-.88-.63-1.3-.51-.86-1.28-1.53-1.77-2.38-.4-.7-.82-.72-1.47-.48-.69.25-.93.11-1.21-.58-.17-.44-.41-.84-.64-1.24-.13-.22-.33-.46-.57-.34-.59.3-.96-.13-1.16-.46-.68-1.13-1.85-1.68-2.79-2.49-.03-.03-.06-.04-.09-.07,1.09,1.7,2.33,6.8.23,3.39-.37-.67-1.75-2.56-1.89-3.5-.09-.08-.19-.16-.28-.25-.43-.39-.99-.62-1.51-.48-.49.13-.76-.03-1.09-.29-.3-.24-.62-.46-.93-.68-.46-.32-1.02-.55-1.54-.47-.55.08-.93-.11-1.36-.34-1-.54-2.1-.79-3.27-1.12.06.42.29.63.46.86.3.4.63.79.93,1.2.4.53.63,1.13.82,1.76.19.62.32,1.25.5,1.87.19.66-.04,1.38.2,1.98.24.6-.43,1.07-.06,1.64.08.13-.17.29-.37.29-.21,0-.41.06-.61.12,1.34.99,2.9,2.84,2.54,3.71-1.48-.1-2.54-2.42-4.1-3.02-.09-.25-.14-.46-.16-.63-1.79-.81-3.75-.93-5.64-1.34-.3-.06-.73-.21-.9.09-.15.27.23.53.42.74ZM102.08,64.8c-1.27-3.54.85-2.64,1.4.15-1.06-6.02,1.57,1.28,3.64,2.29,5.59.47-2.74-8.42-5.12-11.05,4.03-2.68,6.36,12.19,12.82,9.51-7.73-4.31-5.29-6.73-11.3-14.76,3.59-2.2,7.17,16.01,6.5,3.05.53,5.67,9.13,17.06,5.26,5.09-.66-5.15,1.26-1.69,1.48,1.26-.02-.76.95-3.41,1.41-1.62-2.43,9.52,13.8,8.01,5.76-.12,10.19,10.29,8.4,3.03,2.41-5.47,11.44,13.62,8.1,8.28,7.64-5.22,4.08,10.81-.4-1.88,1.78-2.28,2.35.56.95,1.47,1.31,5.81,3.41-9.47-1.58,8.23-.18,11.81,4.34-2,4.59-9.19,8.95-9.93-5.79,7.57-8.3,16.22,1.89,5.47,2.86-.06-2.52,4.58-3.68,5.38,12.5,4.14,9.23-6.42,13.08-7.57-3.52,13.68,3.18,5.56,5.03-2.62.15,10.49,1.51-1.63,6.38-3.71-4.62,8.24-4.01,11.13-11.25,15.46,6.55,2.64,8.81-12.2,12.9-9.55-6.99,5.3-9.46,17.52-1.17,6.31,0,.87-.03,1.42-.04,1.77.11-.76.48-2.13,1.48-1.91-.37,7.31,5.15-11,8.19-7.16-11.01,21.72-19.61,10.07-42.38,10.49-16.2-2.5-34.37,12-38.44-5.69-7.79-11.18,1.33-.6,4.26,4.81Z"/>
  </g>
  <g>
    <path class="cls-1" d="M126.81,159c-.71.83-1.44,1.86-2.08,3.15-.31-.07-.78-.13-1.34-.07-.17.02-.76.09-1.27.35-1.18.61-1.5,2.06-1.55,2.33-.04.02-.1.05-.15.08,1.23.6-.44,6.3,1.84,7.36,3.48,5.23,8.96,4.74,12.98,2.27-5.74,2.82-15.13-.11-13.83-7.55,3.03,8.91,11.78,8.41,17.75,3.07-.23.8-.59,1.51-1.04,2.13,3.34-3.68,3.66-8.61-3.93-9.6,10.21,2.69,2.63,14.41-8.11,7.24-.85-5.09-.44-8.55.75-10.74Z"/>
    <path class="cls-1" d="M142.72,162.91c1.67,4.45.92,10.05-2.31,13.27,5.04-3.04,8.33-7.8,2.31-13.27Z"/>
    <path class="cls-1" d="M127.71,177.94c-1.45,2.37,3.36,2.19,8.4.3,3.34-2.85,8.76-8.7,4.77-15.36,2.35,8.32-3.64,16.29-13.18,15.05Z"/>
    <path class="cls-1" d="M135.1,165.38c-1.02-2.51-4.44-1.05-4.55,1.31-.21,1.94,4.29.34,4.55-1.31Z"/>
    <path class="cls-1" d="M136.6,164.92c-1.44,7.25-13.63,3.06-5.86-3.21-12.41,3.72,5.49,15.61,5.86,3.21Z"/>
    <path class="cls-1" d="M129.65,166.15c.06-.51.25-1.02.54-1.49-.37.41-.68.94-.54,1.49Z"/>
    <path class="cls-1" d="M149.68,206.82c-.02-.08-.04-.14-.06-.22,1.54-.63,3.61-.91,5.63-1.52,2.77-1.57,4.47-3.87,5.26-5.16.92-1.51,1.62-3.27,2.03-4.98-.5-.75-.75-1.54-.55-2.32.23.12.53.34.87.6.22-1.73.07-3.28-.52-4.25-.18-.29-.68-.99-.71-1.98-.03-1.05.5-1.29.71-2.54.06-.34.06-.57,0-1.07-.11-.07-.2-.15-.31-.22-.2-.44-.12-.79.14-1.08-.03-.22-.06-.46-.1-.74-.09-.66-.22-1.61-.35-2.75-.28.68-.8,1.59-1.77,2.12-.55.3-1.01.34-1.64.42-.14.21-.29.42-.42.62-.18-.13-.29-.3-.37-.5-.04,0-.07,0-.11.02-.45.09-1.99.39-3.25,1.2-1.86,1.2-1.39,2.4-3.6,4.02-.93.68-2.06,1.24-2.12,1.27-1.38.68-1.81.61-2.47,1.13-.97.75-1.05,1.66-1.55,2.75-.15.33-.36.69-.62,1.08-.96,17.79.6-1.48,7.49-5.39-9.64,18.84.79-.66,4.93-3.39-2.68,4.89,1,1.71,2.66-.83,3.34,1.76-14.5,12.12-3.04,6.38,10.07-4.48-2.66,2.57-5.57,5.06.28,1.54,9.24-1.59,9.37-4.87,5.09,3.91-22.2,10.55-7.84,8.99,13.43-3.64.06,2.72-6.44,2.26-2.26,3.63,10.97-.49,13.39-.4-3.28,3.09-9.89,3.05-14.65,3.08-1.65,1-2.92,1.74-3.89,2.28,1.53.1,2.73.51,2.73.51,1.66.58,4.22.73,6.74.41Z"/>
    <path class="cls-1" d="M119.1,165.74c-.45.39-.91.9-1.3,1.56-.29.49-1.15,1.96-.85,3.81.29,1.81,1.52,2.96,2.38,3.57-.09-.79.08-1.62.61-2.48.42.45.78.84,1.11,1.2-1.39-2.17-2.74-5.17-1.96-7.67Z"/>
    <path class="cls-1" d="M135.6,214.96c-.04-1.95.11-4.81,1.06-8.26.2-.14.51-.34.92-.49,0,0,.06-.02.14-.05.97-2.01,5.35-7.5,6.05-13.37-.59.84-1.49,1.78-2.95,2.69.43-.88.85-1.95,1.13-3.18.96-4.21-.2-7.8-.92-9.53.55-.07,1.33-.24,2.19-.64.82-.38,1.43-.84,1.84-1.2.16.07.4.15.69.21,4.75-6.21,4.8-13.06,1.26-19.14,5.14,2.29,4.89,15.28.94,18.84.37-.21.69-.49,1.07-.84.37-.34,1.25-1.16,1.84-2.33,1.26-2.53.4-5.25.21-5.79.37-.06.84-.2,1.2-.56,1.46-1.5-.28-5.39-1.27-7.06-2.05-3.48-5.41-5.12-7.41-5.86-.49-.74-1.44-1.97-3.04-2.97-.45-.28-1.75-1.08-3.46-1.34-3.12-.48-5.77,1.1-7.35,2.25,2.45-.95,5.67-.24,8.76,1.49.61.2,1.09.48,1.39.85,7.82,5.23,13.8,16.57,2.13,22.64-5.36,4.62-16.48,2.52-20.34-2.47,9.8,7.57,28.25.66,24.3-7.41-3.03,13.29-24.25,10.45-26.46,3.95-.32.14-.67.38-.92.79-.35.57-.31,1.15-.28,1.34,1.13,1.04,2.75,2.36,4.87,3.6.92.54,2.85,1.65,5.3,2.4,4.04,1.23,7.82.96,10.52.42.47,1.1,1.06,2.83,1.13,5.01.11,3.29-.99,5.8-1.62,6.99-.34-.5-.82-1.29-1.2-2.33-.96-2.6-.33-4.12-.85-5.51-.49-1.31-2.11-2.8-7.13-3.46.86,2.5,2.02,4.19,2.97,5.3,1.44,1.69,2.12,1.73,3.25,3.46.57.87,2.07,3.19,1.48,5.65-.19.79-.46,1.02-1.06,2.12-.67,1.22-1.5,3.07-2.05,5.65-.32-1.11-.77-2.36-1.41-3.67-.05-.11-.11-.21-.16-.31-.98-.53-2.52-1.61-3.65-2.14-3.37.36-8.85.98-10.29-2.87,2.78,2.56,14.19,2.33,6.47-.34-2.19-.3-11.1-.03-9.29-3,14.6,2.99,1.83-.19-3.57-4.63,13.89,4.14,2.71,2.22-1.24-6.15,6.87,6.32,3.97,4.21.91-2.51,4.57,5.39,18.37,18.92,7.52,5.09,5,1.08,11.68,18.52,6.08,4.57,2.82-1.71,3.73,7.93,6.37,9.44.12.16.21.29.32.44.32-.66.65-1.51.82-2.54.11-.65.7-3.99-1.41-6.85-.24-.32-2.44-3.24-4.52-2.82-.7.14-1.12.61-1.84.42-.68-.17-.69-.69-1.62-1.55-.45-.42-1.41-1.3-2.75-1.62-.42-.1-.95-.16-1.55-.56-.39-.26-.63-.54-.71-.64-.94-1.08-3.09-1.78-4.17-2.26-1.04-.47-2.45-1.35-3.88-3.18-.2,1.05-.43,3.08.42,5.3.31.8.69,1.46,1.06,1.98-.35.26-.71.52-1.06.78-.12.82-.29,2.81.71,5.01,1.2,2.64,3.33,3.87,4.02,4.24.12.77.43,1.95,1.27,3.11,1.99,2.76,5.3,3.06,5.86,3.11.55.5,2.55,2.16,5.37,2.05,1.02-.04,1.86-.3,2.47-.56.45.28,1.13.79,1.69,1.62.99,1.46,1.01,2.96.99,3.53-.48,2.14-.92,5.23-.56,8.9.5,5.18,2.33,9.08,3.6,11.3.23.26.58.57.92.49.64-.14.8-1.58.85-2.05.27-2.48-.78-4.17-1.48-6.28-.75-2.26-.79-4.01-.85-6.71Z"/>
    <path class="cls-1" d="M126.07,164.67c1.04-7.53,9-2.28,13.29-3.04,1-1.29,1.06-2.26.52-2.94-.46-.31-.92-.59-1.39-.85-4.01-1.29-13.56,1.27-12.42,6.82Z"/>
  </g>
  <g>
    <path class="cls-1" d="M161.89,108.19c-.06.44-.15.87-.22,1.31.35.42.84.94,1.31,1.47,0-.02.01-.04.02-.06.05.09.1.17.15.25.7.8,1.29,1.59,1.21,2.04.12.14.25.26.44.34.18.08.31.25.38.44.13.35.44.35.72.32.27-.03.23-.29.27-.48.32-1.59.01-3.11-.52-4.59-.21-.58-.67-1-1.16-1.35.07,1.19.72,2.79,1.31,5.53-.66-.41-3.07-3.31-3.88-5.41-.01.06-.03.12-.03.19Z"/>
    <path class="cls-1" d="M171.69,135.38c.58-1.19,1.58-1.89,2.72-2.04-.66-.3-1.3-.61-1.8-.87-.87.41-1.27,1.43-2.12,1.9.35-.4,0-.9.27-1.32.14-.22-.06-.29-.24-.25-.4.07-.79.21-1.19.23-.89.03-1.6.43-2.23,1-.13.12-.29.09-.46.11-.48.04-1.01-.08-1.38.41-.15.2-.36.15-.5-.07-.02-.03-.04-.07-.06-.1-.67-.94-.66-.93-1.36-.02-.34.45-.77.83-1.16,1.24-.25.25-.61.2-.9.23-.98.1-1.48.81-2.08,1.42-.12.12-.13.4-.35.37-.21-.03-.19-.28-.23-.45-.11-.52-.32-.83-.92-.59-.1.04-.23-.03-.35-.04-.65-.05-1.26-.02-1.66.61-.12.18-.26.43-.53.23-.52-.37-1.06-.72-1.65-1.09-.91-.02-1.59-.04-2.46-.03-.07,0-.14,0-.21,0,.3.19.63.34,1.01.43.23.05.41.31.6.5.57.58,1.16,1.14,1.9,1.5.55.27,1.01.51,1.16,1.25.15.73.85,1.16,1.4,1.64.88.77,1.75,1.53,2.63,2.3-.88-2.04-2.31-5.35-.64-4.27,2.6,4.93-.11-.47,1.78-1.57.77-.38,2.81,6.94,1.56,8.19.23.2.45.4.68.6-.2-1.33.54-3.88,3.1-8.28-.65,4.89,1.71-4.55,3.51-4.64.73,3.14-4.99,6.88-.03,5.24-3.11,2.67-6.36,10.38-1.32,3.35,2.39,1.74-1.59,5.49-3.87,5.55.36.31.71.62,1.07.94.5.44,1,.88,1.51,1.31.41-.63,2.64-1.6,5.55-2.87-4.27,4.37,3.14.82,1.7,3.65-3.4.12-5.45.08-6.48-.11,1.38,1.2,2.77,2.41,4.15,3.62.29.25.53.31.86.08.86-.58,1.96-.78,2.64-1.67l1.05-1.66c-.03-.11.08-.25.09-.37.09-.68-.05-.88-.72-1.04-.48-.12-1.13-1.13-1-1.57.07-.26.35-.32.53-.47.46-.4.47-.56.02-.96-.45-.4-.95-.75-1.18-1.35-.08-.21-.31-.22-.52-.25-.59-.08-.67-.23-.47-.82.15-.44.28-.89.42-1.33.13-.42-.03-.77-.34-1.03-.31-.26-.61-.07-.92.15-.19-.41-.12-.77-.05-1.12.17-.9.08-1.82.12-2.73.02-.5-.4-.88-.96-.89-.47-.02-.56-.16-.34-.59.26-.5.44-1.05.69-1.55Z"/>
    <path class="cls-1" d="M160.55,99.57c-.57-.64-1.47-.84-1.91-1.61-.09-.16-.25-.37-.49-.27-.21.08-.25.32-.27.52-.15,1.32-.17,2.61.61,3.8.49.75.83,1.59,1.47,2.26.58.6,1.08,1.26,1.93,1.51.02,0,.03.02.05.03-.92-1.12-5.58-6.89-2.7-6.44,1.07,3.7,2.35,4.84,3.96,5.01-.05-.08-.1-.19-.13-.36-.34-1.76-1.33-3.12-2.51-4.42Z"/>
    <path class="cls-1" d="M174.26,113.41c.2-.29.46-.41.73-.44.3-.68.49-1.39.62-2.13.03-.18.02-.36.02-.54-.06-1.14-.19-2.26.24-3.36-.27.31-.61.45-1.01.37-.03.13-.05.26-.06.39-.09.91-.27,1.79-.5,2.69,1.15.39.23,2.18-.03,3.01Z"/>
    <path class="cls-1" d="M168.84,102.13c.12-.09.3-.11.46-.11.63,0,1.15-.26,1.59-.67,1.05-.97,2.29-1.75,3.13-2.95.1-.15.43-.19.27-.46-.13-.2-.38-.25-.6-.21-.58.11-1.15.25-1.73.35-1.31.23-2.39.97-3.49,1.62-.49.29-.62.13-.66-.34-.06-.62-.13-1.25-.25-1.86-.11-.51-.22-1.01-.01-1.55.14-.38-.28-.7-.67-.55-.32.12-.55.36-.72.63-.81,1.27-1.56,2.59-1.84,4.07-.11.58-.13,1.16.03,1.69-.05-1.72,1.06-4.24,2.79-5.25-5.54,10,9.97-2.09,4,3.41-3,3.05-4.87,3.85-5.87,3.5-.04.02-.08.05-.14.06-.51.13-.91.42-1.31.74-.06.05-.11.08-.17.11,1.53,0,3.35-.7,5.58-.94-3.14,1.62-4.36,2.49-4.63,3.67,1.06-.35,1.96-.98,2.8-1.71.31-.27.41-.17.52.19.23.74-.06,1.44-.08,2.16-.06,2.24.55,4.29,1.75,6.14.35.53.81,1.04,1.46,1.3,1.43-2.89-2.11-7.05-1.97-9.84,3.25,1.2,2.41,9.3,4.26,6.48-.08-.79-.32-1.52-.69-2.23-.9-1.76-2.26-3.23-3.28-4.91-.3-.49-.31-.73.17-1.01.42-.25.19-.47-.07-.63-.13-.08-.31-.07-.47-.1-.21-.04-.54-.02-.58-.23-.05-.26.25-.44.45-.58Z"/>
    <path class="cls-1" d="M159.22,111.27c-.02.86.13,1.7.24,2.55.36,2.78,1.75,4.99,3.84,6.79.27.23.56.42.86.61-1.22-3.03-4.98-6-4.87-10.17-.04.07-.07.14-.07.22Z"/>
    <path class="cls-1" d="M175.9,113.95c-.05.14-.14.29-.31.44-3.62,1.68,6.58,2.77,2.57-.76-.69.39-1.47.12-2.16.31-.03,0-.07.01-.1.02Z"/>
    <path class="cls-1" d="M190.27,110.22c.08-.09.06-.21-.27-.41-.11-.07-.11-.18-.03-.26.62-.61,0-.81-.37-1.04-.63-.4-1.37-.53-2.09-.57-.29-.02-.55-.08-.79-.17,1.69,1.15,3.18,1.97,3.54,2.44Z"/>
    <path class="cls-1" d="M185.66,108.86c.69.4,1.45.67,2.24.81,1.41.12-1.64-.71-2.24-.81Z"/>
    <path class="cls-1" d="M178.32,100.85c.04-.24-.06-.49-.36-.55-.32-.05-.62-.02-.79.3-.07.12-.1.26-.16.4-.05.11-.08.25-.21.27-.18.03-.24-.13-.29-.26-.28-.67-.58-1.33-1.06-1.89-.2-.23-.21-.73-.58-.69-.43.05-.5.54-.65.88-.08.18-.1.39-.15.59-.04.18-.21.39-.38.46-.79.32-.79.95-.59,1.65.07.24.02.48,0,.72-.02.37.04.7.36.98.59.51,1.03,1.08,1.27,1.72.54-1.84.92-3.75.11-5.91,1.51-.23,2.11,2.68,1.85,5.02.02.39.02.78.11,1.17.09.37.04.7-.36.92-.33.18-.47.56-.56.91-.19.75-.2,1.52-.19,2.29,0,.35.19.65.4.93.26.36.55.66.6,1.19.03.29.37.55.67.81,2.06.63,2.7.1,2.67-1-.29-.27-.59-.54-.9-.79-.93-.73-.98-1.81-1.21-2.83-.05-.2-.07-.4-.11-.65.74.96.78,2.19,1.49,3.13.22.29.46.56.7.82-.31-2.49-3.21-7.22-1.99-9,.58,2.49,1.64,4.62,2.76,6.37-.17-.72-.27-1.48-.26-2.28.26.99.78,1.83,1.48,2.56-.23.24-.38-.05-.57.06,0,.03-.04.09-.03.14.11.41.28.77.47,1.13,1,1.36,1.92,2.42,2.46,3.17.19.15.39.29.6.42.27.18.57.17.88.17.89-.02,1.78-.02,2.67-.01.22,0,.5-.04.33.35-.53,1.2-.28,2.38.1,3.55.21.64.44,1.26.64,1.9.1.31.18.62.1.95-.04.18-.11.34-.32.23-.7-.39-1.43-.05-2.14-.1-.14,0-.28.02-.42,0-.5-.05-.64-.26-.32-.62,1.11-1.26,1.52-2.68,1.16-4.32,0-.04,0-.08,0-.12.01-.3.26-.74-.18-.82-.4-.07-.82.15-1.05.58-.37.7-.74,1.39-1.12,2.08-.06.11-.07.32-.27.26-.08-.03-.18-.19-.18-.29-.02-.74-.37-1.31-.85-1.82-.13-.14-.24-.23,0-.41.3-.22.3-.46.13-.66-.31,0-.74-.05-1.29-.14-.68,2.08-6.72,1.26-9.47,3.11,2.35.24,4.59-.2,6.75-1.13.57-.25,1.15-.49,1.73-.73.23-.09.34-.11.45.22.39,1.21.98,2.34,1.57,3.47.11.21.28.43.3.65.11.92.72,1.37,1.49,1.67.82.32,1.67.46,2.55.33.38-.06.71,0,.97.34.25.32.06.58-.08.84-.47.91-1.34,1.44-2.02,2.16-.23.25-.49.49-.79.66-.43.25-.77.74-1.37-.02-.48-.6-1.38-.87-2.25-.83-.12,0-.23,0-.35,0-1.96-.23-3.46.57-4.33,2.32-.06.13-.1.33-.2.36-.64.24-.64.78-.68,1.32-.02.26-.13.49-.26.73-.31.54.02,1.06.11,1.58.04.26.37.6-.09.76-.03,0-.06,0-.08,0,1.1.36.47-4.52,3.07-5.25-1.16,6.32-.68.7,3.05-.12-4.03,6.42.84-.05,5.52,1.54-8.36,5.25-14.49,7.44.47,5.94-4.02,3.26-6.47,1.93,2.58,3.84-3.37,5.18-19.24-10.54-7.78,5.46-4.15-.67-7.87-11.72-4.26-.17-1.89.01-2.66-3.26-2.67-4.85.2,11.03-3.88.09.41-4.25-.08-.06-.18-.12-.28-.18,0,0,0,0,0,0-.67.34-1.31.72-1.95,1.11-1.36.85-1.9,2.45-1.36,3.98.15.43.17.91.21,1.37.06.59.21,1.16.4,1.71.11.31.25.61.62.7.25.06.33.29.42.49.29.58.74,1.02,1.24,1.4.82.63,1.57.56,2.3-.19.27-.28.55-.36.85-.12.66.54,1.37.64,2.15.31.39-.17.77-.11,1.17,0,.61.16,1.23.25,1.85.35.33.05.52-.03.51-.45-.02-.76-.27-1.51-.12-2.29.05-.28.09-.4.4-.34.62.11,1.25.17,1.8.51.32.2.66.16,1,.08.43-.1.65-.34.57-.83-.13-.84-.11-.86.75-.68.45.09.93-.09,1.37.15.14.07.35-.02.41-.18.2-.49.6-.49,1.01-.45.26.02.52,0,.77-.04l.24-1.56.03-.1c-.08-.09-.13-.2-.14-.34-.03-.54-.91-1.01-.15-1.6,0,0,0-.04,0-.06-.2-.5-.26-1.08-.75-1.43-.21-.15-.31-.33-.42-.56-.19-.43-.36-.91-.99-.92-.8,0-.8-.03-.7-.82.08-.68-.02-.79-.72-.88-.69-.09-1.37-.22-2.15-.35.81-.44,1.27-1.17,2.01-1.56.45-.23.59-.77.76-1.2.11-.28-.34-.46-.55-.66-.28-.26-.23-.47-.03-.73.65-.83,1-1.81,1.19-2.83.35-1.95.08-3.91-.09-5.86-.1-1.23-.4-2.44-.6-3.66-.17-1.02.07-1.28,1.06-1.25.11,0,.23,0,.34.01-3.19-.51-8.66-2.22-9.4-4.4,2.02.74,5.44,1.46,7.95,2.52.72.25,1.31.48,1.81.68-.05-.05-.11-.1-.15-.16-.47-.54-.48-.8.07-1.27.44-.38.93-.71,1.41-1.05.27-.19.44-.39.16-.69-.42-.45-1.5-.57-2.06-.26-.48.26-.84.63-1.07,1.13-.23.5-.61.58-1.02.26-.78-.6-1.71-.69-2.63-.85-.58-.1-1.16-.18-1.75-.27.5-.15.97-.03,1.44.04.93.14,1.85.4,2.77.19-.64,0-1.54-.07-2.79-.2-2.61-.55-5.62-4.43-6.2-7.73-.21.44-.5.84-.28,1.39.04.1-.02.27-.17.28-.16,0-.16-.16-.2-.27-.09-.27-.11-.56-.31-.78-.64-.72-1.07-1.5-.89-2.52ZM188.89,128.31c-.05.09-.19.14-.3.17-.41.11-1.42-.35-1.53-.68-.04-.13-.16-.27.05-.35.93-.38,1.54-1.15,2.25-1.8.08-.08.18-.17.38-.1-.05.98-.37,1.89-.85,2.76Z"/>
    <path class="cls-1" d="M181.79,124.22c.73-.33,1.42-.68,2.24-.67.16,0,.32-.05.47-.1.39-.13.48-.36.17-.67-.95-.97-2.08-1.57-3.41-1.95-2.76-.79-5.45-.28-8.18.15-1.43.23-2.77.75-4.18.98-.51.08-.95.46-1.52.5-.03-.27.16-.38.3-.5,1.17-.92,2.22-1.96,3.13-3.13.02-.02.03-.03.05-.05.23-.75.64-1.56.94-1.94.26-.2-.24-.23-.67-.38-.43.57-.92,1.09-1.44,1.58-.91.86-1.81,1.73-2.76,2.62-.22-.64-.22-1.35-.25-2.05-.07-1.26-.35-2.4-1.19-3.42-.47-.58-.97-1.14-1.49-1.66-.11.03-.24.04-.4.04-1-.49-3.05-2.46-2.99-3.79-.1.02-.19.06-.26.14l-.92.95c1.18,2.92,9.7,10.15,5.07,12.73.02-.14.02-.28.03-.41-.85.91-1.82,1.7-2.67,2.6.46.03,1,.16,1.44.3.64-.55,1.29-1.07,1.87-1.69.39-.43,1.04-.56,1.72-.44,2.07-.85,11.21-2.45,15.32-2.2-.04,1.64-7.08,1.64-9.52,2.45-2.1.18-3.58.26-4.58.27.11.07.21.15.31.24-.45-.05-.79-.09-1.13-.12-.21-.02-.42.02-.25.29,1.05,1.63,1.45,3.6,2.78,5.11.62.7,1.29,1.23,2.09,1.58.31-.1,1.03-.11,2.31,0-1.69-2.21-5.15-1.8-5.76-5.33.92-.63,4.24,3.41,6.52,4,.43.75.78,1.29,1.07,1.67-.16-1.05-.32-2.09-.54-3.13-.21-.98-.76-1.68-1.6-2.18-.1-.06-.22-.11-.27-.34.26-.01.48-.05.7-.03,2.74.26,5.11-.91,7.48-2Z"/>
    <path class="cls-1" d="M190.06,103.89c.13-.13.37-.1.54-.09.4.04.76-.07,1.12-.22.41-.17.52-.36.21-.77-.34-.45-.87-.75-1.08-1.3-.37-1.01-1.14-1.67-1.92-2.31-3.73.38.76,3.93,1.13,4.69Z"/>
    <path class="cls-1" d="M185.6,106.98c-.22-.22-.43-.46-.64-.7.26-.06.38.06.49.16.73.6,1.51,1.1,2.49,1.17.58.04,1.1.21,1.57.58.34.27.7.58,1.15.11.07-.08.29-.09.4-.04.77.28,1.57.22,2.37.25.38.01.46-.16.37-.49-.06-.23-.21-.42-.42-.53-.4-.22-.79-.53-.88-.98-.1-.53-.43-.64-.85-.7-.24-.04-.49-.04-.72-.09-.14-.03-.39-.07-.23-.31.31-.46.05-.65-.34-.81-.23-.1-.45-.29-.39-.55-.23-.01-.85-.27-2.08-.88-3.14-1.32-2.17-6.26,1.04-3.96-.27-.22-.55-.44-.81-.68-.28-.25-.69-.35-1.07-.41-.65-.1-1.08.32-.99.95.02.13.02.25-.11.31-.19.08-.33-.01-.4-.17-.25-.6-.86-.53-1.33-.7-.19-.07-.46.03-.56.26-.1.21.06.35.2.46.11.09.17.2.22.31.23,0,.5.03.89.18-1.07,4.34,12.88,8.45,4.72,6.5-1.71.41-4.17-1.97-5.42-4.01.15.68.44,1.31.99,1.87.03.04.03.1.1.31-.83-.9-1.55-1.7-1.5-2.86,0-.02,0-.05,0-.07-.3-.62-.43-1.16-.35-1.51-.12-.21-.27-.41-.47-.6-.59-.56-1.19-.63-1.75-.02-.14.15-.25.31-.34.48-.09,2.96,2.28,5.37,4.67,7.16Z"/>
  </g>
  <path class="cls-1" d="M91.03,162.76c.2-.18.41-.35.61-.53-.46.06-.95.09-1.49.03-4.83-5.91-16.86-5.12,3.87-3.91-1.32-3.03.12-4.4-1.11-7.3,2.69,1.7,3.61,4.97,2.87,7.56.46-.4.92-.81,1.39-1.21.32-.27.4-.51.22-.93-.44-1.06-.72-2.19-1.3-3.2-.03-.05-.07-.12-.09-.18l-.93-1.85c-.47-.77-1.22-1.14-2.03-1.43-.37-.13-.77-.46-1.13-.13-.33.31-.05.72.03,1.08.05.25.05.45-.01.6v1.79s0,.09.01.14l.36,1.82s.01.1.01.15l-.02.97c0,.5-.51.83-.97.65-.3-.12-.48-.42-.45-.74v-.06c.01-.06.01-.12,0-.18l-.37-2.55s0-.03,0-.04l-.29-1.47c-.14-.1-.25-.33-.44-.76-.03-.07-.09-.13-.13-.2-.52-.96-1.45-1.63-1.93-2.62-.45-.92-1.35-.89-2.16-1.01-.4-.06-.61.21-.51.67.33,1.43.63,2.88.97,4.31.03.11.03.19.03.26l.73,1.12,1.5,1.62.13.48c.11.16.18.36.16.63-1.19-.24-2.36.07-3.51.3-1.27.25-2.58.2-3.81.63-.3.11-.74.2-.77.52-.03.32.43.35.68.49,1.48.8,2.89,1.69,4.25,2.69,1.38,1.01,2.88,1.8,4.61,2.07.4.06.71,0,1.01-.26ZM88.38,155.34c-.06-1.36-3.86-7.59-1.21-6.88.14,2.41,6.68,11.62,1.21,6.88Z"/>
  <path class="cls-1" d="M82.24,170.31c.22.04.39-.09.54-.22,1.67-1.45,3.35-2.9,5.02-4.36-2.96,1.36-6.02,2.61-8.83,3.97.57-1.16,3.74-3.81,6.55-5.34-1.62.34-3.19.78-4.53,1.95-1.08.93-1.71,2.19-2.72,3.16-.33.32-.21.55.19.71.36.15.73.23,1.22.19.79.21,1.66-.23,2.56-.05Z"/>
  <path class="cls-1" d="M190.91,157.26c-1.23-.43-2.55-.38-3.81-.63-1.15-.23-2.31-.53-3.51-.3-.02-.27.05-.47.16-.63l.13-.48,1.5-1.62.73-1.12c0-.07,0-.15.03-.26.34-1.43.64-2.87.97-4.31.11-.46-.1-.72-.51-.67-.81.11-1.71.08-2.16,1.01-.48.99-1.41,1.66-1.93,2.62-.04.07-.1.13-.13.2-.19.43-.3.66-.44.76l-.29,1.47s0,.02,0,.04l-.37,2.55c0,.05,0,.1,0,.16,1.66-2.01,2.94-6.58,4.5-7.83.23,2-2.23,10.82-4.5,7.83,0,0,0,.01,0,.02v.06c.04.32-.14.62-.44.74-.46.18-.96-.15-.97-.65l-.02-.97c0-.05,0-.1.01-.15l.36-1.82s.01-.09.01-.14v-1.79c-.06-.15-.06-.34-.01-.6.08-.37.36-.78.03-1.08-.36-.33-.75,0-1.13.13-.81.29-1.56.66-2.03,1.43l-.93,1.85c-.02.06-.06.12-.09.18-.58,1.01-.86,2.14-1.3,3.2-.18.42-.09.66.22.93.45.39.9.79,1.35,1.18-.74-2.56.25-5.76,2.92-7.51-.19,3.12-2.71,8.45,2.06,6.38,1.44,2.12,9.39-2.06,8.84.96-4.33-.41-6.96,1.75-8.48,4-.38,0-.73-.05-1.07-.11.18.15.35.31.53.46.3.26.61.33,1.01.26,1.73-.27,3.23-1.06,4.61-2.07,1.36-.99,2.78-1.88,4.25-2.69.25-.14.71-.17.68-.49-.03-.32-.46-.41-.77-.52Z"/>
  <path class="cls-1" d="M191.16,166.3c-1.42-1.23-3.1-1.65-4.81-2,.22.11.43.22.66.35,5.61,4.33,8.95,5.89-.22,2.33-.62-.15-1.16-.35-1.67-.57,1.41,1.23,2.83,2.45,4.24,3.68.16.14.33.27.54.22.89-.18,1.77.26,2.56.05.49.05.86-.04,1.22-.19.4-.16.52-.39.19-.71-1-.97-1.64-2.23-2.72-3.16Z"/>
  <path class="cls-1" d="M134.85,231.01s-.01,0-.02,0c-.42-.46-.88-.88-1.35-1.24-1.43-1.13-3.12-1.88-4.9-2.18-.21-.04-.29-.21-.28-.36.02-.15.13-.31.33-.31.03,0,.06,0,.09.01,2.42.63,4.6,2.07,6.14,4.06,0,0,0,.02,0,.03,0,0,0,0-.01,0Z"/>
  <path class="cls-1" d="M128.64,226.93s.06,0,.09.01c2.43.63,4.6,2.07,6.12,4.05-.42-.45-.87-.87-1.35-1.24-1.42-1.12-3.14-1.89-4.91-2.19-.4-.08-.31-.63.05-.63M128.64,226.88c-.21,0-.33.17-.35.33-.02.16.07.34.29.39,1.78.3,3.47,1.05,4.89,2.18.47.36.92.78,1.34,1.24,0,0,.02.01.03.01.01,0,.02,0,.03-.01.02-.02.02-.04,0-.06-1.54-1.99-3.72-3.44-6.15-4.06-.03,0-.07-.01-.1-.01h0Z"/>
  <path class="cls-1" d="M137.45,231s-.01-.02,0-.03c.39-.5.81-.96,1.25-1.37,1.37-1.28,3.06-2.21,4.89-2.69.03,0,.06-.01.09-.01.2,0,.31.16.33.31.02.15-.06.32-.28.36-1.78.3-3.47,1.05-4.9,2.18-.47.37-.92.78-1.35,1.24,0,0-.01,0-.02,0,0,0-.01,0-.01,0Z"/>
  <path class="cls-1" d="M143.68,226.93c.35,0,.45.55.05.63-1.77.3-3.49,1.06-4.91,2.19-.48.38-.93.79-1.35,1.24.38-.48.79-.94,1.24-1.36,1.37-1.28,3.05-2.21,4.88-2.68.03,0,.06-.01.09-.01M143.68,226.88s-.06,0-.1.01c-1.83.48-3.53,1.41-4.9,2.7-.44.41-.86.87-1.25,1.37-.01.02-.01.05,0,.06,0,0,.02.01.03.01.01,0,.02,0,.03-.01.42-.46.88-.87,1.34-1.24,1.42-1.12,3.12-1.88,4.89-2.18.23-.05.31-.23.3-.39-.02-.16-.14-.33-.35-.33h0Z"/>
  <path class="cls-1" d="M152.64,228.64c-.49-.37-1-.7-1.51-.97-1.55-.84-3.3-1.28-5.05-1.28-.29,0-.4-.18-.39-.34,0-.17.12-.33.34-.33,2.47.2,4.83,1.23,6.65,2.9,0,0,0,.02,0,.03,0,0-.01,0-.02,0,0,0,0,0-.01,0Z"/>
  <path class="cls-1" d="M146.02,225.73s.02,0,.02,0c2.46.2,4.8,1.24,6.61,2.89-.48-.37-.99-.69-1.51-.98-1.55-.84-3.32-1.28-5.06-1.28-.02,0-.04,0-.06,0-.43-.01-.41-.63,0-.63M146.02,225.68c-.23,0-.36.18-.36.36,0,.17.11.36.36.37h.06c1.75,0,3.49.44,5.04,1.28.51.27,1.02.6,1.51.97,0,0,.02,0,.03,0,.01,0,.03,0,.03-.02.02-.02.01-.05,0-.06-1.82-1.67-4.18-2.7-6.63-2.9-.01,0-.02,0-.03,0h0Z"/>
  <path class="cls-1" d="M119.66,228.64s-.01,0-.02,0c0,0,0-.02,0-.03.46-.42.94-.79,1.44-1.11,1.54-1.01,3.33-1.63,5.18-1.78h0c.24,0,.36.17.36.33,0,.16-.1.34-.34.34h-.08c-2.33,0-4.66.8-6.54,2.25,0,0,0,0-.01,0Z"/>
  <path class="cls-1" d="M126.29,225.73c.41,0,.43.62,0,.63-.03,0-.05,0-.08,0-2.35,0-4.69.82-6.56,2.26.45-.41.92-.78,1.43-1.11,1.54-1.01,3.32-1.63,5.17-1.78,0,0,.02,0,.02,0M126.29,225.68s-.02,0-.03,0c-1.85.16-3.65.77-5.2,1.79-.5.32-.98.7-1.44,1.12-.02.02-.02.04,0,.06,0,.01.02.02.03.02,0,0,.02,0,.03,0,1.89-1.45,4.2-2.25,6.53-2.25h.08c.25,0,.36-.19.36-.37,0-.18-.13-.36-.36-.36h0Z"/>
  <path class="cls-1" d="M134.85,231.01s-.01,0-.02,0c-.42-.46-.88-.88-1.35-1.24-1.43-1.13-3.12-1.88-4.9-2.18-.21-.04-.29-.21-.28-.36.02-.15.13-.31.33-.31.03,0,.06,0,.09.01,2.42.63,4.6,2.07,6.14,4.06,0,0,0,.02,0,.03,0,0,0,0-.01,0Z"/>
  <path class="cls-1" d="M128.64,226.93s.06,0,.09.01c2.43.63,4.6,2.07,6.12,4.05-.42-.45-.87-.87-1.35-1.24-1.42-1.12-3.14-1.89-4.91-2.19-.4-.08-.31-.63.05-.63M128.64,226.88c-.21,0-.33.17-.35.33-.02.16.07.34.29.39,1.78.3,3.47,1.05,4.89,2.18.47.36.92.78,1.34,1.24,0,0,.02.01.03.01.01,0,.02,0,.03-.01.02-.02.02-.04,0-.06-1.54-1.99-3.72-3.44-6.15-4.06-.03,0-.07-.01-.1-.01h0Z"/>
  <path class="cls-1" d="M137.45,231s-.01-.02,0-.03c.39-.5.81-.96,1.25-1.37,1.37-1.28,3.06-2.21,4.89-2.69.03,0,.06-.01.09-.01.2,0,.31.16.33.31.02.15-.06.32-.28.36-1.78.3-3.47,1.05-4.9,2.18-.47.37-.92.78-1.35,1.24,0,0-.01,0-.02,0,0,0-.01,0-.01,0Z"/>
  <path class="cls-1" d="M143.68,226.93c.35,0,.45.55.05.63-1.77.3-3.49,1.06-4.91,2.19-.48.38-.93.79-1.35,1.24.38-.48.79-.94,1.24-1.36,1.37-1.28,3.05-2.21,4.88-2.68.03,0,.06-.01.09-.01M143.68,226.88s-.06,0-.1.01c-1.83.48-3.53,1.41-4.9,2.7-.44.41-.86.87-1.25,1.37-.01.02-.01.05,0,.06,0,0,.02.01.03.01.01,0,.02,0,.03-.01.42-.46.88-.87,1.34-1.24,1.42-1.12,3.12-1.88,4.89-2.18.23-.05.31-.23.3-.39-.02-.16-.14-.33-.35-.33h0Z"/>
  <path class="cls-1" d="M152.64,228.64c-.49-.37-1-.7-1.51-.97-1.55-.84-3.3-1.28-5.05-1.28-.29,0-.4-.18-.39-.34,0-.17.12-.33.34-.33,2.47.2,4.83,1.23,6.65,2.9,0,0,0,.02,0,.03,0,0-.01,0-.02,0,0,0,0,0-.01,0Z"/>
  <path class="cls-1" d="M146.02,225.73s.02,0,.02,0c2.46.2,4.8,1.24,6.61,2.89-.48-.37-.99-.69-1.51-.98-1.55-.84-3.32-1.28-5.06-1.28-.02,0-.04,0-.06,0-.43-.01-.41-.63,0-.63M146.02,225.68c-.23,0-.36.18-.36.36,0,.17.11.36.36.37h.06c1.75,0,3.49.44,5.04,1.28.51.27,1.02.6,1.51.97,0,0,.02,0,.03,0,.01,0,.03,0,.03-.02.02-.02.01-.05,0-.06-1.82-1.67-4.18-2.7-6.63-2.9-.01,0-.02,0-.03,0h0Z"/>
  <path class="cls-1" d="M119.66,228.64s-.01,0-.02,0c0,0,0-.02,0-.03.46-.42.94-.79,1.44-1.11,1.54-1.01,3.33-1.63,5.18-1.78h0c.24,0,.36.17.36.33,0,.16-.1.34-.34.34h-.08c-2.33,0-4.66.8-6.54,2.25,0,0,0,0-.01,0Z"/>
</svg>