<?xml version="1.0" encoding="UTF-8"?>
<svg id="Calque_2" data-name="Calque 2" xmlns="http://www.w3.org/2000/svg" viewBox="0 0 272.16 272.16">
  <defs>
    <style>
      .cls-1 {
        fill: #686868;
      }
    </style>
  </defs>
  <path class="cls-1" d="M136.08,38.51c-44.67,0-81.04,43.78-81.04,97.58s36.37,97.57,81.04,97.57,81.03-43.77,81.03-97.57-36.35-97.58-81.03-97.58M136.08,236.48c-46.25,0-83.87-45.03-83.87-100.39s37.62-100.4,83.87-100.4,83.88,45.04,83.88,100.4-37.63,100.39-83.88,100.39"/>
  <path class="cls-1" d="M126.22,197.97c-2.19.97-9.73,3.41-14.32,3.03-4.23-.36-9.07-1.72-9.94-5.13-.86-3.4.17-5.91,4.07-6.63,3.89-.73,15.56,2.66,22.63,6.3,1.19.63-.25,1.47-2.43,2.43M92.85,161.33c-4.88,1.36-5.68,1.71-13.33.86-7.56-.86-9.62-7.79-7.66-10.28,1.93-2.44,5.44-2.41,10.74-1.56,5.42.88,12.99,4.79,17.92,6.71.17.07-2.9,2.94-7.67,4.26M152.38,68.88c8.41-6.08,11.32-5.69,13.96-3.58,2.89,2.3,2.05,13.52-2.82,19.83-4.86,6.3-12.52,14.13-20.28,19.19-5.67,3.69-15.97,8.83-15.73,7.63,1.18-5.97,15.43-36.23,24.85-43.05M155.18,152.83c1.21-5.47,16.5-35.23,23.59-40.27,5.11-3.65,8.42-5.15,11.93-2.91,2.07,1.33,4.14,5.59.73,12.37-3.42,6.79-12.42,18.93-22.63,24.75-10.23,5.83-14.11,8.24-13.62,6.06M153.23,158.9s6.96-3.16,10.46-5.1c10.38-5.72,30.91-23.91,32.36-36.15.28-2.34,1.02-6.17-4.35-9.59-6.34-4.03-13.38.58-16.55,2.65-2.88,1.87-14.38,8.68-28.99,47.75,0,0-2.66,1.18-10.93,3.36-8.27,2.18-23.6-.24-28.71-5.1,0,0,.97-1.94,2.43-3.65,1.46-1.69,7.55-11.89,9.49-15.52,1.95-3.64,3.16-5.58,8.03-21.84,0,0,13.87-3.4,33.33-21.84,6.89-6.53,10.4-14.58,10.96-21.6.35-4.5-.43-7.07-3.67-8.96-4.36-2.53-10.23-2-18.41,4.09-8.79,6.55-22.21,26.7-29.99,47.33,0,0-5.61,1.61-11.2.72-4.85-.76-14.98-1.65-16.02-10.33-1.18-9.82-.28-15.63,18.46-25.34v-.96s-3.41,1.22-8.27,3.89c-4.87,2.66-11.2,8.03-12.66,13.58-1.17,4.81-2.18,10.19,2.44,15.77,4.62,5.59,18.73,7.77,26.03,6.07,0,0-9.24,30.33-14.85,36.39,0,0-3.41-.97-7.29-2.66-3.9-1.7-13.63-5.59-17.77-5.34-4.13.24-7.72,1.56-9.25,4.61-.23.48-3.21,7.27,4.15,11.4,11.94,6.7,23.84,1.71,31.64-3.15,0,0,16.53,12.86,40.62,2.91,0,0-7.54,23.79-12.89,31.3,0,0-12.18-6.06-22.64-7.51-4.44-.63-8.27.96-9.49,2.42-1.21,1.45-4.37,5.09,1.22,11.89,5.77,7.01,23.59,3.39,30.65-2.67,0,0,1.74-.02,5.61,2.42,8.03,5.1,15.6,5.57,24.33,4.61,10.5-1.16,17.38-4.76,28.08-20.28l-1.32-.11s-2.67,3.44-5,6.49c-4.01,5.24-11.31,10.99-23.96,11.72-12.65.72-17.76-4.13-23.6-7.28,0,0,2.91-3.41,5.6-6.79,2.68-3.41,9.97-22.32,11.93-29.61"/>
</svg>