<?xml version="1.0" encoding="UTF-8"?>
<svg id="Calque_1" data-name="Calque 1" xmlns="http://www.w3.org/2000/svg" viewBox="0 0 272.16 272.16">
  <defs>
    <style>
      .cls-1 {
        fill: #686868;
      }
    </style>
  </defs>
  <path class="cls-1" d="M91.16,92.65c-5.57-7.34-8.78.23-15.75-3.14,5.68,7.14,10-.32,15.75,3.14"/>
  <path class="cls-1" d="M52.72,80.27c-3.04-.32-4.2,7.95-4.84,8.54,2.77-.44,3.31-7.3,4.84-8.54"/>
  <path class="cls-1" d="M51.02,103.03c.25-5.21.67-6.82,1.31-8.11-2.61.69-3.5,8.91-3,14.21.08,1.26.19,2.33.11,3.15.88-.64,1.3-3.49,1.58-9.25"/>
  <path class="cls-1" d="M39.47,147.23c-.21-6.88,1.17-10.28,5.57-16.36-6.38,4.62-8.12,10.39-5.57,16.36"/>
  <path class="cls-1" d="M39.76,156.78c-1.53,2.54-.52,7.63-.48,8.37.5-.22,1.18-.19,1.18-.19-.08-1.18-.77-6.17-.7-8.18"/>
  <path class="cls-1" d="M61.92,156.44c-.95,2.81,1.16,7.56,1.38,8.27.44-.32,1.11-.45,1.11-.45-.35-1.13-2.11-5.84-2.48-7.82"/>
  <path class="cls-1" d="M181.01,92.65c5.57-7.34,8.78.23,15.77-3.14-5.7,7.14-10.01-.32-15.77,3.14"/>
  <path class="cls-1" d="M219.44,80.27c3.04-.32,4.21,7.95,4.85,8.54-2.76-.44-3.31-7.3-4.85-8.54"/>
  <path class="cls-1" d="M221.14,103.03c-.23-5.21-.66-6.82-1.31-8.11,2.62.69,3.51,8.91,3,14.21-.07,1.26-.18,2.33-.11,3.15-.87-.64-1.29-3.49-1.58-9.25"/>
  <path class="cls-1" d="M232.7,147.23c.18-6.88-1.19-10.28-5.57-16.36,6.37,4.62,8.11,10.39,5.57,16.36"/>
  <path class="cls-1" d="M232.41,156.78c1.53,2.54.53,7.63.47,8.37-.49-.22-1.18-.19-1.18-.19.08-1.18.76-6.17.7-8.18"/>
  <path class="cls-1" d="M210.24,156.44c.94,2.81-1.16,7.56-1.37,8.27-.45-.32-1.11-.45-1.11-.45.34-1.13,2.1-5.84,2.48-7.82"/>
  <path class="cls-1" d="M136.48,210.86v-17.47c9.33,1.86,11.91,4.6,11.67,11.23-.95-1.21-1.41-1.81-2.57-4.68-1.79-4.44-8.53-2.54-5.7,2.57.99,1.78,1.54,2.97,1.54,3.94,0,1.67-2.01,2.74-2.94,3.18-.68.32-1.58.77-1.99,1.23M148.94,204.23c.34-6.4-2.21-9.18-10.23-11.09,3.21-.97,6.39-2.08,9.82-1.36-1.11.54-1.3.9-2.63,1.96,2.69,2.02,7.45,5.14,3.04,10.5M148.93,191.09c-4.54-1.02-7.54.56-10.84,1.32,1.34-.51,2.43-1.53,2.91-2.8.48-1.28,3.05-3.94,7.93,1.48M136.07,215.1c.51-1.49,1.14-2.56,3.28-3.56,6.2-2.93,3.97-7.04,2.35-10.03-1.45-2.66,1.36-2.29,1.86-.99,1.18,3.18,2.83,5.33,4.95,7.58,1.12-2.13,4.3-4.42,4.3-8.03,0-1.81-.83-4.12-3.56-6.38.97-.63,1.29-1.28,3.19-1.35-7.22-10.61-12.54-5.77-13.42-3.46-.39,1.06-1.63,1.82-2.96,1.82s-2.54-.76-2.94-1.82c-.87-2.31-6.2-7.15-13.42,3.46,1.89.07,2.22.72,3.2,1.35-2.74,2.26-3.58,4.57-3.58,6.38,0,3.62,3.18,5.91,4.3,8.03,2.13-2.25,3.78-4.4,4.96-7.58.49-1.3,3.3-1.67,1.85.99-1.61,2.99-3.85,7.1,2.36,10.03,2.14,1,2.77,2.07,3.26,3.56M133.7,209.63c-.93-.44-2.95-1.51-2.95-3.18,0-.97.56-2.16,1.54-3.94,2.83-5.11-3.9-7-5.71-2.57-1.15,2.86-1.61,3.47-2.56,4.68-.25-6.63,2.34-9.37,11.67-11.23v17.47c-.42-.47-1.32-.91-1.99-1.23M126.27,193.74c-1.34-1.06-1.51-1.42-2.64-1.96,3.43-.72,6.61.39,9.83,1.36-8.03,1.92-10.57,4.69-10.23,11.09-4.41-5.36.34-8.47,3.04-10.5M131.18,189.61c.48,1.27,1.56,2.29,2.9,2.8-3.3-.76-6.3-2.33-10.83-1.32,4.88-5.42,7.45-2.76,7.93-1.48"/>
  <path class="cls-1" d="M136.08,182.26c-16.16,0-29.31-18.79-29.31-41.91s13.15-41.89,29.31-41.89,29.33,18.79,29.33,41.89-13.16,41.91-29.33,41.91M136.08,95.19c-17.99,0-32.56,20.21-32.56,45.15s14.57,45.16,32.56,45.16,32.59-20.22,32.59-45.16-14.58-45.15-32.59-45.15"/>
  <path class="cls-1" d="M247.01,110.63c1.34,3.47,1.87,6.42.97,8.94-.58-1.36-1.45-2.41-1.93-3.04-3.58-4.58-3.94-7.18-3.36-10.18-.94-1.56-2.51-2.69-4.4-2.56-1.45.09-2.6.91-3.2,2.25-.87,1.93-1.14,6.63,6.6,16.3,4.84,6.07,5.98,11.43,3.2,15.08-1.88,2.49-5.22,4.43-9.37,2.74.43,3.43.15,7.66-2.75,12.18,4.16,2.4,4.86,2.96,3.9,11.24-.14,1.1-.39,2.9-.4,4.07-1.65-.72-3.24-.78-4.52.07-1.45.93-1.9,3.02-1.47,5.64-.19,0-2.85.14-4.42.17-1.33.02-3.67.34-7.32.43-2.32.1-2.62-.31-2.28-2.59.14-1.02.48-1.7,1-2.06,1.06-.75,3.21-.54,6.33.07.43.09.89.2,1.38.32.66-2.83,1.47-8.95,1.83-11.34,1.74,0,2.94-.57,3.69-1.24-1.36-.14-2.35-.38-3.35-.58-4.42-.88-6.61-3.89-7.43-5.41-1.6-2.98-1.66-6.61-.2-10.74.73-2.08,1.24-5.45.23-7.67-.25,1.41-.58,3.69-1.46,5.61-2.5-2.31-8.48-8.59-10.86-12.02,1.63-.7,2.97-1.73,3.31-2.28-1.65-.06-3.52.02-5.08.48-1.9.57-10.95,3.12-11.81,3.37-.87.25-1.33.69-1.93,1.23-1.16,1.03-2.08,1.18-3.96,1.35-2.81.27-3.37-3.48-3.62-4.9-.65-3.88,3.34-3.51,5.46-3.28,1.46.18,2.65.5,3.64.14.56-.21,4.42-1.85,6.92-3.01l2.24,2.49c-.84-3.75-1.36-7.2-.88-9.51,2.82,5.2,5.18,7.81,7.87,10.23.26-1.19.43-2.13.55-3.21,1.02,1.33,2.14,2.31,3.2,3.25,2.83,2.5,4.3,4.39,5.92,7.79,1.65-3.01,2.16-6.8,2.16-8.91,0-1.06-.2-2.53-.25-3.48.06.05.27.24.33.29,1.58,6.7,5.02,9.72,8.09,12.38,2.65,2.3,4.25,3.85,5.7,6.99,1.43.07,5.29.44,6.98-2.74,1.16-2.16,1.28-6.33-4.78-14-6.26-7.93-6.78-15.33-3.54-18.36,2.72-2.54,6.86-1.4,10.53,1.92,3.95-.99,4.35.34,5.18,3.42.55,2.08,1.35,5.08,3.83,6.06-2.88.56-4.84-1.77-6.47-3.4M237.03,175.47v1.66h-64.61c.47-.58.92-1.13,1.37-1.66h63.24ZM234.08,180.04h-60.75c-.57,0-1.97.14-3.44.57.63-.95,1.27-1.85,1.92-2.7h64.42l-2.15,2.13ZM215.35,187.29c.04,2.04-1.21,2.96-1.95,3.33-1.21.59-3.64.71-3.09-1.39.86.29,1.99.03,2.45-.72.68-1.09.27-2.38-1.01-3.12-2.65-1.52-6.73-.15-12.54,4.65-5.4,4.44-11.29,4.1-14.24,2.52-2.15-1.14-2.02-3.19-.46-3.76,1.52-.55,2.91.77,3.23,2.53,1.4.02,6.18,1.2,12.01-3.63,5.86-4.85,10.7-5.32,13.23-4.14,1.52.7,2.37,2.01,2.38,3.73M186.39,182.14h18.38c-1.97.81-4.12,2.09-6.36,3.94-3.31,2.74-6.25,3.56-8.37,3.56.87-2.58.32-6.2-3.65-7.51M176.78,190.69c-1.79-.43-4.56.1-6.06,2.66-1.6,2.73-.7,6.33,2.21,7.47-3.05.3-7.4-2.95-7.63-7.56-.17-3.65.52-5.68,2.28-8.94.75-1.4,4.21-2.18,5.75-2.18h8.21c-3.08.66-6.17,4.52-4.75,8.55M216.51,149.69c-1.44,1.07-4.07,1.86-3.42,3.19,1.4,2.85,1.9,3.4,1.27,6.77-.25,1.31-2.44,5.78-2.73,7.66-1.54-.96-3.53-1.09-4.98-.09-1.74,1.2-1.74,4.03-1.29,6.16,0,0-3.37,0-5.25-.07-1.67-.06-4.68.21-6.94.35-.79,0-1.32-.06-1.63-.38-.39-.41-.58-1.29-.54-2.56.02-.87.29-1.51.81-1.95,1.51-1.33,5-1.14,7.36-.73.51.14,1.01.26,1.47.38l4.25-12.82c1.38.72,2.69.41,3.43.22-.94-.45-2.01-1.19-3.23-2.36-3.59-3.42-4.77-7.55-3.39-11.04,1.88-4.75,7.58-5.87,9.05-8.85,1.54,1.77,4.44,4.8,6.46,6.69-1.27,4-1.55,5.93-.69,9.44M214.16,173.37h-6.84c-.5-1.66-.63-3.86.66-4.58,1.4-.79,3.31.3,5.07,1.67.62-4.34,2.92-7.73,3.39-10.25.35-1.89.66-4.41-.72-6.81-.62-1.11.29-.94,1.54-1.75,1.19,2.84,3.69,5.32,7.1,6.54-.13.89-.93,6.47-1.34,8.96-2.85-.52-5.32-.71-6.98.45-1.02.72-1.61,1.86-1.85,3.48-.13.9-.15,1.65-.04,2.29M195.94,135.46c-.09-2.06-.49-3.83-1.1-5.34,1.11-.32,7.98-2.22,10.62-3,1.1,1.72,2.31,3.12,4,5.11-.27,1.51-8.21,4.63-10.04,9.29-1.23,3.1-1.38,8,3.28,12.79-.48,1.45-2.92,9.31-3.79,11.57-2.8-.27-6.4-.53-8.48,1.29-.97.85-1.47,2.01-1.52,3.47-.03,1.09.08,2,.34,2.74h-13.6c3.61-3.97,8.83-10.05,13.17-17.08,4.95-8.04,7.35-15.05,7.12-20.83M190.08,132.36c1.89-.28,2.74-1.01,2.92-1.15.48,1.28.77,2.74.84,4.34.51,12.87-12.84,28.2-18.93,35.42-8.53,10.09-11.93,14.03-11.77,22.25.1,4.52,3.08,7.72,6.36,8.94,2.68,1,5.92.77,6.82-2.07-.54-.92-.3-1.97.16-2.4.9-.86,2.67-.29,2.78,1.74.09,1.93-.75,3.67-2.34,4.92-4.96,3.86-14.83.88-16.89-6.81-2.14-8.03,2.23-18.09,12.74-29.33,14.36-15.36,20.22-27.81,17.32-35.86M199.51,192.48c-5.62,4.69-10.91,5.38-16.78,3.14,1.59,4.71-.32,12.56-9.52,14.17-7.31,1.27-15.75-2.74-17.7-12.89-1.24-6.48.54-16.57,15.01-32.07,14.36-15.38,16.75-23.81,16.24-27.88.99-1.52,1.01-3.09.48-4.36.17,0,.35,0,.54,0,.5-.04,1.02-.07,1.52-.12,2.94,7.72-2.84,19.97-17.1,35.22-11.16,11.93-15.14,21.76-12.92,30.06,2.26,8.47,13.04,11.19,18.13,7.24,1.8-1.42,2.74-3.39,2.63-5.58-.14-2.88-2.83-3.48-4.1-2.28-.59.55-.82,1.38-.68,2.36-2.98-.87-3.43-4.29-1.06-5.96,2.39-1.7,5.28-.54,6.85.48-2.09-2.1-3.48-5.84-.64-8.67,1.5-1.49,3.94-2.09,5.91-.97,1.74.97,2.26,2.62,1.7,5.32-.67-1.57-2.22-2.34-3.88-1.74-2.27.79-2.53,3.8.23,5.27,3.26,1.75,9.57,2.17,15.33-2.57,5.43-4.48,9.21-5.78,11.5-4.52.81.43,1.04,1.27.69,1.83-.32.52-1.23.61-2.11.17-2.92-1.46-5.75.56-10.27,4.35M182.73,137c-2.06.25-4.65-.91-5.19-5.03-.48-3.53,1.82-5.89,4.83-6.63.12,1.14.32,2.14.56,2.99-2.37,1.39-2.74,5.08-1.13,5.99,0-1.95.82-2.23,1.85-2.29.69-.04,1.62.44,1.81,2.17.18,1.6-1.23,2.63-2.73,2.81M177.27,125.98c-.61.69-1.07,1.45-1.38,2.29-4.43-3.83-7.04-10.02-7.49-17.76.54.4,1.18.75,1.9,1.03.27.1.56.19.83.27.32.07.52.32.55.75.3,4.89,2.2,9.19,5.55,12.58.23.23.21.66.04.86M168.71,101.15c-.29,1.45-.18,2.92.23,4.03,1.15,3.06,4.42,2.96,6.64,3.56.07.02.17.06.3.08-1.39,1.01-3.21,1.39-4.83.76-2.51-.97-3.64-3.14-3.64-5,0-1.21.49-2.44,1.31-3.43M173.03,98.51c4.14-2.29,5.32,3.54,8.35,4.13,1.02.2,11,2.04,13.37,2.42-.59,2.49-.1,4.71.83,6.77-1.46-.4-17.87-4.91-19.61-5.4-2.19-.61-4.53-.36-5.03-2.62-.38-1.7.26-4.28,2.09-5.3M180.93,123.58c-.86.29-1.68.76-2.26,1.15-.25.17-.69.05-.88-.15-3.18-3.22-5-7.29-5.33-11.91-.03-.52.28-.69.63-.71.94-.06,1.86-.29,2.71-.7,0,5.28,1.51,9.06,5.13,12.33M183.59,130.09c-.55.02-1.13.19-1.7.56.1-.48.54-1.18,1.27-1.61.13.38.28.74.43,1.05M197.13,114.77c.55.91,1.3,2.01,1.92,2.89-2.29,1.05-5.42,2.5-6.23,2.83-1.06.45-2.1.11-3.78-.04-3.28-.29-5.44.34-6.3,1.94-3.54-3.15-5.22-7.38-4.77-12.61.09-.1.17-.19.26-.29,5.6,1.56,17.86,4.98,18.9,5.29M204.14,99.31c2.85-1.13,6.55-2.69,6.17-6.3,2.35-.45,5.04-1.67,5.04-4.46,0-1.14-.48-2.44-1.41-3.91.97-.72,1.94-1.49,2.42-2.63.59-1.4.42-3.02.32-4.49-2.4-.5-4.59.15-5.57.86-1.74,1.26.18,1.58,1.33,1.11.96-.41,1.6-.55,2.69-.53.04,1.59-.1,2.5-.99,3.39-.18.2-2.67,2.11-2.7,2.07.78,1.12,2.42,3.1,1.7,4.81-.7,1.65-3.43,1.75-4.92,1.98-2.02.38-3.39,1-5.02,2.28-.18-.25-.77-1.21-1.33-2.14,6.59-1.85,2.8-9.39-3.21-5.78-.55-.89-1.69-2.65-1.69-2.65,0,0,4.03-1.64,4.94-2.08.26,2.22,2.21,1.97,2.65,1.06.83-1.67,3.47-1.63,3.44-2.65-.72.19-1.4.18-3.28.43-.84.13-1.38,0-1.75-.24-.47-.67-.91-1.21-.16-1.65,1.13-.63,2.35-1.11,3.49-1.74,1.69-.93,2.46-2.5,1.47-4.32,1.5.23,3.01,1.61,3.59,2.05,9.86,1.17,13.4,7.54,14.8,16.72.36,2.39.26,5.18.62,7.13-1.25-1.31-2.61-3.44-4.8-4.21.53.8,1.06,2.03,1.72,4.32.77,2.65,1.43,5.43,1.19,9.62-.18,3.46-.6,7.47.57,11.13-2.66-1.26-4.66-2.83-6.5-4.44.48,4.05.73,8.71-.16,11.55-1.42-2.02-2.85-3.43-4.14-4.57-3.96-3.49-4.87-5.39-6.23-8.53.04,1.55-.05,3.5-.31,5.64-2.76-3.28-4.14-5.7-5.66-8.89l-.88-1.89c-1.11,2.63-1.85,3.55-1.98,6.91-1.38-2.26-2.61-5-2.61-7.2,0-4.02,3.85-6.45,7.16-7.76M150.47,87.85c-.46-.2-.43-.48-.34-.78l.84-2.05c.15-.28.37-.45.78-.26,2.64,1.23,5.2,2.76,7.64,4.59,0,0-1.72,2.55-1.76,2.62-2.29-1.65-4.69-3.02-7.17-4.11M156.4,96.28c-1.23-.91-2.49-1.74-3.79-2.47-.53-.3-.54-.72-.39-1.01l1.21-2.1c.08-.14.36-.3.71-.09,1.06.62,2.1,1.3,3.12,2.03-.82,1.67-.88,3.11-.86,3.64M150.31,92.61c-1.63-.77-3.29-1.41-4.98-1.9-.8-.25-.8-.77-.7-1.13l.54-2c.13-.42.46-.66,1.09-.47,2.13.66,4.23,1.54,6.25,2.6.36.19.32.51.17.74l-1.15,2c-.24.33-.62.45-1.21.17M144.4,87.39l-.54,2.01c-.13.42-.47.77-1.29.61-1.56-.32-3.15-.53-4.74-.61-1.44-.07-1.35-.45-1.35-1.13v-1.79c0-.54.02-.94.92-.9,2.15.09,4.3.38,6.4.86.64.15.73.5.61.95M136.08,84.76c-1.12,0-2.25.06-3.38.16-.95.11-.87-.27-.91-.61l-.28-2.14c-.07-.41-.03-.61.81-.7,1.25-.13,2.51-.2,3.76-.2s2.53.07,3.78.2c.83.09.88.29.81.7l-.28,2.14c-.05.35.04.72-.92.61-1.13-.1-2.26-.16-3.4-.16M134.34,89.4c-1.6.08-3.19.29-4.75.61-.83.16-1.16-.2-1.29-.61l-.54-2.01c-.11-.45-.04-.8.6-.95,2.1-.48,4.25-.77,6.41-.86.89-.04.92.36.92.9v1.79c0,.69.09,1.07-1.35,1.13M126.85,90.7c-1.7.5-3.37,1.13-4.99,1.9-.6.29-.97.16-1.21-.17l-1.15-2c-.16-.23-.18-.54.16-.74,2.03-1.07,4.12-1.94,6.25-2.6.62-.18.95.05,1.09.47l.54,2c.11.37.11.89-.69,1.13M119.56,93.82c-1.3.73-2.56,1.56-3.79,2.47.02-.53-.03-1.97-.86-3.64,1.02-.73,2.06-1.41,3.11-2.03.36-.22.64-.05.72.09l1.21,2.1c.15.29.12.71-.39,1.01M112.76,89.34c2.45-1.83,5.01-3.36,7.65-4.59.42-.18.62-.02.77.26l.85,2.05c.11.3.12.58-.34.78-2.47,1.09-4.87,2.46-7.16,4.11-.05-.07-1.77-2.62-1.77-2.62M130.41,85.24c-2.33.38-4.63,1.01-6.86,1.86-.5.18-.69-.06-.79-.31l-.84-2.01c-.17-.34-.08-.64.32-.8,2.49-1,5.05-1.72,7.65-2.16.59-.1.78.09.84.48l.29,2.19c.07.34.05.64-.61.75M150.23,84.77l-.83,2.01c-.1.25-.29.5-.79.31-2.25-.85-4.53-1.47-6.87-1.86-.65-.11-.68-.41-.6-.75l.28-2.19c.05-.39.26-.59.84-.48,2.6.44,5.15,1.16,7.64,2.16.41.16.49.46.31.8M136.08,79.18c-8.96,0-17.7,3.12-25.29,9.04-.34-.09-.65-.17-.83-.21-.27-.43-.88-1.35-1.18-1.82.08-.28.11-.41.18-.66,8.1-6.57,17.48-10.04,27.12-10.04s19.03,3.47,27.14,10.04c.06.24.09.38.17.66-.3.47-.9,1.39-1.17,1.82-.18.04-.49.12-.83.21-7.59-5.92-16.32-9.04-25.31-9.04M104.78,76.13c1.43-1.08,3.56-2.48,5.62-3.52l3.85,6.74c-.49.27-.98.58-1.46.88-.02-.03-1.89-3.05-1.89-3.05-.91-1.46-3.14-.08-2.22,1.39,0,0,1.91,3.03,1.95,3.08-.48.33-.93.65-1.39,1l-4.46-6.53ZM102.59,75.03c2.35-1.87,4.64-3.36,7.79-4.86-.12.64-.28,1.52-.32,1.75-1.97.99-4.35,2.53-5.74,3.6-.24-.07-1.09-.31-1.72-.49M99.5,71.46c.4-.32.88-.67,1.38-1.02l1.16,1.66c.7-.14,1.43-.64,1.72-1.21l-1.17-1.65c.5-.34,2.05-1.31,2.57-1.61l.98,1.78c.7-.06,1.48-.48,1.83-1.02l-.99-1.78c.55-.29,1.07-.56,1.53-.79.5.95,1.45,2.74,1.83,3.49-3.19,1.49-5.84,3.18-8.51,5.31-.5-.68-1.71-2.3-2.34-3.17M118.08,69.21c1.68-.66,4.4-1.46,6.38-1.82l1.75,7.19c-.56.14-1.11.28-1.66.44l-.88-3.1c-.48-1.65-2.99-.94-2.52.72l.91,3.16c-.54.18-1.07.4-1.61.59l-2.37-7.17ZM116.27,67.53c3.33-1.36,5.61-1.97,8.82-2.53-.29.59-.68,1.38-.79,1.61-2.09.39-4.71,1.16-6.51,1.88-.2-.14-.96-.61-1.52-.96M115.66,66.94c-.29-.79-1-2.69-1.38-3.69.48-.19,1.04-.41,1.61-.61l.68,1.92c.69.08,1.54-.22,1.97-.69l-.67-1.9c.57-.2,2.34-.7,2.92-.84l.45,1.97c.68.14,1.56-.04,2.04-.46l-.45-1.99c.6-.14,1.18-.25,1.68-.34.22,1.05.63,3.04.79,3.85-3.35.53-6.59,1.47-9.64,2.77M136.08,65.27c-.98,0-2.28.06-3.38.16-.16-.18-.75-.84-1.2-1.33,1.25-.13,3.15-.27,4.58-.27s3.34.14,4.6.27c-.44.49-1.04,1.15-1.2,1.33-1.1-.1-2.4-.16-3.4-.16M136.08,69.05c-.65,0-1.3.44-1.3,1.31v3.07c-.57,0-1.15.04-1.71.09l-.3-7.31c1.08-.1,2.36-.15,3.31-.15s2.25.05,3.33.15l-.3,7.31c-.56-.05-1.14-.08-1.71-.09v-3.07c0-.87-.66-1.31-1.32-1.31M130.76,59.43c.51-.05,1.1-.1,1.72-.14l.11,2.04c.65.25,1.54.22,2.09-.11l-.11-2.02,1.51-.02,1.52.02-.11,2.02c.54.33,1.44.36,2.09.11l.11-2.04c.63.04,1.22.09,1.72.14-.09,1.08-.25,3.09-.31,3.93-1.27-.16-3.4-.32-5.03-.32s-3.74.16-5,.32c-.07-.84-.22-2.85-.31-3.93M147.71,67.38c1.99.36,4.7,1.16,6.38,1.82l-2.38,7.17c-.53-.19-1.06-.41-1.6-.59l.91-3.16c.47-1.66-2.04-2.38-2.52-.72l-.88,3.1c-.56-.16-1.11-.3-1.66-.44l1.75-7.19ZM147.66,60.32c.5.09,1.08.2,1.69.34l-.45,1.99c.48.42,1.34.6,2.04.46l.45-1.97c.59.14,2.35.64,2.92.84l-.67,1.9c.44.47,1.29.77,1.98.69l.67-1.92c.58.2,1.14.42,1.61.61-.37,1-1.09,2.9-1.37,3.69-3.06-1.3-6.3-2.24-9.65-2.77.17-.81.58-2.81.79-3.85M154.38,68.49c-1.8-.72-4.43-1.49-6.52-1.88-.11-.23-.5-1.02-.78-1.61,3.21.55,5.49,1.17,8.82,2.53-.55.35-1.31.82-1.51.96M161.76,72.61c2.06,1.04,4.2,2.44,5.62,3.52l-4.45,6.53c-.46-.35-.92-.67-1.38-1,.03-.04,1.94-3.08,1.94-3.08.92-1.47-1.31-2.85-2.22-1.39,0,0-1.88,3.01-1.89,3.05-.49-.3-.97-.61-1.47-.88l3.85-6.74ZM169.58,75.03c-.63.18-1.49.42-1.72.49-1.39-1.07-3.77-2.6-5.75-3.6-.04-.23-.2-1.11-.32-1.75,3.15,1.5,5.42,2.99,7.79,4.86M163.66,65.82c.45.23.97.5,1.52.79l-.98,1.78c.35.54,1.13.96,1.83,1.02l.97-1.78c.52.3,2.08,1.28,2.57,1.61l-1.16,1.65c.29.57,1.02,1.07,1.71,1.21l1.17-1.66c.5.35.97.7,1.37,1.02-.63.87-1.84,2.49-2.33,3.17-2.67-2.13-5.33-3.82-8.51-5.31.39-.75,1.33-2.54,1.84-3.49M101.11,109.59c-1.61.63-3.44.25-4.82-.76.13-.02.23-.06.3-.08,2.22-.6,5.49-.5,6.64-3.56.41-1.11.52-2.58.23-4.03.82.98,1.31,2.22,1.31,3.43,0,1.86-1.13,4.03-3.66,5M96.29,128.27c-.32-.83-.77-1.6-1.38-2.29-.18-.2-.19-.63.04-.86,3.35-3.39,5.25-7.69,5.54-12.58.03-.43.23-.68.55-.75.28-.07.56-.17.83-.27.72-.28,1.36-.63,1.91-1.03-.45,7.74-3.06,13.93-7.49,17.76M94.64,131.97c-.56,4.12-3.15,5.28-5.21,5.03-1.49-.18-2.91-1.22-2.73-2.81.19-1.73,1.13-2.21,1.81-2.17,1.04.06,1.86.34,1.86,2.29,1.6-.91,1.24-4.6-1.13-5.99.23-.85.43-1.85.57-2.99,3,.74,5.3,3.11,4.83,6.63M101.65,164.84c14.45,15.5,16.25,25.58,15,32.07-1.93,10.14-10.38,14.16-17.7,12.89-9.2-1.61-11.11-9.46-9.52-14.17-5.87,2.24-11.16,1.54-16.78-3.14-4.51-3.79-7.36-5.81-10.27-4.35-.88.44-1.79.35-2.1-.17-.35-.57-.12-1.4.68-1.83,2.29-1.26,6.06.03,11.49,4.52,5.76,4.74,12.08,4.32,15.34,2.57,2.75-1.47,2.5-4.48.22-5.27-1.67-.6-3.22.18-3.88,1.74-.56-2.7-.03-4.35,1.7-5.32,1.98-1.13,4.41-.52,5.92.97,2.84,2.83,1.45,6.57-.63,8.67,1.56-1.02,4.45-2.17,6.85-.48,2.37,1.67,1.92,5.09-1.05,5.96.13-.97-.09-1.81-.68-2.36-1.26-1.2-3.96-.6-4.1,2.28-.11,2.19.83,4.16,2.64,5.58,5.09,3.95,15.86,1.23,18.13-7.24,2.22-8.3-1.77-18.13-12.92-30.06-14.25-15.25-20.03-27.49-17.1-35.22.5.05,1.01.08,1.52.12.19,0,.37,0,.54,0-.54,1.27-.52,2.84.48,4.36-.51,4.07,1.87,12.5,16.24,27.88M58.77,190.61c-.75-.36-1.99-1.29-1.95-3.33.02-1.72.87-3.03,2.37-3.73,2.56-1.18,7.38-.71,13.24,4.14,5.83,4.83,10.61,3.65,12.02,3.63.32-1.76,1.7-3.08,3.21-2.53,1.56.57,1.69,2.62-.46,3.76-2.95,1.58-8.85,1.92-14.24-2.52-5.82-4.8-9.89-6.17-12.56-4.65-1.27.73-1.67,2.02-.99,3.12.46.75,1.6,1.01,2.45.72.55,2.1-1.88,1.97-3.1,1.39M82.13,189.65c-2.12,0-5.06-.82-8.36-3.56-2.25-1.86-4.39-3.14-6.37-3.94h18.38c-3.97,1.31-4.54,4.93-3.65,7.51M38.09,180.04l-2.17-2.13h64.43c.66.85,1.3,1.75,1.91,2.7-1.46-.44-2.85-.57-3.44-.57h-60.74ZM35.14,175.47h63.23c.45.53.91,1.08,1.38,1.66H35.14v-1.66ZM57.97,171.08c-.24-1.62-.84-2.76-1.85-3.48-1.66-1.17-4.13-.97-6.99-.45-.39-2.49-1.2-8.07-1.34-8.96,3.43-1.22,5.91-3.7,7.11-6.54,1.25.81,2.17.64,1.54,1.75-1.37,2.4-1.07,4.92-.72,6.81.47,2.53,2.77,5.91,3.39,10.25,1.77-1.37,3.68-2.46,5.08-1.67,1.28.72,1.15,2.92.65,4.58h-6.84c.11-.64.1-1.39-.03-2.29M65.51,167.21c-1.46-1-3.44-.86-4.98.09-.3-1.88-2.5-6.35-2.74-7.66-.63-3.37-.14-3.92,1.27-6.77.66-1.34-1.96-2.12-3.42-3.19.86-3.51.59-5.45-.69-9.44,2.02-1.89,4.93-4.92,6.46-6.69,1.47,2.98,7.18,4.1,9.05,8.85,1.38,3.49.2,7.62-3.4,11.04-1.22,1.17-2.28,1.9-3.23,2.36.75.19,2.06.5,3.44-.22l4.25,12.82c.47-.12.95-.25,1.46-.38,2.36-.41,5.86-.59,7.38.73.51.44.77,1.08.8,1.95.04,1.28-.15,2.15-.54,2.56-.32.33-.84.38-1.64.38-2.25-.14-5.25-.41-6.94-.35-1.88.07-5.25.07-5.25.07.46-2.13.46-4.96-1.29-6.16M83.27,170.64c-.05-1.46-.55-2.62-1.52-3.47-2.08-1.81-5.69-1.56-8.49-1.29-.86-2.26-3.3-10.12-3.78-11.57,4.67-4.79,4.5-9.69,3.28-12.79-1.84-4.66-9.78-7.78-10.04-9.29,1.67-1.99,2.89-3.39,3.99-5.11,2.65.77,9.51,2.68,10.62,3-.61,1.51-1.01,3.28-1.09,5.34-.24,5.79,2.16,12.79,7.12,20.83,4.33,7.03,9.55,13.1,13.16,17.08h-13.6c.26-.74.36-1.65.34-2.74M101.45,193.35c-1.52-2.56-4.28-3.09-6.07-2.66,1.42-4.03-1.68-7.89-4.75-8.55h8.2c1.55,0,5,.78,5.75,2.18,1.75,3.26,2.44,5.29,2.28,8.94-.22,4.61-4.57,7.86-7.63,7.56,2.92-1.14,3.81-4.75,2.21-7.47M99.39,168.23c10.52,11.24,14.89,21.3,12.74,29.33-2.06,7.69-11.93,10.67-16.89,6.81-1.59-1.25-2.42-2.99-2.33-4.92.09-2.03,1.87-2.6,2.78-1.74.45.43.7,1.48.16,2.4.9,2.84,4.14,3.07,6.81,2.07,3.28-1.22,6.26-4.43,6.36-8.94.17-8.22-3.24-12.16-11.76-22.25-6.09-7.22-19.45-22.55-18.93-35.42.06-1.6.34-3.06.83-4.34.19.15,1.03.87,2.93,1.15-2.9,8.05,2.95,20.5,17.31,35.86M35.89,167.66c-.01-1.17-.28-2.97-.41-4.07-.95-8.28-.25-8.83,3.9-11.24-2.9-4.52-3.17-8.75-2.74-12.18-4.15,1.7-7.49-.25-9.37-2.74-2.78-3.65-1.64-9.01,3.21-15.08,7.74-9.67,7.45-14.37,6.6-16.3-.6-1.34-1.77-2.17-3.2-2.25-1.88-.13-3.46,1.01-4.4,2.56.58,3,.22,5.6-3.35,10.18-.49.63-1.35,1.68-1.94,3.04-.89-2.53-.36-5.48.98-8.94-1.63,1.63-3.6,3.96-6.48,3.4,2.47-.97,3.27-3.98,3.83-6.06.83-3.09,1.23-4.41,5.18-3.42,3.68-3.33,7.81-4.47,10.53-1.92,3.24,3.03,2.72,10.43-3.54,18.36-6.05,7.67-5.94,11.84-4.77,14,1.7,3.18,5.56,2.81,6.99,2.74,1.43-3.13,3.06-4.68,5.7-6.99,3.06-2.65,6.52-5.68,8.09-12.38.05-.05.26-.25.32-.29-.04.95-.25,2.42-.25,3.48,0,2.1.52,5.9,2.16,8.91,1.62-3.41,3.09-5.29,5.93-7.79,1.06-.94,2.16-1.92,3.19-3.25.13,1.09.3,2.02.56,3.21,2.69-2.43,5.05-5.04,7.86-10.23.47,2.32-.03,5.77-.88,9.51l2.24-2.49c2.51,1.17,6.37,2.81,6.93,3.01.98.37,2.18.04,3.63-.14,2.11-.23,6.11-.61,5.45,3.28-.24,1.42-.8,5.17-3.62,4.9-1.88-.18-2.79-.32-3.95-1.35-.61-.54-1.06-.98-1.94-1.23-.87-.25-9.91-2.8-11.82-3.37-1.56-.46-3.43-.54-5.08-.48.33.55,1.69,1.58,3.3,2.28-2.36,3.44-8.35,9.71-10.85,12.02-.87-1.92-1.21-4.21-1.46-5.61-.99,2.22-.5,5.59.24,7.67,1.46,4.13,1.38,7.76-.2,10.74-.82,1.53-3.01,4.53-7.43,5.41-1,.2-1.99.45-3.35.58.75.67,1.94,1.24,3.67,1.24.37,2.39,1.18,8.51,1.84,11.34.48-.12.95-.23,1.39-.32,3.11-.6,5.26-.81,6.32-.07.52.37.86,1.05,1,2.06.34,2.28.03,2.69-2.29,2.59-3.66-.09-5.99-.41-7.32-.43-1.58-.02-4.23-.16-4.42-.17.42-2.62-.02-4.72-1.47-5.64-1.29-.86-2.88-.79-4.53-.07M46.7,118.49c1.18-3.66.77-7.67.57-11.13-.23-4.18.42-6.96,1.2-9.62.66-2.29,1.18-3.53,1.71-4.32-2.18.77-3.55,2.9-4.78,4.21.35-1.95.25-4.73.61-7.13,1.39-9.18,4.93-15.55,14.8-16.72.59-.44,2.09-1.82,3.6-2.05-.99,1.82-.22,3.39,1.47,4.32,1.14.63,2.36,1.1,3.49,1.74.76.44.31.97-.16,1.65-.36.24-.9.36-1.74.24-1.87-.25-2.55-.24-3.28-.43-.04,1.02,2.61.97,3.44,2.65.45.91,2.4,1.16,2.65-1.06.92.44,4.94,2.08,4.94,2.08,0,0-1.13,1.77-1.68,2.65-6-3.61-9.8,3.93-3.21,5.78-.55.93-1.14,1.89-1.32,2.14-1.63-1.28-3.01-1.9-5.02-2.28-1.5-.23-4.23-.34-4.92-1.98-.72-1.71.91-3.69,1.7-4.81-.04.04-2.53-1.87-2.72-2.07-.88-.89-1.01-1.81-.98-3.39,1.1-.02,1.73.13,2.7.53,1.15.48,3.06.15,1.34-1.11-.98-.71-3.17-1.37-5.57-.86-.11,1.47-.27,3.09.32,4.49.47,1.14,1.45,1.91,2.42,2.63-.94,1.46-1.42,2.76-1.42,3.91,0,2.79,2.69,4.01,5.04,4.46-.37,3.62,3.32,5.17,6.17,6.3,3.31,1.31,7.15,3.74,7.15,7.76,0,2.2-1.24,4.94-2.6,7.2-.14-3.36-.87-4.28-1.98-6.91l-.88,1.89c-1.51,3.19-2.88,5.61-5.65,8.89-.27-2.13-.36-4.09-.31-5.64-1.36,3.14-2.26,5.04-6.22,8.53-1.3,1.14-2.74,2.54-4.14,4.57-.91-2.84-.66-7.51-.17-11.55-1.84,1.61-3.84,3.18-6.51,4.44M89.02,129.04c.72.43,1.16,1.13,1.26,1.61-.57-.37-1.14-.54-1.7-.56.15-.31.3-.66.43-1.05M96.36,111.26c.86.41,1.77.65,2.71.7.36.02.67.19.63.71-.33,4.62-2.15,8.69-5.33,11.91-.2.2-.63.32-.88.15-.57-.39-1.41-.86-2.23-1.15,3.6-3.27,5.1-7.04,5.11-12.33M93.94,109.48c.08.1.17.19.27.29.43,5.23-1.24,9.46-4.77,12.61-.88-1.61-3.03-2.24-6.31-1.94-1.68.15-2.72.5-3.78.04-.81-.33-3.94-1.78-6.23-2.83.62-.87,1.36-1.98,1.92-2.89,1.05-.31,13.31-3.73,18.91-5.29M77.42,105.06c2.37-.38,12.36-2.22,13.37-2.42,3.03-.59,4.21-6.42,8.35-4.13,1.83,1.02,2.46,3.6,2.09,5.3-.49,2.26-2.84,2.01-5.03,2.62-1.74.49-18.15,5-19.6,5.4.93-2.06,1.41-4.27.82-6.77M257.52,113.93c-3.28-1.18-4.47-1.39-5.84-6.51-.72-2.69-1.64-5.58-6.6-4.68-4.82-4.18-9.46-4.47-12.63-1.48-3.95,3.67-4.03,11.86,3.2,21.03,4.12,5.21,5.63,9.42,4.41,11.66-.59,1.12-1.77,1.89-3.58,1.87-1.49-2.91-3.48-4.86-5.54-6.66-2.67-2.32-5.29-4.69-6.84-9.17.95.79,5.1,2.28,5.1,2.28-1.86-3.48-2.35-6.95-2.35-11.02,0-1.3.05-2.58.12-3.76.11-1.94-.09-5.16-.68-7.76.58.68,1.9,1.75,3.26,2.77-1.57-5.51-.95-8.51-1.77-13.58-1.43-8.95-5.16-15.34-15.61-16.98-3.88-2.95-6.17-2.38-8.01-1.75,1.41.96,2.89,3.08,1.11,4.06-1.13.63-2.36,1.11-3.49,1.76-1.17.66-1.74,1.91-1.33,3.22.03.08-4.21,1.74-4.56,1.89-1.04.53-1.5,1.81-.81,2.79,1.09,1.54,2.04,3.21,3.05,4.82l.93-.82c3.66-3.21,6.74.95,1.06,1.69l-1.49.19c.9,1.71,1.76,3.48,2.92,5.03.63.85,1.93,1.14,2.79.45,1.32-1.04,2.39-1.55,3.91-1.88,0,.1.02.19.02.28,0,1.01-.62,2.02-4.9,3.72-3.7,1.47-6.51,3.4-7.77,5.75-1.92-.27-11.9-2.17-12.96-2.38-2.6-.48-3.76-6.46-9.9-4.53-.86.25-1.55.69-2.13,1.25-.92.27-1.81.72-2.59,1.42-4.81,4.22-12.27,0-8.49-6.01.03-.05,1.32-1.92,1.67-2.43.52-.14,2.33-.59,2.33-.59l2.1-3.28-.57-2.22s-.41-.34-.49-.4c.51-.74,4.16-6.09,4.52-6.61.52-.15,2.31-.66,2.31-.66l4.08-5.52-.69-.64c-2.18-2.02-8.4-5.94-11.25-7.04l-.88-.34-3.17,6.08s.33,1.85.43,2.38c-.3.52-3.13,5.48-3.85,6.74-.81-.41-1.61-.79-2.42-1.17.48-1.49,2.23-6.74,2.42-7.31.45-.28,2.04-1.27,2.04-1.27l2.4-6.43-.82-.42c-2.79-1.41-9.66-3.38-12.76-3.66l-.93-.08-1.38,6.72s.83,1.69,1.07,2.17c-.14.54-1.33,5.44-1.76,7.23-.91-.17-1.81-.31-2.72-.42.08-1.87.28-6.83.29-7.4.37-.41,1.62-1.8,1.62-1.8l.54-6.83-.93-.18c-1.63-.3-5.36-.44-6.64-.44s-5,.14-6.63.44l-.91.18.53,6.83s1.25,1.39,1.62,1.8c.01.56.21,5.52.29,7.4-.91.11-1.81.25-2.72.42-.43-1.79-1.63-6.68-1.77-7.23.24-.49,1.07-2.17,1.07-2.17l-1.38-6.72-.93.08c-3.11.28-9.97,2.25-12.76,3.66l-.84.42,2.4,6.43s1.58.99,2.05,1.27c.18.57,1.92,5.81,2.42,7.31-.81.38-1.62.76-2.42,1.17-.72-1.27-3.55-6.22-3.85-6.74.09-.54.42-2.38.42-2.38l-3.17-6.08-.88.34c-2.84,1.1-9.09,5.01-11.26,7.04l-.69.64,4.07,5.52,2.33.66c.35.53,4,5.88,4.51,6.61-.08.06-.48.4-.48.4l-.57,2.22,2.11,3.28s1.8.45,2.33.59c.35.5,1.63,2.38,1.67,2.43,3.78,6.01-3.68,10.23-8.49,6.01-.79-.7-1.67-1.15-2.59-1.42-.58-.56-1.28-1-2.12-1.25-6.14-1.92-7.31,4.05-9.91,4.53-1.06.2-11.03,2.1-12.97,2.38-1.27-2.35-4.05-4.28-7.77-5.75-4.28-1.7-4.89-2.72-4.89-3.72,0-.09.01-.18.02-.28,1.52.33,2.59.84,3.9,1.88.86.7,2.15.4,2.8-.45,1.16-1.55,2.01-3.32,2.91-5.03l-1.49-.19c-5.68-.74-2.6-4.9,1.06-1.69l.93.82c1-1.61,1.96-3.28,3.06-4.82.68-.98.23-2.26-.81-2.79-.35-.14-4.59-1.81-4.56-1.89.42-1.31-.16-2.56-1.33-3.22-1.13-.65-2.36-1.13-3.49-1.76-1.79-.98-.32-3.1,1.1-4.06-1.84-.62-4.13-1.2-8.01,1.75-10.44,1.64-14.17,8.03-15.61,16.98-.82,5.08-.2,8.08-1.77,13.58,1.34-1.02,2.68-2.09,3.26-2.77-.6,2.61-.8,5.83-.69,7.76.07,1.18.12,2.46.12,3.76,0,4.06-.49,7.54-2.35,11.02,0,0,4.15-1.49,5.11-2.28-1.56,4.48-4.18,6.85-6.85,9.17-2.07,1.8-4.04,3.75-5.53,6.66-1.8.02-2.99-.75-3.58-1.87-1.22-2.24.29-6.44,4.4-11.66,7.24-9.17,7.15-17.36,3.22-21.03-3.19-2.99-7.81-2.7-12.64,1.48-4.96-.9-5.88,1.99-6.6,4.68-1.38,5.11-2.56,5.32-5.84,6.51.85.68,3.03,3.73,7.36,1.58-.49,4.01.79,6.39,2.61,8.46.36-2.17,1.44-3.78,3.19-6.25,3.81-5.39,4.37-7.63,3.77-10.74.77-1.03,2.83-1.77,3.58-.08.41.94,1.27,4.75-6.25,14.16-7.63,9.55-5.61,15.4-3.44,18.26,2.34,3.08,6.32,4.16,9.25,3.73-.04,3.09.52,5.9,1.91,8.69-3.84,2.54-4.03,4.72-3.25,11.79.25,2.08.59,4.27.29,6.74,0,0,1.69-.66,2.59-.84,3.15-.61,4.12.71,3.45,3.94h-6.74v3.95c0,.37.16.66.33.82.05.06,2.6,2.57,3.63,3.58.27.27.68.41,1.05.41h19.48c-1.71,1.11-2.69,2.94-2.73,5.1-.09,5.62,5.63,7.06,8.18,5.02.74-.61,1.13-1.47,1.13-2.47h0c2.26-.28,6.05,3.26,7.29,4.3,5.17,4.32,9.67,5.57,15.66,4.28-.6,6.5,3.22,12.28,11.45,13.71,8.99,1.55,18.02-3.02,20.27-14.78,1.33-6.95-.39-17.68-15.53-33.89-9.9-10.61-15.39-19.33-15.71-24.81,4.58,2.05,9.66-1.93,9.32-8.02,5.91-4.53,9.17-12.49,9.17-22.52,1-1.86,1.11-3.99.58-5.64,2.6.62,5.39-.03,6.74-1.29,6.97-6.45,14.53-9.66,22.81-9.66s15.85,3.22,22.83,9.66c1.35,1.26,4.14,1.92,6.75,1.29-.54,1.65-.43,3.78.57,5.64,0,10.03,3.26,17.99,9.17,22.52-.34,6.09,4.74,10.07,9.32,8.02-.32,5.48-5.81,14.2-15.71,24.81-15.14,16.22-16.87,26.95-15.54,33.89,2.25,11.75,11.28,16.33,20.27,14.78,8.23-1.43,12.06-7.21,11.45-13.71,6,1.29,10.5.04,15.67-4.28,1.25-1.03,5.03-4.57,7.28-4.3h0c0,1.01.39,1.87,1.14,2.48,2.54,2.04,8.26.6,8.18-5.02-.03-2.17-1.02-3.99-2.74-5.1h19.48c.37,0,.78-.14,1.05-.41,1.04-1.02,3.58-3.53,3.63-3.58.16-.17.32-.45.32-.82v-3.95h-6.74c-.67-3.22.31-4.55,3.44-3.94.9.18,2.6.84,2.6.84-.29-2.48.05-4.67.28-6.74.79-7.08.59-9.26-3.24-11.79,1.39-2.8,1.94-5.6,1.9-8.69,2.93.42,6.91-.65,9.26-3.73,2.17-2.86,4.18-8.71-3.45-18.26-7.51-9.41-6.65-13.22-6.25-14.16.76-1.69,2.81-.95,3.58.08-.59,3.12-.02,5.35,3.78,10.74,1.75,2.47,2.83,4.07,3.19,6.25,1.82-2.06,3.1-4.45,2.61-8.46,4.33,2.16,6.51-.9,7.36-1.58"/>
  <path class="cls-1" d="M136.07,180.14c-14.99,0-27.19-17.85-27.19-39.8s12.2-39.78,27.19-39.78,27.21,17.84,27.21,39.78-12.2,39.8-27.21,39.8ZM136.07,101.73c-14.35,0-26.03,17.32-26.03,38.62s11.68,38.64,26.03,38.64,26.05-17.33,26.05-38.64-11.69-38.62-26.05-38.62Z"/>
  <path class="cls-1" d="M145.68,145.92l1.4-17.03,1.63,17.03h-3.02ZM153.13,155.66l-3.19-33.22h-4l-2.71,33.22h-2.38v1.62h5.79v-1.62h-1.77l.67-8.14h3.3l.78,8.14h-1.85v1.62h7.56v-1.62h-2.23Z"/>
  <path class="cls-1" d="M124.83,124.04c1.75.65,3.11,4.39,3.11,8.94,0,4.96-1.61,9-3.6,9.04v-17.99h.5ZM125.24,143.52v-.06c2.97,0,6.04-4.66,6.04-10.48s-2.39-10.56-6.96-10.56c-.05,0-5.73,0-5.73,0l-.14,1.61h2.4v31.6h-2.4v1.62h8.27v-1.62h-2.4v-12.12h.9Z"/>
  <path class="cls-1" d="M127.5,165.66c1.52.34,2.29-.67,2.29-1.83,0-1.06-.91-1.85-2.1-1.85-1.49,0-2.32,1.11-2.32,2.49,0,2.45,1.72,5.67,6.18,5.67,4.95,0,6.99-3.48,6.99-6.79v-48.5h2.31v-1.59h-8.28v1.59h2.29v48.5s0,1.05,0,1.05c0,2.11-1.71,3.81-3.81,3.81-1.67,0-3.08-1.06-3.6-2.54l.03-.02Z"/>
</svg>