<?xml version="1.0" encoding="UTF-8"?>
<svg id="Calque_3" data-name="Calque 3" xmlns="http://www.w3.org/2000/svg" viewBox="0 0 272.16 272.16">
  <defs>
    <style>
      .cls-1 {
        fill: #686868;
      }
    </style>
  </defs>
  <path class="cls-1" d="M149.16,211.74h-7.22v-9.59h7.17c.02.15.05.3.05.45v9.14ZM149.16,223.39h-7.22v-9.59h7.22v9.59ZM131.96,200.1v-10.29c1.31-.46,2.68-.75,4.12-.75,1.33,0,2.6.27,3.81.65v10.4h-7.93ZM139.89,211.74h-7.93v-9.59h7.93v9.59ZM139.89,223.39h-7.93v-9.59h7.93v9.59ZM123.24,200.1c.74-4.08,3.25-7.48,6.68-9.38v9.38h-6.68ZM129.93,211.74h-6.93v-9.14c0-.15.03-.3.05-.45h6.88v9.59ZM129.93,223.39h-6.93v-9.59h6.93v9.59ZM126.16,160.18h5.1v10.57h-5.1v-10.57ZM126.16,147.89h5.1v10.24h-5.1v-10.24ZM126.16,145.08c0-3.85,2.09-7.18,5.12-8.93v9.71h-5.12v-.78ZM130.21,84.53c0-3.35,2.62-6.08,5.87-6.08,3.23,0,5.86,2.73,5.86,6.08v23.27h-11.73v-23.27ZM141.94,190.55c3.57,1.87,6.22,5.35,6.98,9.55h-6.98v-9.55ZM140.51,160.18h5.5v10.57h-5.5v-10.57ZM133.33,160.18h5.14v10.57h-5.14v-10.57ZM138.46,158.14h-5.14v-10.23h5.14v10.23ZM140.51,147.89h5.5v10.24h-5.5v-10.24ZM136.09,134.81c.82,0,1.61.14,2.37.33v10.72h-5.13v-10.59c.87-.26,1.79-.45,2.76-.45M145.99,145.08v.78h-5.49v-9.92c3.24,1.68,5.49,5.13,5.49,9.14M159.59,107.8h-7.87v-40.22s-13.38-8.07-13.38-8.07v-10.44h7.66s0-4.88,0-4.88h-7.66v-8.51s-4.88,0-4.88,0v8.51h-8.52s0,4.88,0,4.88h8.52v10.39s-13.44,8.12-13.44,8.12c-.14-.05-.11,0,0,.08v40.13h-7.44c-6.6,10.64-29.14,13.6-29.14,13.6v115.08s39.57,0,39.57,0v-11.05h6.93v11.05s2.03,0,2.03,0v-11.05h7.93v11.05s2.05,0,2.05,0v-11.05h7.22v11.05s39.14,0,39.14,0v-115.08h.43s-22.55-2.96-29.14-13.6"/>
</svg>